<svg width="36" height="36" viewBox="0 0 36 36" fill="none" xmlns="http://www.w3.org/2000/svg">
<path d="M14.6623 18.1503C14.6623 18.282 14.6623 18.282 14.5598 18.282H11.969C12.452 16.8183 12.9643 15.2667 13.4327 13.7444C13.4327 13.8615 13.4327 13.9786 13.5352 14.0957C13.6376 14.2128 13.6669 14.5788 13.7255 14.813L13.9889 15.6327C13.9889 15.9108 14.15 16.1742 14.2378 16.4523L14.5159 17.2867L14.6623 18.1503Z" fill="white"/>
<path d="M25.2597 17.2281C25.1784 16.9804 25.0325 16.7589 24.8369 16.5865C24.6413 16.4141 24.4033 16.297 24.1473 16.2474C23.8807 16.2037 23.6088 16.2037 23.3422 16.2474C23.145 16.2858 22.9587 16.3675 22.7967 16.4864C22.6348 16.6053 22.5011 16.7587 22.4055 16.9354C22.2572 17.1983 22.158 17.4859 22.1127 17.7843H25.1426C25.289 17.7843 25.3329 17.7843 25.3183 17.5794C25.3131 17.4604 25.2935 17.3424 25.2597 17.2281ZM25.2597 17.2281C25.1784 16.9804 25.0325 16.7589 24.8369 16.5865C24.6413 16.4141 24.4033 16.297 24.1473 16.2474C23.8807 16.2037 23.6088 16.2037 23.3422 16.2474C23.145 16.2858 22.9587 16.3675 22.7967 16.4864C22.6348 16.6053 22.5011 16.7587 22.4055 16.9354C22.2572 17.1983 22.158 17.4859 22.1127 17.7843H25.1426C25.289 17.7843 25.3329 17.7843 25.3183 17.5794C25.3131 17.4604 25.2935 17.3424 25.2597 17.2281ZM25.2597 17.2281C25.1784 16.9804 25.0325 16.7589 24.8369 16.5865C24.6413 16.4141 24.4033 16.297 24.1473 16.2474C23.8807 16.2037 23.6088 16.2037 23.3422 16.2474C23.145 16.2858 22.9587 16.3675 22.7967 16.4864C22.6348 16.6053 22.5011 16.7587 22.4055 16.9354C22.2572 17.1983 22.158 17.4859 22.1127 17.7843H25.1426C25.289 17.7843 25.3329 17.7843 25.3183 17.5794C25.3131 17.4604 25.2935 17.3424 25.2597 17.2281ZM25.2597 17.2281C25.1784 16.9804 25.0325 16.7589 24.8369 16.5865C24.6413 16.4141 24.4033 16.297 24.1473 16.2474C23.8807 16.2037 23.6088 16.2037 23.3422 16.2474C23.145 16.2858 22.9587 16.3675 22.7967 16.4864C22.6348 16.6053 22.5011 16.7587 22.4055 16.9354C22.2572 17.1983 22.158 17.4859 22.1127 17.7843H25.1426C25.289 17.7843 25.3329 17.7843 25.3183 17.5794C25.3131 17.4604 25.2935 17.3424 25.2597 17.2281ZM25.1426 2.92746H10.5053C8.56428 2.92746 6.70275 3.69853 5.33023 5.07105C3.95772 6.44356 3.18665 8.30509 3.18665 10.2461V24.8834C3.18665 26.8245 3.95772 28.686 5.33023 30.0585C6.70275 31.431 8.56428 32.2021 10.5053 32.2021H25.1426C27.0837 32.2021 28.9452 31.431 30.3177 30.0585C31.6902 28.686 32.4613 26.8245 32.4613 24.8834V10.2461C32.4613 8.30509 31.6902 6.44356 30.3177 5.07105C28.9452 3.69853 27.0837 2.92746 25.1426 2.92746ZM18.8925 23.4197H16.5212C16.4806 23.4259 16.4391 23.4197 16.402 23.4019C16.3649 23.3842 16.3341 23.3557 16.3134 23.3202C16.2997 23.2968 16.2907 23.2709 16.287 23.2441C16.17 22.8781 16.0382 22.5268 15.9211 22.1609C15.804 21.795 15.6284 21.3266 15.4966 20.9021C15.4966 20.6679 15.3063 20.6386 15.1014 20.6386H11.4128C11.2518 20.6386 11.2518 20.6386 11.1933 20.8143C11.1347 20.9899 11.0469 21.2973 10.9591 21.5461L10.7249 22.3073L10.4175 23.2002C10.4254 23.2388 10.4254 23.2786 10.4175 23.3173C10.4175 23.5075 10.1833 23.4783 10.0369 23.4783H8.1487C7.92914 23.4783 7.85595 23.3758 7.94378 23.1709C8.0316 22.966 8.10479 22.7318 8.17797 22.5268L8.48536 21.59L9.05621 19.9799C9.21722 19.5408 9.3636 19.0871 9.50997 18.6333C9.65634 18.1795 9.78808 17.8575 9.93445 17.4623L10.2418 16.5402L10.7834 15.0764L11.2225 13.7884C11.3689 13.3785 11.5153 12.9687 11.647 12.5442C11.6676 12.3447 11.6676 12.1436 11.647 11.944C11.647 11.6367 11.647 11.6367 11.9544 11.6367H14.6038C14.838 11.6367 14.8233 11.6367 14.8965 11.8562C14.9697 12.0758 15.16 12.5735 15.2771 12.9248C15.3942 13.276 15.4966 13.5395 15.5991 13.8323L15.9504 14.7837L16.3017 15.8083C16.4481 16.2035 16.5944 16.5841 16.7262 16.9793L17.1067 18.0332C17.2238 18.3845 17.3556 18.7358 17.4873 19.1017C17.619 19.4676 17.663 19.6433 17.7654 19.9068C17.8679 20.1702 17.9703 20.4922 18.0874 20.785C18.2045 21.0777 18.2777 21.3412 18.3802 21.6193L18.8047 22.8049L18.9803 23.3173C19.0389 23.3026 18.995 23.4197 18.8925 23.4197ZM27.6749 19.0285C27.6817 19.1602 27.6817 19.292 27.6749 19.4237C27.6749 19.5555 27.4553 19.5994 27.3236 19.5994H22.1566C22.2093 20.0795 22.4201 20.5274 22.7567 20.8728C23.3667 21.2474 24.0589 21.4673 24.7733 21.5132C25.4876 21.5591 26.2023 21.4297 26.8552 21.1363C26.9723 21.1363 27.0308 21.1363 27.0308 21.2534V22.9074C27.0308 23.1709 26.9284 23.2002 26.7088 23.288L26.1819 23.449C26.0145 23.4983 25.8431 23.5326 25.6696 23.5514C25.3036 23.5514 24.9377 23.6539 24.5718 23.6685C24.2058 23.6832 24.0741 23.6685 23.8253 23.6685H23.6789C23.3862 23.6685 23.0788 23.6685 22.8007 23.5661C21.9932 23.4048 21.2563 22.9955 20.6929 22.3951C20.3354 22.0255 20.0566 21.5873 19.8732 21.107C19.7251 20.7564 19.6266 20.387 19.5804 20.0092C19.5594 19.5801 19.5594 19.1502 19.5804 18.7211C19.6024 18.1927 19.7019 17.6702 19.8732 17.1696C20.0171 16.753 20.2192 16.3587 20.4733 15.9986C20.8068 15.4961 21.2594 15.0837 21.7907 14.7983C22.02 14.6656 22.2591 14.5534 22.5079 14.4617C22.7781 14.3974 23.0518 14.3485 23.3276 14.3153C23.5764 14.3007 23.8253 14.3007 24.0741 14.3153C24.441 14.3212 24.8021 14.3699 25.1573 14.4617C25.4793 14.5524 25.7867 14.6793 26.0794 14.8422C26.5302 15.1008 26.9041 15.4746 27.1626 15.9254C27.309 16.1889 27.4261 16.4523 27.5431 16.7158C27.6056 16.9022 27.6544 17.0925 27.6895 17.2867C27.8204 17.8585 27.8353 18.4508 27.7334 19.0285H27.6749ZM24.0887 16.3206C23.8222 16.2769 23.5503 16.2769 23.2837 16.3206C23.0864 16.359 22.9002 16.4406 22.7382 16.5596C22.5762 16.6785 22.4426 16.8319 22.3469 17.0086C22.1986 17.2715 22.0994 17.5591 22.0542 17.8575H25.1426C25.289 17.8575 25.3329 17.8575 25.3183 17.6526C25.3061 17.5224 25.2766 17.3944 25.2305 17.272C25.1583 17.0199 25.0197 16.7917 24.8291 16.6115C24.6386 16.4312 24.4031 16.3055 24.1473 16.2474L24.0887 16.3206ZM25.2012 17.3013C25.1199 17.0536 24.9739 16.8321 24.7784 16.6596C24.5828 16.4872 24.3447 16.3702 24.0887 16.3206C23.8222 16.2769 23.5503 16.2769 23.2837 16.3206C23.0864 16.359 22.9002 16.4406 22.7382 16.5596C22.5762 16.6785 22.4426 16.8319 22.3469 17.0086C22.1986 17.2715 22.0994 17.5591 22.0542 17.8575H25.1426C25.289 17.8575 25.3329 17.8575 25.3183 17.6526C25.3183 17.5082 25.2988 17.3667 25.2597 17.2281L25.2012 17.3013ZM25.2012 17.3013C25.1199 17.0536 24.9739 16.8321 24.7784 16.6596C24.5828 16.4872 24.3447 16.3702 24.0887 16.3206C23.8222 16.2769 23.5503 16.2769 23.2837 16.3206C23.0864 16.359 22.9002 16.4406 22.7382 16.5596C22.5762 16.6785 22.4426 16.8319 22.3469 17.0086C22.1986 17.2715 22.0994 17.5591 22.0542 17.8575H25.1426C25.289 17.8575 25.3329 17.8575 25.3183 17.6526C25.3183 17.5082 25.2988 17.3667 25.2597 17.2281L25.2012 17.3013ZM25.2012 17.3013C25.1199 17.0536 24.9739 16.8321 24.7784 16.6596C24.5828 16.4872 24.3447 16.3702 24.0887 16.3206C23.8222 16.2769 23.5503 16.2769 23.2837 16.3206C23.0864 16.359 22.9002 16.4406 22.7382 16.5596C22.5762 16.6785 22.4426 16.8319 22.3469 17.0086C22.1986 17.2715 22.0994 17.5591 22.0542 17.8575H25.1426C25.289 17.8575 25.3329 17.8575 25.3183 17.6526C25.3183 17.5082 25.2988 17.3667 25.2597 17.2281L25.2012 17.3013ZM25.2012 17.3013C25.1199 17.0536 24.9739 16.8321 24.7784 16.6596C24.5828 16.4872 24.3447 16.3702 24.0887 16.3206C23.8222 16.2769 23.5503 16.2769 23.2837 16.3206C23.0864 16.359 22.9002 16.4406 22.7382 16.5596C22.5762 16.6785 22.4426 16.8319 22.3469 17.0086C22.1986 17.2715 22.0994 17.5591 22.0542 17.8575H25.1426C25.289 17.8575 25.3329 17.8575 25.3183 17.6526C25.3183 17.5082 25.2988 17.3667 25.2597 17.2281L25.2012 17.3013Z" fill="white"/>
</svg>
