<svg width="36" height="36" viewBox="0 0 36 36" fill="none" xmlns="http://www.w3.org/2000/svg">
<path d="M15.7558 14.0058C16.2681 15.6744 16.795 17.3431 17.322 19.041H14.2188C14.7458 17.3431 15.2435 15.6744 15.7558 14.0058Z" fill="white"/>
<path d="M25.4018 3.05704H10.7644C8.8234 3.05704 6.96187 3.82811 5.58936 5.20062C4.21684 6.57314 3.44577 8.43467 3.44577 10.3757V25.013C3.44577 26.9541 4.21684 28.8156 5.58936 30.1881C6.96187 31.5606 8.8234 32.3317 10.7644 32.3317H25.4018C27.3428 32.3317 29.2043 31.5606 30.5768 30.1881C31.9493 28.8156 32.7204 26.9541 32.7204 25.013V10.3757C32.7204 8.43467 31.9493 6.57314 30.5768 5.20062C29.2043 3.82811 27.3428 3.05704 25.4018 3.05704ZM21.7278 24.691H19.4444C19.3533 24.7036 19.2609 24.6801 19.187 24.6253C19.1131 24.5706 19.0636 24.4891 19.0492 24.3983C18.771 23.5786 18.4783 22.7589 18.2002 21.9245C18.1914 21.8722 18.1722 21.8222 18.1437 21.7775C18.1152 21.7328 18.078 21.6942 18.0343 21.6642C17.9906 21.6341 17.9413 21.6132 17.8893 21.6026C17.8373 21.592 17.7838 21.592 17.7318 21.6025H13.8383C13.7842 21.5898 13.728 21.5886 13.6735 21.599C13.6189 21.6094 13.5671 21.6312 13.5215 21.6629C13.476 21.6947 13.4376 21.7357 13.4089 21.7833C13.3803 21.8309 13.362 21.884 13.3552 21.9392C13.1064 22.7589 12.8283 23.5493 12.5795 24.369C12.5725 24.4207 12.555 24.4704 12.528 24.5151C12.501 24.5597 12.4651 24.5984 12.4225 24.6286C12.38 24.6588 12.3317 24.6799 12.2806 24.6906C12.2295 24.7014 12.1768 24.7015 12.1257 24.691H10.1204C9.76909 24.691 9.73982 24.691 9.85692 24.3251L13.0186 15.206C13.3113 14.3717 13.6041 13.5374 13.8675 12.703C13.9399 12.4556 13.9793 12.1997 13.9846 11.9419C13.9846 11.6345 14.1017 11.5613 14.3799 11.576H17.1756C17.3805 11.576 17.483 11.576 17.5561 11.8541L21.1569 21.9977C21.435 22.7881 21.7131 23.5639 21.9766 24.3397C22.0937 24.6617 22.0791 24.691 21.7278 24.691ZM26.2068 24.4422C26.2068 24.691 26.1043 24.7642 25.8701 24.7642H23.7624C23.4696 24.7642 23.3964 24.6471 23.3964 24.3836V15.1914C23.3964 14.8986 23.4843 14.7815 23.7916 14.7962H25.8555C26.0897 14.7962 26.2068 14.7962 26.2068 15.1182C26.197 18.2213 26.197 21.3293 26.2068 24.4422ZM24.7431 13.7569C24.5333 13.7702 24.3232 13.7382 24.1269 13.6631C23.9307 13.5879 23.7529 13.4714 23.6057 13.3214C23.4585 13.1714 23.3453 12.9915 23.2738 12.7939C23.2024 12.5962 23.1743 12.3855 23.1915 12.1761C23.1934 11.9679 23.2367 11.7622 23.319 11.5709C23.4014 11.3797 23.521 11.2068 23.6709 11.0623C23.8208 10.9179 23.998 10.8047 24.1922 10.7296C24.3863 10.6544 24.5935 10.6187 24.8016 10.6245C25.0041 10.6239 25.2045 10.6653 25.3902 10.746C25.5759 10.8268 25.7428 10.9452 25.8803 11.0938C26.0179 11.2424 26.1232 11.4179 26.1894 11.6092C26.2557 11.8005 26.2816 12.0035 26.2654 12.2054C26.2773 12.4048 26.2484 12.6047 26.1802 12.7925C26.112 12.9804 26.0061 13.1523 25.869 13.2976C25.7318 13.443 25.5664 13.5587 25.3828 13.6377C25.1993 13.7167 25.0015 13.7573 24.8016 13.7569H24.7431Z" fill="white"/>
<path d="M17.322 19.041H14.2188C14.7458 17.3431 15.2435 15.6744 15.6826 14.0058C16.2681 15.6744 16.795 17.3431 17.322 19.041Z" fill="white"/>
</svg>
