<svg width="36" height="36" viewBox="0 0 36 36" fill="none" xmlns="http://www.w3.org/2000/svg">
<g clip-path="url(#clip0_1486_29)">
<path d="M18.3113 19.3418C18.3786 18.1708 18.9524 17.1374 19.819 16.4055C20.7279 15.6499 21.8748 15.2403 23.0567 15.2492C24.3009 15.2492 25.4441 15.6883 26.293 16.4055C27.1596 17.1374 27.7319 18.1708 27.7978 19.3403C27.8636 20.545 27.3806 21.6618 26.5316 22.4917C25.5956 23.3833 24.3494 23.8757 23.0567 23.8647C21.7631 23.8765 20.5157 23.384 19.5789 22.4917C18.7299 21.6618 18.2454 20.545 18.3113 19.3418ZM10.7585 21.7086C10.7672 22.1682 10.9136 23.0582 11.1332 23.7549C11.6084 25.2533 12.404 26.6304 13.4649 27.7904C14.603 29.0435 15.9932 30.0416 17.5443 30.7194C19.2319 31.4631 21.0574 31.8422 22.9016 31.8318C24.7453 31.8339 26.5689 31.4489 28.2544 30.7018C29.8035 30.016 31.1921 29.0139 32.3309 27.7597C33.3922 26.5974 34.1874 25.2178 34.6612 23.7169C35.1162 22.2629 35.2412 20.7257 35.0271 19.2173C34.8226 17.772 34.3159 16.3861 33.54 15.1496C32.8211 13.9998 31.9032 12.9871 30.8292 12.1592H30.8321L19.857 3.73252L19.8277 3.71057C19.1076 3.15727 17.8971 3.1602 17.1052 3.71349C16.3045 4.27264 16.2138 5.19918 16.9252 5.78467L16.9237 5.78614L21.4993 9.50841L7.54995 9.52305H7.53093C6.3775 9.52451 5.26946 10.2813 5.0499 11.2385C4.82448 12.2119 5.60612 13.0199 6.80638 13.0243V13.0272L13.8762 13.0126L1.25883 22.6981L1.20906 22.7347C0.0190499 23.6451 -0.364448 25.1616 0.384983 26.1203C1.14612 27.0966 2.76355 27.0981 3.96674 26.1262L10.8521 20.4923C10.8521 20.4923 10.7497 21.2534 10.7585 21.7086ZM28.455 24.257C27.0352 25.7031 25.0503 26.5228 22.9001 26.5258C20.7484 26.5316 18.7621 25.7178 17.3423 24.2745C16.6715 23.6018 16.1542 22.7919 15.8259 21.9004C15.5244 21.0618 15.4053 20.1686 15.4765 19.2804C15.5477 18.3922 15.8075 17.5293 16.2387 16.7495C16.6674 15.9786 17.2403 15.2973 17.9264 14.7427C19.3052 13.6186 21.0602 13.0111 22.8972 13.0082C24.7356 13.0053 26.4907 13.6083 27.871 14.7281C28.5735 15.3004 29.1444 15.9781 29.5572 16.729C29.9836 17.4988 30.2439 18.3495 30.3212 19.2261C30.4005 20.1247 30.2811 21.0297 29.9714 21.8769C29.6442 22.7704 29.1259 23.5824 28.455 24.257Z" fill="white"/>
</g>
<defs>
<clipPath id="clip0_1486_29">
<rect width="35.1296" height="35.1296" fill="white"/>
</clipPath>
</defs>
</svg>
