<svg width="221" height="65" viewBox="0 0 221 65" fill="none" xmlns="http://www.w3.org/2000/svg">
<g clip-path="url(#clip0_38_15)">
<path d="M6.30906 49.5037V17.049H27.651V22.3962H12.3536V30.4401H25.9306V35.7407H12.3536V44.1566H27.651V49.5037H6.30906ZM41.5008 50.0616C39.4859 50.0616 37.7656 49.5657 36.3397 48.5737C34.9138 47.5818 33.8289 46.1404 33.0849 44.2495C32.341 42.3277 31.969 40.0339 31.969 37.3681C31.969 34.6713 32.341 32.3774 33.0849 30.4866C33.8289 28.5957 34.9138 27.1543 36.3397 26.1624C37.7656 25.1705 39.4859 24.6745 41.5008 24.6745C43.1127 24.6745 44.5231 25.093 45.732 25.9299C46.9409 26.7358 47.7623 27.8518 48.1963 29.2776H48.4288V15.0962H54.2409V49.5037H48.4288V45.4585H48.1963C47.7313 46.8534 46.8944 47.9693 45.6855 48.8062C44.5076 49.6432 43.1127 50.0616 41.5008 50.0616ZM43.3607 45.226C44.3216 45.226 45.174 45.071 45.918 44.761C46.6929 44.451 47.2974 44.0016 47.7313 43.4126C48.1963 42.7927 48.4288 42.0642 48.4288 41.2273V33.4158C48.4288 32.6409 48.1963 31.959 47.7313 31.37C47.2974 30.781 46.6929 30.3316 45.918 30.0216C45.174 29.6806 44.3216 29.5101 43.3607 29.5101C41.8108 29.5101 40.5399 30.0371 39.5479 31.091C38.587 32.1449 38.1065 33.5398 38.1065 35.2757V39.4604C38.1065 41.1963 38.587 42.5912 39.5479 43.6451C40.5399 44.699 41.8108 45.226 43.3607 45.226ZM68.6377 50.0616C66.1889 50.0616 64.2825 49.2402 62.9186 47.5973C61.5547 45.9544 60.8728 43.6141 60.8728 40.5763V25.2324H66.6849V39.9719C66.6849 41.6767 67.0258 42.9786 67.7078 43.8776C68.3897 44.7765 69.4437 45.226 70.8696 45.226C71.6755 45.226 72.4349 45.0865 73.1479 44.8075C73.8918 44.5285 74.4963 44.0946 74.9613 43.5056C75.4262 42.9166 75.6587 42.1882 75.6587 41.3203V25.2324H81.5173V49.5037H75.6587V45.4585H75.4727C75.0388 46.6674 74.2948 47.7368 73.2409 48.6667C72.187 49.5967 70.6526 50.0616 68.6377 50.0616ZM97.9742 50.0616C94.4094 50.0616 91.6506 48.9147 89.6978 46.6209C87.7759 44.327 86.815 41.2428 86.815 37.3681C86.815 33.4623 87.7759 30.3781 89.6978 28.1152C91.6506 25.8214 94.4094 24.6745 97.9742 24.6745C100.423 24.6745 102.438 25.2324 104.019 26.3484C105.6 27.4333 106.747 28.9212 107.459 30.812L102.717 32.9509C102.407 31.897 101.849 31.0445 101.043 30.3936C100.268 29.7426 99.2451 29.4171 97.9742 29.4171C96.3003 29.4171 95.0294 29.9441 94.1614 30.998C93.3245 32.0519 92.906 33.4468 92.906 35.1827V39.5999C92.906 41.3048 93.3245 42.6842 94.1614 43.7381C95.0294 44.792 96.3003 45.319 97.9742 45.319C99.3691 45.319 100.469 44.9625 101.275 44.2495C102.081 43.5366 102.717 42.6222 103.182 41.5063L107.645 43.6916C106.84 45.7994 105.615 47.3958 103.972 48.4807C102.329 49.5347 100.33 50.0616 97.9742 50.0616ZM118.234 50.0616C115.754 50.0616 113.832 49.4107 112.468 48.1088C111.135 46.7759 110.469 45.04 110.469 42.9011C110.469 41.2273 110.872 39.8479 111.678 38.763C112.515 37.678 113.708 36.8566 115.258 36.2986C116.808 35.7407 118.683 35.4617 120.884 35.4617H125.022V33.6483C125.022 32.3154 124.65 31.2615 123.906 30.4866C123.193 29.7116 122.031 29.3241 120.419 29.3241C119.055 29.3241 117.939 29.6341 117.071 30.2541C116.203 30.874 115.475 31.6025 114.886 32.4394L111.445 29.3241C112.313 27.9292 113.491 26.8133 114.979 25.9764C116.467 25.1085 118.42 24.6745 120.837 24.6745C124.092 24.6745 126.572 25.4339 128.277 26.9528C129.982 28.4407 130.834 30.5641 130.834 33.3229V44.854H133.298V49.5037H130.044C128.835 49.5037 127.858 49.1782 127.114 48.5272C126.401 47.8453 125.921 46.9464 125.673 45.8304L125.58 45.3655H125.301C124.898 46.8844 124.061 48.0468 122.79 48.8527C121.55 49.6587 120.031 50.0616 118.234 50.0616ZM120.14 45.8304C121.07 45.8304 121.891 45.6909 122.604 45.412C123.348 45.133 123.937 44.73 124.371 44.2031C124.805 43.6761 125.022 43.0251 125.022 42.2502V38.9954H121.163C119.551 38.9954 118.358 39.2589 117.583 39.7859C116.808 40.3128 116.42 41.0723 116.42 42.0642V42.8547C116.42 43.8156 116.746 44.5595 117.397 45.0865C118.048 45.5825 118.962 45.8304 120.14 45.8304ZM145.375 49.5037C143.391 49.5037 141.873 48.9767 140.819 47.9228C139.765 46.8689 139.238 45.381 139.238 43.4591V29.8821H135.611V25.2324H137.517C138.385 25.2324 138.974 25.031 139.284 24.628C139.625 24.225 139.796 23.6051 139.796 22.7681V18.6299H145.05V25.2324H150.025V29.8821H145.05V44.854H149.653V49.5037H145.375ZM155.189 49.5037V25.2324H161.048V49.5037H155.189ZM158.119 21.6057C156.941 21.6057 156.073 21.3267 155.515 20.7688C154.957 20.2108 154.678 19.5134 154.678 18.6764V17.793C154.678 16.9251 154.957 16.2121 155.515 15.6542C156.073 15.0962 156.941 14.8172 158.119 14.8172C159.327 14.8172 160.195 15.0962 160.722 15.6542C161.28 16.2121 161.559 16.9251 161.559 17.793V18.6764C161.559 19.5134 161.28 20.2108 160.722 20.7688C160.195 21.3267 159.327 21.6057 158.119 21.6057ZM177.573 50.0616C175.28 50.0616 173.296 49.5502 171.622 48.5272C169.948 47.4733 168.646 46.0009 167.716 44.1101C166.817 42.1882 166.368 39.9409 166.368 37.3681C166.368 34.7642 166.817 32.5169 167.716 30.6261C168.646 28.7352 169.948 27.2783 171.622 26.2554C173.296 25.2014 175.28 24.6745 177.573 24.6745C179.898 24.6745 181.898 25.2014 183.571 26.2554C185.245 27.2783 186.532 28.7352 187.431 30.6261C188.361 32.5169 188.826 34.7642 188.826 37.3681C188.826 39.9409 188.361 42.1882 187.431 44.1101C186.532 46.0009 185.245 47.4733 183.571 48.5272C181.898 49.5502 179.898 50.0616 177.573 50.0616ZM177.573 45.319C179.154 45.319 180.41 44.8385 181.34 43.8776C182.27 42.8856 182.735 41.4598 182.735 39.5999V35.1362C182.735 33.2454 182.27 31.8195 181.34 30.8585C180.41 29.8976 179.154 29.4171 177.573 29.4171C176.024 29.4171 174.784 29.8976 173.854 30.8585C172.924 31.8195 172.459 33.2454 172.459 35.1362V39.5999C172.459 41.4598 172.924 42.8856 173.854 43.8776C174.784 44.8385 176.024 45.319 177.573 45.319ZM194.148 49.5037V25.2324H200.007V29.2776H200.239C200.735 27.9757 201.51 26.8908 202.564 26.0229C203.649 25.124 205.137 24.6745 207.028 24.6745C209.508 24.6745 211.414 25.5114 212.747 27.1853C214.111 28.8282 214.793 31.153 214.793 34.1598V49.5037H208.981V34.7642C208.981 33.0284 208.655 31.7265 208.004 30.8585C207.384 29.9596 206.346 29.5101 204.889 29.5101C204.052 29.5101 203.262 29.6496 202.518 29.9286C201.774 30.2076 201.169 30.6415 200.704 31.2305C200.239 31.8195 200.007 32.5479 200.007 33.4158V49.5037H194.148Z" fill="white"/>
<path d="M89.0416 59.1453C87.2895 59.1453 85.6552 58.923 84.1385 58.4785C82.6479 58.0339 81.4319 57.354 80.4905 56.4388C79.5753 55.5236 79.1177 54.373 79.1177 52.987C79.1177 51.9149 79.4576 50.8427 80.1375 49.7706C82.5433 45.9527 86.6489 43.1154 92.4542 41.2587C91.5912 40.2651 91.1597 39.1406 91.1597 37.8854C91.1597 36.8656 91.4343 35.9895 91.9835 35.2573C93.0556 33.7929 94.6769 32.577 96.8473 31.6094C98.0764 31.0864 99.3185 30.6811 100.574 30.3934C101.855 30.1058 103.149 29.962 104.457 29.962C106.078 29.962 107.307 30.2235 108.144 30.7465C109.007 31.2695 109.439 32.0017 109.439 32.9431C109.439 33.5968 109.255 34.1983 108.889 34.7474C108.549 35.2704 108.118 35.7019 107.595 36.0418C107.072 36.3556 106.536 36.5125 105.987 36.5125C105.176 36.5125 104.771 36.3164 104.771 35.9242C104.771 35.6888 104.941 35.5711 105.281 35.5711C105.385 35.5711 105.516 35.5973 105.673 35.6496C105.856 35.6757 105.987 35.6888 106.065 35.6888C106.614 35.6888 107.098 35.4012 107.517 34.8259C107.935 34.2506 108.144 33.6753 108.144 33.1C108.144 32.2632 107.739 31.6617 106.928 31.2956C106.144 30.9295 105.255 30.7465 104.261 30.7465C101.777 30.7465 99.3447 31.544 96.965 33.1392C94.4546 34.7866 93.1994 36.6433 93.1994 38.7091C93.1994 39.4675 93.4609 40.1735 93.9839 40.8273C94.8992 40.5396 95.749 40.3435 96.5335 40.2389C97.3442 40.1082 98.1156 40.0428 98.8478 40.0428C101.358 40.0428 102.613 40.5266 102.613 41.4941C102.613 41.9386 102.43 42.3309 102.064 42.6708C101.698 42.9846 101.227 43.2331 100.652 43.4161C100.103 43.573 99.5408 43.6515 98.9655 43.6515C98.364 43.6515 97.6972 43.573 96.965 43.4161C96.2328 43.2592 95.5268 43.05 94.8469 42.7885C94.167 42.527 93.5917 42.2263 93.121 41.8863C90.6629 42.5924 88.4794 43.6907 86.5704 45.1812C84.6876 46.6456 83.2886 48.2931 82.3733 50.1236C81.8765 51.1173 81.6281 52.0848 81.6281 53.0262C81.6281 54.1768 81.9549 55.1182 82.6087 55.8504C83.2624 56.5826 84.1254 57.1187 85.1975 57.4586C86.2958 57.7986 87.4987 57.9686 88.8062 57.9686C90.9767 57.9686 93.1341 57.6155 95.2783 56.9095C97.4226 56.2296 99.2531 55.2098 100.77 53.85C102.836 52.0195 103.869 50.0974 103.869 48.0839C103.869 46.4887 103.097 45.6912 101.554 45.6912C100.744 45.6912 99.8415 45.9004 98.8478 46.3188C97.8541 46.711 96.9127 47.2471 96.0236 47.927C95.1607 48.6069 94.4415 49.3522 93.8662 50.1628C93.291 50.9735 93.0033 51.7972 93.0033 52.634C93.0033 53.4708 93.3694 53.9807 94.1016 54.1638C94.3631 54.2684 94.4938 54.3991 94.4938 54.556C94.4938 54.7652 94.2977 54.8698 93.9055 54.8698C92.5195 54.8698 91.8266 54.0984 91.8266 52.5555C91.8266 51.5357 92.1273 50.5681 92.7287 49.6529C93.3302 48.7376 94.1016 47.927 95.043 47.2209C96.0105 46.5149 97.0565 45.9657 98.181 45.5735C99.3054 45.1551 100.391 44.9459 101.437 44.9459C102.666 44.9459 103.62 45.2205 104.3 45.7696C104.98 46.2926 105.32 47.1556 105.32 48.3585C105.32 50.7904 103.973 53.0785 101.28 55.2228C99.58 56.6088 97.6972 57.6025 95.6314 58.2039C93.5655 58.8315 91.3689 59.1453 89.0416 59.1453ZM98.6125 42.7885C100.025 42.7885 100.731 42.3832 100.731 41.5725C100.731 41.2064 100.025 41.0234 98.6125 41.0234C97.9849 41.0234 97.3311 41.0626 96.6512 41.1411C95.9975 41.2195 95.3306 41.3241 94.6507 41.4549C95.7752 42.344 97.0958 42.7885 98.6125 42.7885ZM108.748 56.2034C107.964 56.2034 107.297 55.9942 106.748 55.5758C106.199 55.1313 105.885 54.5952 105.807 53.9676C105.702 53.1308 105.82 52.294 106.16 51.4572C106.526 50.5943 107.009 49.7706 107.611 48.9861C108.239 48.2016 108.905 47.4694 109.611 46.7895C112.383 44.0176 114.881 42.6316 117.103 42.6316C117.862 42.6316 118.372 42.8277 118.633 43.22C118.738 43.3507 118.855 43.6515 118.986 44.1222C121.915 39.3629 123.955 36.9832 125.105 36.9832C125.367 36.9832 125.641 37.0486 125.929 37.1794C126.217 37.3101 126.36 37.4801 126.36 37.6893C126.36 37.82 126.295 37.99 126.164 38.1992C125.38 39.1668 124.595 40.1343 123.811 41.1018C123.026 42.0432 122.255 42.9977 121.497 43.9653C120.215 45.5866 119.182 46.9987 118.398 48.2016C117.613 49.4045 117.051 50.4243 116.711 51.2611C116.606 51.5226 116.502 51.8495 116.397 52.2417C116.319 52.6078 116.28 52.987 116.28 53.3793C116.28 53.8761 116.384 54.3076 116.593 54.6737C116.803 55.0398 117.182 55.2228 117.731 55.2228C118.594 55.2228 119.653 54.8044 120.908 53.9676C122.163 53.1308 123.628 51.758 125.301 49.849C125.406 49.7444 125.497 49.6529 125.576 49.5744C125.681 49.496 125.785 49.4437 125.89 49.4175C126.125 49.3652 126.243 49.4175 126.243 49.5744C126.243 49.6529 126.164 49.7967 126.007 50.0059C125.197 50.9735 124.295 51.9279 123.301 52.8693C122.307 53.8107 121.287 54.5952 120.241 55.2228C119.221 55.8243 118.267 56.125 117.378 56.125C116.489 56.125 115.861 55.8243 115.495 55.2228C115.129 54.6214 114.946 53.9415 114.946 53.1831C114.946 52.3986 115.09 51.6795 115.377 51.0258L112.2 54.203C111.494 54.909 110.84 55.419 110.239 55.7327C109.664 56.0465 109.167 56.2034 108.748 56.2034ZM108.395 55.3405C109.52 55.3405 111.39 53.7977 114.005 50.712C114.135 50.5551 114.593 49.9798 115.377 48.9861C116.162 47.9662 117.273 46.4887 118.712 44.5536C118.529 44.2398 118.215 44.0829 117.77 44.0829C116.149 44.0829 113.978 45.3643 111.259 47.927C108.696 50.3066 107.415 52.3071 107.415 53.9284C107.415 54.8698 107.742 55.3405 108.395 55.3405ZM126.274 56.4388C125.097 56.4388 124.509 55.6935 124.509 54.203C124.509 53.6277 124.679 52.9478 125.019 52.1633C125.385 51.3526 125.895 50.5028 126.549 49.6137C126.549 49.6137 126.313 49.8359 125.843 50.2805C125.372 50.725 124.836 51.2873 124.234 51.9672C124.13 52.0718 123.999 52.1241 123.842 52.1241C123.737 52.1241 123.685 52.0587 123.685 51.9279C123.685 51.7972 123.803 51.5749 124.038 51.2611L129.451 44.9067C130.131 44.1222 130.876 43.7299 131.687 43.7299C132.288 43.7299 132.589 43.9653 132.589 44.436C132.589 44.619 132.511 44.789 132.354 44.9459C131.857 45.4166 131.242 46.0834 130.51 46.9464C129.804 47.8093 129.111 48.7376 128.431 49.7313C127.751 50.725 127.176 51.6795 126.705 52.5948C126.261 53.4839 126.039 54.203 126.039 54.7521C126.039 55.2228 126.196 55.4582 126.509 55.4582C126.692 55.4582 126.98 55.3928 127.372 55.2621C127.765 55.1052 128.288 54.8044 128.941 54.3599C129.595 53.8892 130.38 53.1701 131.295 52.2025C131.452 52.0456 131.87 51.5749 132.55 50.7904C133.23 50.0059 134.145 48.8815 135.296 47.4171C137.335 44.8805 138.669 43.6122 139.297 43.6122C140.16 43.6122 140.63 43.9653 140.709 44.6713C140.761 44.9067 140.212 45.6781 139.061 46.9856C137.571 48.7899 136.551 50.0844 136.002 50.8689C134.982 52.3594 134.472 53.5231 134.472 54.3599C134.472 54.9352 134.668 55.2228 135.06 55.2228C135.453 55.2228 135.949 55.0398 136.551 54.6737C137.179 54.2814 137.832 53.7977 138.512 53.2224C139.192 52.6209 139.846 52.0064 140.473 51.3788C141.127 50.725 141.689 50.1236 142.16 49.5744C142.317 49.3914 142.474 49.2999 142.631 49.2999C142.788 49.2999 142.866 49.3783 142.866 49.5352C142.866 49.5875 142.853 49.666 142.827 49.7706C142.801 49.8752 142.722 49.9928 142.592 50.1236C142.173 50.5943 141.637 51.1827 140.983 51.8887C140.33 52.5686 139.624 53.2485 138.865 53.9284C138.107 54.6083 137.375 55.1705 136.669 55.6151C135.963 56.0596 135.361 56.2819 134.864 56.2819C134.263 56.2819 133.74 56.125 133.295 55.8112C132.851 55.4713 132.628 55.0136 132.628 54.4383C132.628 53.863 132.72 53.2877 132.903 52.7124C133.086 52.111 133.23 51.6011 133.334 51.1827C132.105 52.6209 131.02 53.7192 130.079 54.4776C129.164 55.2359 128.392 55.7458 127.765 56.0073C127.137 56.295 126.64 56.4388 126.274 56.4388ZM144.074 56.5172C143.238 56.5172 142.479 56.2557 141.799 55.7327C141.12 55.1836 140.78 54.4645 140.78 53.5754C140.78 51.7187 141.917 49.6006 144.192 47.2209C146.519 44.8151 148.598 43.6122 150.429 43.6122C151.057 43.6122 151.553 43.7822 151.919 44.1222C152.286 44.436 152.469 44.8282 152.469 45.2989C152.469 45.9527 152.312 46.5541 151.998 47.1033C151.632 47.7832 151.109 48.1231 150.429 48.1231C149.749 48.1231 149.409 47.9139 149.409 47.4955C149.409 47.2079 149.579 46.7764 149.919 46.2011C150.285 45.5996 150.468 45.2858 150.468 45.2597C150.468 45.2074 150.429 45.1812 150.35 45.1812C149.618 45.2597 148.598 45.7958 147.291 46.7895C146.716 47.234 146.206 47.6524 145.761 48.0447C145.343 48.4369 145.003 48.8161 144.741 49.1822L143.212 51.418C143.055 51.6534 142.885 52.0587 142.702 52.634C142.545 53.2093 142.466 53.6408 142.466 53.9284C142.466 54.4514 142.636 54.8829 142.976 55.2228C143.342 55.5628 143.8 55.7327 144.349 55.7327C145.657 55.7327 147.382 54.8829 149.527 53.1831C151.253 51.8233 152.639 50.4505 153.685 49.0645C153.815 48.9076 153.972 48.8292 154.155 48.8292C154.338 48.8292 154.43 48.8815 154.43 48.9861C154.43 49.0645 154.364 49.1953 154.234 49.3783C152.795 51.2873 151.109 52.9347 149.174 54.3207C147.108 55.785 145.408 56.5172 144.074 56.5172ZM154.83 56.2034C154.202 56.2034 153.575 55.9812 152.947 55.5366C152.32 55.0921 151.967 54.5691 151.888 53.9676C151.627 51.9541 152.895 49.5614 155.693 46.7895C158.465 44.0176 160.962 42.6316 163.185 42.6316C163.786 42.6316 164.257 42.7754 164.597 43.0631C164.78 43.2461 164.911 43.4946 164.989 43.8084C165.094 44.1222 165.172 44.2791 165.225 44.2791C165.329 44.2791 165.421 44.266 165.499 44.2398C165.578 44.1875 165.669 44.1614 165.774 44.1614C166.088 44.1614 166.362 44.2791 166.598 44.5144C166.833 44.7498 166.964 44.959 166.99 45.142C167.016 45.1943 166.179 46.4887 164.479 49.0253C162.78 51.5095 162.008 53.1962 162.165 54.0853C162.296 54.6868 162.584 54.9875 163.028 54.9875C164.388 54.9875 166.872 52.7386 170.481 48.2408C170.559 48.1362 170.638 48.0839 170.716 48.0839C170.847 48.0839 170.912 48.1754 170.912 48.3585C170.912 48.5677 170.795 48.8292 170.559 49.143C167.238 53.6146 164.689 55.8504 162.91 55.8504C162.675 55.8504 162.453 55.8112 162.244 55.7327C161.093 55.2882 160.518 54.4253 160.518 53.1439C160.518 52.6994 160.57 52.2548 160.675 51.8103L158.243 54.1638C157.51 54.896 156.844 55.419 156.242 55.7327C155.667 56.0465 155.196 56.2034 154.83 56.2034ZM154.477 55.3405C155.994 55.3405 158.06 53.68 160.675 50.3589L164.832 44.6321C164.623 44.266 164.283 44.0829 163.813 44.0829C162.217 44.0829 160.06 45.3643 157.34 47.927C154.516 50.542 153.248 52.6994 153.536 54.3991C153.666 55.0267 153.98 55.3405 154.477 55.3405ZM170.799 56.2427C169.962 56.2427 169.295 56.0465 168.798 55.6543C168.328 55.2359 168.092 54.5037 168.092 53.4577C168.092 52.8563 168.275 52.0979 168.642 51.1827C169.008 50.2413 169.465 49.2345 170.014 48.1623C170.564 47.0902 171.113 46.0311 171.662 44.9851C171.322 45.0636 171.021 45.1028 170.76 45.1028C169.975 45.1028 169.583 44.8021 169.583 44.2006C169.583 43.913 169.688 43.6907 169.897 43.5338C170.132 43.3769 170.341 43.2854 170.524 43.2592C170.524 43.2592 170.55 43.2592 170.603 43.2592C170.681 43.2592 170.773 43.2461 170.877 43.22H173.152C173.623 42.6185 174.107 41.9779 174.604 41.298C175.31 40.4089 175.872 39.8859 176.29 39.729H176.408C176.591 39.729 176.853 39.8205 177.193 40.0036C177.611 40.2389 177.82 40.4743 177.82 40.7096C177.82 41.0496 177.193 41.9256 175.937 43.3377C176.173 43.3638 176.513 43.3769 176.957 43.3769C177.402 43.3769 177.951 43.3769 178.605 43.3769C178.918 43.3769 179.363 43.3769 179.938 43.3769C180.54 43.3769 181.154 43.3769 181.782 43.3769C182.436 43.3507 182.998 43.3377 183.469 43.3377C183.939 43.3115 184.201 43.2984 184.253 43.2984C184.331 43.3246 184.371 43.3638 184.371 43.4161C184.371 43.6515 182.828 43.9653 179.742 44.3575C177.99 44.5929 176.643 44.7759 175.702 44.9067C174.787 45.0374 174.29 45.1159 174.211 45.142C173.845 45.4558 173.401 45.9919 172.878 46.7502C172.355 47.5086 171.832 48.3585 171.309 49.2999C170.786 50.2413 170.341 51.1434 169.975 52.0064C169.635 52.8432 169.465 53.4969 169.465 53.9676C169.465 54.386 169.622 54.7391 169.936 55.0267C170.25 55.2882 170.76 55.419 171.466 55.419C171.936 55.419 172.499 55.3144 173.152 55.1052C173.806 54.896 174.421 54.6606 174.996 54.3991C175.597 54.1115 176.029 53.8892 176.29 53.7323C176.97 53.3139 177.716 52.7647 178.526 52.0848C179.363 51.3788 180.187 50.5812 180.997 49.6921C181.363 49.326 181.612 49.143 181.743 49.143C181.821 49.143 181.86 49.1953 181.86 49.2999C181.86 49.5091 181.664 49.849 181.272 50.3197C180.644 51.0781 179.938 51.8103 179.154 52.5163C178.395 53.1962 177.546 53.8238 176.604 54.3991C175.532 55.0529 174.499 55.5236 173.505 55.8112C172.538 56.0988 171.636 56.2427 170.799 56.2427ZM188.681 42.5139C188.236 42.5139 187.844 42.3701 187.504 42.0825C187.19 41.7948 187.033 41.4679 187.033 41.1018C187.033 40.3697 187.53 40.0036 188.524 40.0036C188.89 40.0036 189.256 40.1343 189.622 40.3958C189.988 40.6312 190.171 40.9319 190.171 41.298C190.171 41.6118 190.001 41.8994 189.661 42.1609C189.321 42.3963 188.994 42.5139 188.681 42.5139ZM181.424 56.4388C180.849 56.4388 180.378 56.2557 180.012 55.8896C179.62 55.4974 179.423 54.8175 179.423 53.85C179.423 53.3008 179.554 52.6732 179.816 51.9672C180.051 51.235 180.352 50.5028 180.718 49.7706C181.11 49.0384 181.489 48.3846 181.855 47.8093C183.32 45.4297 184.523 44.2268 185.464 44.2006C185.699 44.2006 185.987 44.3052 186.327 44.5144C186.667 44.6975 186.837 44.9067 186.837 45.142C186.837 45.142 185.843 46.4234 183.856 48.9861C181.895 51.5226 180.914 53.327 180.914 54.3991C180.914 55.2359 181.241 55.6543 181.895 55.6543C182.313 55.6543 182.849 55.4843 183.503 55.1444C184.183 54.7783 184.889 54.3207 185.621 53.7715C186.353 53.2224 187.046 52.634 187.7 52.0064C188.38 51.3788 188.929 50.8035 189.347 50.2805C189.609 49.9405 189.831 49.7052 190.014 49.5744C190.223 49.4437 190.354 49.3783 190.406 49.3783C190.511 49.3783 190.563 49.4568 190.563 49.6137C190.563 49.7444 190.406 50.0059 190.093 50.3982C189.805 50.7904 189.4 51.248 188.877 51.771C188.249 52.3986 187.556 53.0785 186.798 53.8107C186.039 54.5429 185.216 55.1705 184.327 55.6935C183.438 56.1904 182.47 56.4388 181.424 56.4388ZM190.547 56.0858C189.893 56.0858 189.383 55.785 189.017 55.1836C188.651 54.556 188.468 53.9546 188.468 53.3793C188.468 51.8103 189.606 49.6137 191.881 46.7895C194.182 43.9391 196.039 42.5139 197.451 42.5139C198.784 42.5139 199.451 43.22 199.451 44.6321C199.451 44.8413 199.425 45.0636 199.373 45.2989C199.347 45.5343 199.307 45.7827 199.255 46.0442C199.307 46.1226 199.438 46.1619 199.647 46.1619C200.353 46.1619 201.19 45.9134 202.158 45.4166C202.132 45.8611 201.099 46.5018 199.059 47.3386C199.347 48.2016 198.484 49.849 196.47 52.281C194.404 54.8175 192.639 56.0858 191.175 56.0858H190.547ZM191.253 54.909C192.378 54.909 193.816 53.8761 195.568 51.8103C197.268 49.7967 198.118 48.3454 198.118 47.4563C197.699 47.2209 197.176 46.6195 196.549 45.6519C195.659 45.6519 194.378 46.7241 192.704 48.8684C191.057 50.9604 190.259 52.5686 190.312 53.6931C190.338 54.5037 190.652 54.909 191.253 54.909ZM209.895 56.0858C209.189 56.0858 208.692 55.8896 208.404 55.4974C208.117 55.079 207.973 54.5691 207.973 53.9676C207.973 52.4509 208.496 50.8296 209.542 49.1037L212.052 45.0243C210.274 46.3318 208.509 47.9662 206.757 49.9275C206.286 50.4505 205.75 51.065 205.149 51.771C204.573 52.4771 203.933 53.2877 203.227 54.203C202.285 55.432 201.723 56.0465 201.54 56.0465C201.174 56.0465 200.873 55.8896 200.638 55.5758C200.402 55.2359 200.285 54.9352 200.285 54.6737C200.285 54.4645 200.35 54.0853 200.481 53.5362C200.612 52.9609 200.768 52.464 200.952 52.0456C201.135 51.6011 201.318 51.1696 201.501 50.7512C201.71 50.3066 201.906 49.8752 202.089 49.4568L199.736 51.9279C199.683 51.9802 199.526 52.1371 199.265 52.3986C199.003 52.6601 198.794 52.7909 198.637 52.7909C198.507 52.7909 198.441 52.6994 198.441 52.5163C198.441 52.464 198.467 52.3986 198.52 52.3202C198.546 52.2156 198.624 52.0979 198.755 51.9672C199.147 51.5749 199.553 51.1565 199.971 50.712C200.389 50.2674 200.821 49.7575 201.265 49.1822C201.501 48.8945 201.854 48.4631 202.324 47.8878C202.795 47.2863 203.305 46.6456 203.854 45.9657C204.429 45.2858 204.966 44.6582 205.462 44.0829C205.593 43.8999 205.737 43.7822 205.894 43.7299C206.051 43.6515 206.155 43.6122 206.208 43.6122C206.914 43.6122 207.267 43.8868 207.267 44.436C207.267 44.5929 207.228 44.7498 207.149 44.9067C204.796 48.1493 203.383 50.6204 202.913 52.3202C205.946 49.2868 208.378 47.0117 210.209 45.495C212.065 43.9522 213.386 43.1808 214.17 43.1808C214.589 43.1808 214.903 43.2461 215.112 43.3769C215.347 43.5076 215.465 43.7561 215.465 44.1222C215.465 44.2529 215.452 44.3575 215.426 44.436C215.347 44.619 214.811 45.3512 213.817 46.6326C213.216 47.3648 212.68 48.0316 212.209 48.633C211.765 49.2345 211.398 49.7575 211.111 50.202C210.64 50.9342 210.287 51.6272 210.052 52.281C209.816 52.9086 209.699 53.4446 209.699 53.8892C209.699 54.0722 209.725 54.2945 209.777 54.556C209.829 54.8175 209.986 54.9483 210.248 54.9483C210.849 54.9483 211.791 54.4253 213.072 53.3793C213.673 52.8563 214.236 52.3333 214.759 51.8103C215.282 51.2611 215.779 50.725 216.249 50.202C216.354 50.0974 216.524 49.9013 216.759 49.6137C216.995 49.2999 217.138 49.143 217.191 49.143C217.295 49.143 217.348 49.2476 217.348 49.4568C217.348 49.5614 217.282 49.7444 217.151 50.0059C217.047 50.2413 216.929 50.4243 216.798 50.5551C216.511 50.895 216.079 51.3657 215.504 51.9672C214.955 52.5686 214.327 53.1831 213.621 53.8107C212.941 54.4383 212.274 54.9744 211.621 55.419C210.967 55.8635 210.392 56.0858 209.895 56.0858Z" fill="#7C5395"/>
</g>
<defs>
<clipPath id="clip0_38_15">
<rect width="220.993" height="64.9927" fill="white" transform="translate(0 0.00732422)"/>
</clipPath>
</defs>
</svg>
