<svg width="36" height="36" viewBox="0 0 36 36" fill="none" xmlns="http://www.w3.org/2000/svg">
<path fill-rule="evenodd" clip-rule="evenodd" d="M13.2045 13.784C12.708 13.784 12.2163 13.8818 11.7576 14.0718C11.2989 14.2618 10.8821 14.5403 10.5311 14.8913C10.18 15.2424 9.90148 15.6592 9.71147 16.1179C9.52147 16.5766 9.42368 17.0683 9.42368 17.5648C9.42368 18.0613 9.52147 18.5529 9.71147 19.0117C9.90148 19.4704 10.18 19.8872 10.5311 20.2382C10.8821 20.5893 11.2989 20.8678 11.7576 21.0578C12.2163 21.2478 12.708 21.3456 13.2045 21.3456H16.9853V13.784H13.2045ZM16.9853 11.5884H13.2045C12.2016 11.5884 11.2397 11.19 10.5305 10.4808C9.82136 9.7716 9.42294 8.80975 9.42294 7.80682C9.42294 6.80389 9.82136 5.84204 10.5305 5.13286C11.2397 4.42368 12.2016 4.02527 13.2045 4.02527H16.9853V11.5884ZM19.1809 4.02527V11.5884H22.9617C23.9518 11.5689 24.8947 11.1619 25.588 10.4549C26.2813 9.74781 26.6696 8.79706 26.6696 7.80682C26.6696 6.81658 26.2813 5.86584 25.588 5.15878C24.8947 4.45172 23.9518 4.04475 22.9617 4.02527H19.1809ZM22.9617 13.7825C21.9693 13.7824 21.0166 14.1725 20.3093 14.8686C19.6019 15.5647 19.1967 16.511 19.1809 17.5033V17.6248C19.193 18.3698 19.425 19.0947 19.8478 19.7083C20.2705 20.3219 20.8651 20.7969 21.557 21.0737C22.2488 21.3504 23.007 21.4166 23.7363 21.2639C24.4656 21.1111 25.1335 20.7463 25.6561 20.2151C26.1788 19.684 26.5328 19.0103 26.6738 18.2786C26.8147 17.5469 26.7364 16.7899 26.4485 16.1026C26.1606 15.4153 25.6761 14.8285 25.0557 14.4157C24.4354 14.0029 23.7069 13.7826 22.9617 13.7825ZM13.2045 23.5412C12.4564 23.5409 11.725 23.7625 11.1028 24.1779C10.4806 24.5934 9.99557 25.184 9.70908 25.8751C9.42258 26.5662 9.34747 27.3267 9.49324 28.0605C9.63902 28.7943 9.99913 29.4683 10.528 29.9975C11.0569 30.5266 11.7309 30.8869 12.4646 31.033C13.1983 31.1791 13.9589 31.1042 14.6501 30.818C15.3413 30.5318 15.9321 30.047 16.3478 29.425C16.7635 28.8029 16.9853 28.0716 16.9853 27.3235V23.5412H13.2045Z" fill="white"/>
</svg>
