<svg width="36" height="36" viewBox="0 0 36 36" fill="none" xmlns="http://www.w3.org/2000/svg">
<path d="M8.91195 4.52078C7.74733 4.52078 6.63041 4.98343 5.8069 5.80693C4.98339 6.63044 4.52075 7.74736 4.52075 8.91198V26.4768C4.52075 27.6414 4.98339 28.7583 5.8069 29.5818C6.63041 30.4053 7.74733 30.868 8.91195 30.868H26.4767C27.6414 30.868 28.7583 30.4053 29.5818 29.5818C30.4053 28.7583 30.8679 27.6414 30.8679 26.4768V8.91198C30.8679 7.74736 30.4053 6.63044 29.5818 5.80693C28.7583 4.98343 27.6414 4.52078 26.4767 4.52078H8.91195ZM19.647 23.6298C20.7008 24.4788 21.7528 24.8974 22.8028 24.8857C23.4468 24.8857 23.9406 24.7676 24.2841 24.5315C24.444 24.4276 24.5741 24.284 24.6616 24.1146C24.7492 23.9452 24.7911 23.7559 24.7832 23.5654C24.7854 23.3576 24.742 23.1519 24.656 22.9627C24.57 22.7735 24.4436 22.6055 24.2855 22.4705C23.942 22.171 23.2921 21.8704 22.3358 21.5689C21.1873 21.2371 20.3017 20.8077 19.6792 20.2808C19.0683 19.7538 18.757 19.0186 18.7453 18.0749C18.7453 17.184 19.1317 16.438 19.9046 15.8369C20.656 15.2358 21.6171 14.9352 22.7881 14.9352C24.4197 14.9352 25.7288 15.3324 26.7153 16.1267L25.5882 17.8817C25.1824 17.5662 24.7168 17.3362 24.2197 17.2055C23.7729 17.0558 23.3061 16.9744 22.835 16.964C22.2788 16.964 21.8333 17.0659 21.4986 17.2699C21.1668 17.4748 21.0009 17.7432 21.0009 18.0749C21.0009 18.4399 21.2044 18.7512 21.6113 19.0088C22.0211 19.2567 22.7188 19.5304 23.7044 19.83C24.8959 20.1842 25.7439 20.6565 26.2484 21.2469C26.7529 21.8372 27.0051 22.5886 27.0051 23.501C27.0051 24.4349 26.6456 25.2399 25.9264 25.9162C25.2179 26.5817 24.1875 26.9305 22.835 26.9627C21.0639 26.9627 19.5826 26.4314 18.3911 25.3687L19.647 23.6298ZM11.5525 24.5637C11.896 24.7784 12.3093 24.8857 12.7923 24.8857C13.2968 24.8857 13.7154 24.7408 14.0482 24.451C14.38 24.1504 14.5463 23.6298 14.5473 22.8892V15.1284H16.721V23.3078C16.6888 24.5744 16.3238 25.4868 15.6261 26.045C15.2443 26.3677 14.8005 26.6088 14.3219 26.7534C13.8781 26.8885 13.4172 26.959 12.9533 26.9627C12.1483 26.9627 11.4344 26.8232 10.8119 26.5441C10.1464 26.2445 9.58819 25.7132 9.13736 24.9501L10.6509 23.7103C10.929 24.086 11.2295 24.3705 11.5525 24.5637Z" fill="white"/>
</svg>
