<?xml version="1.0" encoding="UTF-8"?>
<svg id="Layer_1" xmlns="http://www.w3.org/2000/svg" version="1.1" xmlns:xlink="http://www.w3.org/1999/xlink" viewBox="0 0 685 186.6">
  <!-- Generator: Adobe Illustrator 29.1.0, SVG Export Plug-In . SVG Version: 2.1.0 Build 142)  -->
  <defs>
    <style>
      .st0 {
        fill: #fff;
      }

      .st1 {
        fill: none;
      }

      .st2 {
        fill: #7c5395;
      }

      .st3 {
        clip-path: url(#clippath);
      }
    </style>
    <clipPath id="clippath">
      <rect class="st1" y="0" width="685" height="262"/>
    </clipPath>
  </defs>
  <g class="st3">
    <g>
      <path class="st0" d="M51.5,138.5c-11.9,0-21.2-3.1-27.9-9.3-6.7-6.3-11-14.6-12.9-24.8l22.4-4.7c1.1,5.5,3.2,9.8,6.1,13,3,3.1,7,4.7,12.1,4.7s9-1.6,12.1-4.7c3.2-3.1,4.8-7.9,4.8-14.5V26.2H27.1V6.4h65.4v93.7c0,7.7-1.7,14.5-5,20.3-3.4,5.7-8.1,10.2-14.3,13.4-6.1,3.1-13.3,4.7-21.6,4.7ZM159.4,138.7c-9.2,0-17.1-2-23.8-6.1-6.7-4.2-11.9-10.1-15.6-17.7-3.6-7.7-5.4-16.7-5.4-27s1.8-19.4,5.4-27c3.7-7.6,8.9-13.4,15.6-17.5,6.7-4.2,14.7-6.3,23.8-6.3s17.3,2.1,24,6.3c6.7,4.1,11.9,9.9,15.5,17.5,3.7,7.6,5.6,16.6,5.6,27s-1.9,19.3-5.6,27c-3.6,7.6-8.8,13.5-15.5,17.7-6.7,4.1-14.7,6.1-24,6.1ZM159.4,119.7c6.3,0,11.4-1.9,15.1-5.8,3.7-4,5.6-9.7,5.6-17.1v-17.9c0-7.6-1.9-13.3-5.6-17.1-3.7-3.8-8.8-5.8-15.1-5.8s-11.2,1.9-14.9,5.8c-3.7,3.9-5.6,9.6-5.6,17.1v17.9c0,7.4,1.9,13.2,5.6,17.1,3.7,3.8,8.7,5.8,14.9,5.8ZM264.1,138.7c-14.3,0-25.3-4.6-33.2-13.8-7.7-9.2-11.5-21.5-11.5-37.1s3.8-28,11.5-37.1c7.8-9.2,18.9-13.8,33.2-13.8s17.9,2.2,24.2,6.7c6.3,4.3,10.9,10.3,13.8,17.9l-19,8.6c-1.2-4.2-3.5-7.6-6.7-10.2-3.1-2.6-7.2-3.9-12.3-3.9s-11.8,2.1-15.3,6.3c-3.4,4.2-5,9.8-5,16.8v17.7c0,6.8,1.7,12.4,5,16.6,3.5,4.2,8.6,6.3,15.3,6.3s10-1.4,13.2-4.3c3.2-2.9,5.8-6.5,7.6-11l17.9,8.8c-3.2,8.4-8.1,14.8-14.7,19.2-6.6,4.2-14.6,6.3-24,6.3ZM359.5,138.7c-9.6,0-17.8-2-24.6-6.1-6.8-4.2-12-10.1-15.6-17.7-3.6-7.7-5.4-16.7-5.4-27s1.7-19.2,5.2-26.8c3.6-7.6,8.8-13.5,15.5-17.7s14.8-6.3,24.2-6.3,18.3,2.2,24.8,6.7c6.6,4.5,11.4,10.4,14.5,17.9,3.2,7.3,4.8,15.5,4.8,24.4v7.8h-64.8v2.4c0,7.1,2,12.8,6,17.1,4.1,4.3,10.1,6.5,17.9,6.5s10.9-1.2,14.7-3.7c3.9-2.5,7.2-5.6,10.1-9.5l12.9,14c-4,5.5-9.4,9.9-16.4,13.2-6.8,3.2-14.7,4.8-23.7,4.8ZM338,79.2h40.4v-1.9c0-4.6-.7-8.6-2.2-11.9-1.5-3.4-3.7-6-6.5-7.8-2.9-2-6.4-3-10.6-3s-7.9,1-11.2,3c-3.1,1.9-5.5,4.5-7.3,8-1.7,3.5-2.6,7.5-2.6,12.1v1.5ZM447.7,136.4c-8.1,0-14-2-17.9-6-3.9-4.1-5.8-9.8-5.8-17.1V-1.4h23.5v119.2h12.9v18.6h-12.7ZM478.2,173.7v-18.6h17.3l4.7-14-34.8-101.9h23.1l17.3,52.2,6.1,24.2h1.1l6.5-24.2,17.3-52.2h22.2l-39.5,114.7c-1.5,4.6-3.4,8.3-5.8,11.2-2.2,3-5.1,5.2-8.6,6.5-3.5,1.4-7.8,2-13,2h-14ZM574.6,136.4V39.2h23.5v16.2h.9c2-5.2,5.1-9.6,9.3-13,4.3-3.6,10.3-5.4,17.9-5.4s17.6,3.4,22.9,10.1c5.5,6.6,8.2,15.9,8.2,27.9v61.5h-23.3v-59c0-7-1.3-12.2-3.9-15.6-2.5-3.6-6.6-5.4-12.5-5.4s-6.5.6-9.5,1.7c-3,1.1-5.4,2.9-7.3,5.2-1.9,2.4-2.8,5.3-2.8,8.8v64.4h-23.5Z"/>
      <path class="st2" d="M319.1,178.6c-.5,0-.8-.5-.8-1.6,0-3.5,2.9-12.3,8.8-26.4,1.8-4.1,3.6-8.2,5.3-12.3,1.8-4.1,3.5-8.2,5.2-12.3l7.2-21.2c1.2-3.6,2-6.6,2.7-9.1.7-2.6,1.1-4.8,1.1-6.4,0-7.3-2.1-12.8-6.3-16.5-4.2-3.8-9.7-5.7-16.7-5.7s-12.9,1.5-19.3,4.4c-6.3,2.8-12,6.7-17.3,11.6-5.1,4.9-9.3,10.4-12.4,16.5-4.5,8.6-6.8,16.4-6.8,23.6s1.2,9.4,3.6,13.4c2.4,4,5.6,6.7,9.4,8.2,2.7.9,5.4,1.4,8,1.4s7.1-.8,10.2-2.4c3.1-1.7,5.7-4,7.5-6.9,2-2.9,3-6.2,3-9.9v-1.3c0-.5,0-1-.2-1.4-.4-1.3-.1-1.9.9-1.9s1.8.8,1.9,2.5c.1.4.2.8.2,1.3.1.4.2.9.2,1.4,0,3.8-1.3,7.3-3.8,10.5-2.5,3.2-5.8,5.9-9.7,8-3.9,2-7.9,3-12.1,3s-8.4-1-12.4-3.1c-8.5-4.6-12.7-12.6-12.7-24s2.2-16.1,6.6-23.7c4-6.9,9.2-12.9,15.6-18.1,6.4-5.1,13.4-9.1,21.1-11.9,7.6-2.9,15.2-4.4,22.8-4.4s10,.8,14.1,2.5c4.2,1.6,7.5,4,9.9,7.4,2.5,3.2,3.8,7.4,3.8,12.6,0,9.7-4.4,24.4-13.2,43.8-10.1,22.1-15.1,34.5-15.1,37.2s.3,1,.8.8c2.7-1.8,15-15.8,36.9-42.1,11.2-13.4,20.7-24.2,28.4-32.5,7.9-8.4,14-14.2,18.5-17.4,4-3,7.4-5.5,10.4-7.4,2.9-2,5.3-3.5,7.1-4.6,6.5-3.6,12.5-5.3,17.9-5.3s4.2.3,5.5.8c1.4.4,2,1.7,2,3.8s-.5,2-1.4,2-1-.2-2.2-.6c-1.2-.5-2.3-.8-3.5-.8-5.6,0-11.4,1.6-17.4,4.9-12.2,6.5-26.1,18.1-41.8,34.9-4.5,4.8-9.8,10.8-15.9,17.9-6,7.1-12.7,15.5-20.3,25-11.9,15.1-19.1,23.3-21.5,24.7-4.5,2.6-7.9,4.5-10.2,5.5-2.2,1.2-3.5,1.7-3.8,1.7ZM410.1,113.4c-1.8,0-3.4-.6-4.7-1.7-1.3-1.2-1.9-2.5-1.9-3.9,0-2.9,2-4.4,6-4.4s2.9.5,4.4,1.6c1.5.9,2.2,2.1,2.2,3.6s-.7,2.4-2,3.5c-1.4.9-2.7,1.4-3.9,1.4ZM381,169.2c-2.3,0-4.2-.7-5.7-2.2-1.6-1.6-2.4-4.3-2.4-8.2s.5-4.7,1.6-7.5c.9-2.9,2.1-5.9,3.6-8.8,1.6-2.9,3.1-5.6,4.6-7.9,5.9-9.5,10.7-14.4,14.5-14.5.9,0,2.1.4,3.5,1.3,1.4.7,2,1.6,2,2.5,0,0-4,5.1-11.9,15.4-7.9,10.2-11.8,17.4-11.8,21.7s1.3,5,3.9,5,3.8-.7,6.4-2c2.7-1.5,5.6-3.3,8.5-5.5,2.9-2.2,5.7-4.6,8.3-7.1,2.7-2.5,4.9-4.8,6.6-6.9,1-1.4,1.9-2.3,2.7-2.8.8-.5,1.4-.8,1.6-.8.4,0,.6.3.6.9s-.6,1.6-1.9,3.1c-1.2,1.6-2.8,3.4-4.9,5.5-2.5,2.5-5.3,5.2-8.3,8.2-3,2.9-6.3,5.4-9.9,7.5-3.6,2-7.4,3-11.6,3ZM450.9,167.7c-2.8,0-4.8-.8-6-2.4-1.2-1.7-1.7-3.7-1.7-6.1,0-6.1,2.1-12.6,6.3-19.5l10.1-16.3c-7.1,5.2-14.2,11.8-21.2,19.6-1.9,2.1-4,4.6-6.4,7.4-2.3,2.8-4.9,6.1-7.7,9.7-3.8,4.9-6,7.4-6.8,7.4-1.5,0-2.7-.6-3.6-1.9-.9-1.4-1.4-2.6-1.4-3.6s.3-2.4.8-4.6c.5-2.3,1.2-4.3,1.9-6,.7-1.8,1.5-3.5,2.2-5.2.8-1.8,1.6-3.5,2.4-5.2l-9.4,9.9c-.2.2-.8.8-1.9,1.9-1,1-1.9,1.6-2.5,1.6s-.8-.4-.8-1.1.1-.5.3-.8c.1-.4.4-.9.9-1.4,1.6-1.6,3.2-3.2,4.9-5,1.7-1.8,3.4-3.8,5.2-6.1.9-1.2,2.4-2.9,4.2-5.2,1.9-2.4,3.9-5,6.1-7.7,2.3-2.7,4.5-5.2,6.4-7.5.5-.7,1.1-1.2,1.7-1.4.6-.3,1-.5,1.3-.5,2.8,0,4.2,1.1,4.2,3.3s-.2,1.3-.5,1.9c-9.4,13-15.1,22.9-17,29.7,12.2-12.2,21.9-21.3,29.2-27.3,7.4-6.2,12.7-9.3,15.9-9.3s2.9.3,3.8.8c.9.5,1.4,1.5,1.4,3s0,.9-.2,1.3c-.3.7-2.5,3.7-6.4,8.8-2.4,2.9-4.6,5.6-6.4,8-1.8,2.4-3.2,4.5-4.4,6.3-1.9,2.9-3.3,5.7-4.2,8.3-.9,2.5-1.4,4.7-1.4,6.4s.1,1.6.3,2.7c.2,1,.8,1.6,1.9,1.6,2.4,0,6.2-2.1,11.3-6.3,2.4-2.1,4.7-4.2,6.8-6.3,2.1-2.2,4.1-4.3,6-6.4.4-.4,1.1-1.2,2-2.4.9-1.3,1.5-1.9,1.7-1.9.4,0,.6.4.6,1.3s-.3,1.2-.8,2.2c-.4.9-.9,1.7-1.4,2.2-1.2,1.4-2.9,3.2-5.2,5.7-2.2,2.4-4.7,4.9-7.5,7.4-2.7,2.5-5.4,4.7-8,6.4-2.6,1.8-4.9,2.7-6.9,2.7ZM484.7,168.2c-2.5,0-5-.9-7.5-2.7-2.5-1.8-3.9-3.9-4.2-6.3-1-8.1,4-17.7,15.2-28.8,11.1-11.1,21.1-16.7,30-16.7s4.3.6,5.7,1.7c.7.7,1.3,1.7,1.6,3,.4,1.3.7,1.9.9,1.9.4,0,.8,0,1.1-.2.3-.2.7-.3,1.1-.3,1.3,0,2.4.5,3.3,1.4.9.9,1.5,1.8,1.6,2.5.1.2-3.2,5.4-10.1,15.6-6.8,10-9.9,16.7-9.3,20.3.5,2.4,1.7,3.6,3.5,3.6,5.4,0,15.4-9,29.9-27,.3-.4.6-.6.9-.6.5,0,.8.4.8,1.1s-.5,1.9-1.4,3.1c-13.3,17.9-23.5,26.9-30.6,26.9s-1.8-.2-2.7-.5c-4.6-1.8-6.9-5.2-6.9-10.4s.2-3.6.6-5.3l-9.7,9.4c-2.9,2.9-5.6,5-8,6.3-2.3,1.3-4.2,1.9-5.7,1.9ZM483.3,164.8c6.1,0,14.4-6.7,24.8-20l16.7-22.9c-.8-1.5-2.2-2.2-4.1-2.2-6.4,0-15,5.1-25.9,15.4-11.3,10.5-16.4,19.1-15.2,25.9.5,2.5,1.8,3.8,3.8,3.8ZM548.7,168.4c-3.4,0-6-.8-8-2.4-1.9-1.7-2.8-4.6-2.8-8.8s.7-5.4,2.2-9.1c1.5-3.8,3.3-7.8,5.5-12.1,2.2-4.3,4.4-8.5,6.6-12.7-1.4.3-2.6.5-3.6.5-3.1,0-4.7-1.2-4.7-3.6s.4-2,1.3-2.7c.9-.6,1.8-1,2.5-1.1h.3c.3,0,.7,0,1.1-.2h9.1c1.9-2.4,3.8-5,5.8-7.7,2.8-3.6,5.1-5.7,6.8-6.3h.5c.7,0,1.8.4,3.1,1.1,1.7.9,2.5,1.9,2.5,2.8,0,1.4-2.5,4.9-7.5,10.5.9.1,2.3.2,4.1.2h19.3c2.6-.1,4.9-.2,6.8-.2,1.9-.1,2.9-.2,3.1-.2.3.1.5.3.5.5,0,.9-6.2,2.2-18.5,3.8-7,.9-12.4,1.7-16.2,2.2-3.7.5-5.7.8-6,.9-1.5,1.3-3.2,3.4-5.3,6.4-2.1,3-4.2,6.4-6.3,10.2-2.1,3.8-3.9,7.4-5.3,10.8-1.4,3.4-2,6-2,7.9s.6,3.1,1.9,4.2c1.3,1,3.3,1.6,6.1,1.6s4.1-.4,6.8-1.3c2.6-.8,5.1-1.8,7.4-2.8,2.4-1.2,4.1-2,5.2-2.7,2.7-1.7,5.7-3.9,9-6.6,3.4-2.8,6.7-6,9.9-9.6,1.5-1.5,2.5-2.2,3-2.2s.5.2.5.6c0,.8-.8,2.2-2.4,4.1-2.5,3-5.3,6-8.5,8.8-3,2.7-6.4,5.2-10.2,7.5-4.3,2.6-8.4,4.5-12.4,5.7-3.9,1.2-7.5,1.7-10.8,1.7ZM620.3,113.4c-1.8,0-3.4-.6-4.7-1.7-1.3-1.2-1.9-2.5-1.9-3.9,0-2.9,2-4.4,6-4.4s2.9.5,4.4,1.6c1.5.9,2.2,2.1,2.2,3.6s-.7,2.4-2,3.5c-1.4.9-2.7,1.4-3.9,1.4ZM591.3,169.2c-2.3,0-4.2-.7-5.7-2.2-1.6-1.6-2.4-4.3-2.4-8.2s.5-4.7,1.6-7.5c.9-2.9,2.1-5.9,3.6-8.8,1.6-2.9,3.1-5.6,4.6-7.9,5.9-9.5,10.7-14.4,14.5-14.5.9,0,2.1.4,3.5,1.3,1.4.7,2,1.6,2,2.5,0,0-4,5.1-11.9,15.4-7.9,10.2-11.8,17.4-11.8,21.7s1.3,5,3.9,5,3.8-.7,6.4-2c2.7-1.5,5.6-3.3,8.5-5.5,2.9-2.2,5.7-4.6,8.3-7.1,2.7-2.5,4.9-4.8,6.6-6.9,1-1.4,1.9-2.3,2.7-2.8.8-.5,1.4-.8,1.6-.8.4,0,.6.3.6.9s-.6,1.6-1.9,3.1c-1.2,1.6-2.8,3.4-4.9,5.5-2.5,2.5-5.3,5.2-8.3,8.2-3,2.9-6.3,5.4-9.9,7.5-3.6,2-7.4,3-11.6,3ZM629.1,169.5c-3.4,0-6.4-1-9.1-3.1-2.7-2.2-4.1-5.1-4.1-8.6,0-7.4,4.6-15.9,13.7-25.5,9.3-9.6,17.7-14.5,25-14.5s4.3.7,5.8,2c1.6,1.3,2.4,2.8,2.4,4.7,0,5.9-4.7,11.6-14,17.3-8.3,5-15.2,7.5-20.9,7.5s-1.6-.1-2.2-.3c-1.6,2.8-2.4,5.8-2.4,9,0,5.4,2.6,8.2,7.7,8.2s12-3.5,20.3-10.5c6.4-5.1,11.8-10.6,16.3-16.3.9-1.3,1.8-1.9,2.5-1.9s.9.3.9.9-.4,1.5-1.3,2.7c-2.9,3.9-6.1,7.4-9.4,10.7-3.4,3.2-7,6.2-10.8,9-8.1,5.9-14.9,8.8-20.4,8.8ZM630,145.9c4,0,9.2-2,15.6-6,2.1-1.5,4.1-3.1,6.1-4.9,2.1-1.9,3.8-3.8,5-5.7,1.4-1.9,2-3.6,2-5s-1.1-2-3.3-2c-3.1,0-7.5,2.4-13.2,7.1-2.7,2.3-5.3,4.8-7.9,7.5-2.5,2.7-4.7,5.6-6.4,8.6.6.2,1.3.3,2,.3ZM651.7,110.9c-.7.2-1.1-.1-1.1-.9s.2-.8.6-1.1l15.2-12.3c1.2-.9,2-1.4,2.7-1.4s1.2.4,1.9,1.1c.8.6,1.3,1.3,1.3,2s-.2,1.4-.6,1.9c-.4.4-.9.8-1.4,1.3-.6.4-1.7,1.1-3.1,2-1.5.8-3.6,1.9-6.3,3.3-2.4,1.2-4.4,2.1-6,2.8-1.5.6-2.5,1-3.1,1.3Z"/>
    </g>
  </g>
</svg>