<svg width="46" height="46" viewBox="0 0 46 46" fill="none" xmlns="http://www.w3.org/2000/svg">
<path d="M30.4056 28.0774C30.3399 28.0775 30.2749 28.0646 30.2141 28.0394C30.1534 28.0143 30.0983 27.9775 30.0518 27.931C30.0053 27.8845 29.9685 27.8294 29.9434 27.7686C29.9182 27.7079 29.9053 27.6429 29.9053 27.5772V16.0566L15.2028 30.7591C15.1091 30.8529 14.9819 30.9056 14.8493 30.9056C14.7167 30.9056 14.5895 30.8529 14.4957 30.7591C14.402 30.6654 14.3493 30.5382 14.3493 30.4056C14.3493 30.273 14.402 30.1458 14.4957 30.052L29.1982 15.3495L17.6777 15.3495C17.612 15.3495 17.547 15.3366 17.4863 15.3114C17.4256 15.2863 17.3704 15.2494 17.324 15.203C17.2775 15.1565 17.2407 15.1014 17.2155 15.0407C17.1904 14.98 17.1774 14.9149 17.1774 14.8492C17.1774 14.7835 17.1904 14.7185 17.2155 14.6578C17.2407 14.5971 17.2775 14.5419 17.324 14.4955C17.3704 14.449 17.4256 14.4122 17.4863 14.387C17.547 14.3619 17.612 14.349 17.6777 14.349L30.4056 14.349C30.4713 14.3489 30.5364 14.3618 30.5971 14.387C30.6578 14.4121 30.713 14.4489 30.7595 14.4954C30.8059 14.5419 30.8428 14.597 30.8679 14.6577C30.893 14.7185 30.9059 14.7835 30.9059 14.8492L30.9059 27.5772C30.9059 27.6429 30.893 27.7079 30.8679 27.7687C30.8428 27.8294 30.8059 27.8845 30.7595 27.931C30.713 27.9775 30.6578 28.0143 30.5971 28.0394C30.5364 28.0646 30.4713 28.0775 30.4056 28.0774Z" fill="black"/>
</svg>
