<svg width="36" height="36" viewBox="0 0 36 36" fill="none" xmlns="http://www.w3.org/2000/svg">
<path d="M15.9482 16.3917C15.8615 16.6642 15.7073 16.9104 15.5001 17.1074C15.2928 17.3044 15.0391 17.4459 14.7626 17.5187C13.9925 17.7389 13.1855 17.7986 12.3913 17.6944C12.2303 17.6944 12.1718 17.6944 12.1718 17.4602V13.8887C12.1718 13.7569 12.1718 13.6398 12.3474 13.6398C13.0422 13.6301 13.735 13.6642 14.4259 13.7423C14.7209 13.777 15.0036 13.8803 15.2514 14.0438C15.4993 14.2073 15.7055 14.4266 15.8534 14.6841C16.0014 14.9416 16.087 15.2301 16.1035 15.5266C16.1199 15.8231 16.0667 16.1194 15.9482 16.3917Z" fill="white"/>
<path d="M25.2722 3.05704H10.6349C8.69382 3.05704 6.83229 3.82811 5.45978 5.20062C4.08726 6.57314 3.31619 8.43467 3.31619 10.3757V25.013C3.31619 26.9541 4.08726 28.8156 5.45978 30.1881C6.83229 31.5606 8.69382 32.3317 10.6349 32.3317H25.2722C27.2132 32.3317 29.0747 31.5606 30.4473 30.1881C31.8198 28.8156 32.5908 26.9541 32.5908 25.013V10.3757C32.5908 8.43467 31.8198 6.57314 30.4473 5.20062C29.0747 3.82811 27.2132 3.05704 25.2722 3.05704ZM17.7486 18.5287C16.9979 19.3756 15.9491 19.9 14.8211 19.9924C14.0893 20.0802 13.3574 19.9924 12.6255 20.1095H12.0986V23.8713C12.0986 24.1641 12.0986 24.208 11.7912 24.208H9.7127C9.49314 24.208 9.40532 24.1348 9.40532 23.9006V11.532C9.40532 11.3418 9.40532 11.2393 9.66879 11.2393H13.7087C14.671 11.2076 15.6262 11.4138 16.4898 11.8394C17.1642 12.1589 17.7349 12.6621 18.1362 13.2912C18.5376 13.9204 18.7533 14.65 18.7586 15.3963C18.8089 15.9595 18.7454 16.527 18.5719 17.0651C18.3984 17.6033 18.1184 18.101 17.7486 18.5287ZM26.4432 16.6405C26.4432 16.8454 26.3261 16.8893 26.1504 16.8893C25.4243 16.8685 24.7017 16.9981 24.028 17.2699L23.8377 17.3577C23.65 17.4175 23.4889 17.5408 23.3821 17.7064C23.2752 17.8719 23.2293 18.0695 23.2522 18.2652V23.8567C23.2522 24.1933 23.2522 24.208 22.9156 24.208H20.7932C20.4858 24.208 20.4565 24.208 20.4565 23.8713V16.2745C20.4565 15.7183 20.4565 15.1621 20.3833 14.6059C20.3833 14.4156 20.3833 14.3278 20.6321 14.3424H22.5789C22.6265 14.334 22.6754 14.3359 22.7223 14.3481C22.7691 14.3603 22.8127 14.3824 22.8503 14.4129C22.8878 14.4435 22.9182 14.4818 22.9396 14.5252C22.961 14.5686 22.9728 14.6161 22.9741 14.6644C22.9741 14.9572 23.0766 15.2646 23.1205 15.5134C23.5596 15.206 23.9841 14.8694 24.4525 14.5912C24.9825 14.2881 25.5837 14.1315 26.1943 14.1375C26.37 14.1375 26.4578 14.1375 26.4578 14.3863L26.4432 16.6405Z" fill="white"/>
</svg>
