<svg width="641" height="210" viewBox="0 0 641 210" fill="none" xmlns="http://www.w3.org/2000/svg">
<path d="M0.939941 127V8.34H54.1499C61.4033 8.34 67.6366 9.87 72.8499 12.93C78.1766 15.99 82.1999 20.2967 84.9199 25.85C87.7533 31.29 89.1699 37.6367 89.1699 44.89C89.1699 52.2567 87.7533 58.66 84.9199 64.1C82.1999 69.54 78.1766 73.8467 72.8499 77.02C67.6366 80.08 61.4033 81.61 54.1499 81.61H23.0399V127H0.939941ZM23.0399 62.4H52.1099C55.0566 62.4 57.5499 61.89 59.5899 60.87C61.7433 59.85 63.3866 58.32 64.5199 56.28C65.7666 54.24 66.3899 51.8033 66.3899 48.97V40.98C66.3899 38.0333 65.7666 35.5967 64.5199 33.67C63.3866 31.63 61.7433 30.1 59.5899 29.08C57.5499 28.06 55.0566 27.55 52.1099 27.55H23.0399V62.4Z" fill="white"/>
<path d="M106.494 127V38.26H127.914V56.62H128.764C129.557 53.4467 130.917 50.5 132.844 47.78C134.771 44.9467 137.321 42.68 140.494 40.98C143.667 39.1667 147.634 38.26 152.394 38.26H156.984V58.49H150.184C145.311 58.49 141.174 59 137.774 60.02C134.487 60.9267 131.994 62.4 130.294 64.44C128.707 66.48 127.914 69.1433 127.914 72.43V127H106.494Z" fill="white"/>
<path d="M207.426 129.04C199.04 129.04 191.786 127.17 185.666 123.43C179.546 119.577 174.786 114.193 171.386 107.28C168.1 100.253 166.456 92.0367 166.456 82.63C166.456 73.11 168.1 64.8933 171.386 57.98C174.786 51.0667 179.546 45.74 185.666 42C191.786 38.1467 199.04 36.22 207.426 36.22C215.926 36.22 223.236 38.1467 229.356 42C235.476 45.74 240.18 51.0667 243.466 57.98C246.866 64.8933 248.566 73.11 248.566 82.63C248.566 92.0367 246.866 100.253 243.466 107.28C240.18 114.193 235.476 119.577 229.356 123.43C223.236 127.17 215.926 129.04 207.426 129.04ZM207.426 111.7C213.206 111.7 217.796 109.943 221.196 106.43C224.596 102.803 226.296 97.59 226.296 90.79V74.47C226.296 67.5567 224.596 62.3433 221.196 58.83C217.796 55.3167 213.206 53.56 207.426 53.56C201.76 53.56 197.226 55.3167 193.826 58.83C190.426 62.3433 188.726 67.5567 188.726 74.47V90.79C188.726 97.59 190.426 102.803 193.826 106.43C197.226 109.943 201.76 111.7 207.426 111.7Z" fill="white"/>
<path d="M254.427 161V144H268.027V38.26H289.447V137.88C289.447 145.133 287.577 150.8 283.837 154.88C280.097 158.96 274.261 161 266.327 161H254.427ZM278.737 25C274.431 25 271.257 23.98 269.217 21.94C267.177 19.9 266.157 17.35 266.157 14.29V11.06C266.157 7.88666 267.177 5.27999 269.217 3.23999C271.257 1.19999 274.431 0.179993 278.737 0.179993C283.157 0.179993 286.331 1.19999 288.257 3.23999C290.297 5.27999 291.317 7.88666 291.317 11.06V14.29C291.317 17.35 290.297 19.9 288.257 21.94C286.331 23.98 283.157 25 278.737 25Z" fill="white"/>
<path d="M350.548 129.04C341.821 129.04 334.341 127.17 328.108 123.43C321.874 119.577 317.114 114.193 313.828 107.28C310.541 100.253 308.898 92.0367 308.898 82.63C308.898 73.2233 310.484 65.0633 313.658 58.15C316.944 51.2367 321.648 45.8533 327.768 42C333.888 38.1467 341.254 36.22 349.868 36.22C359.048 36.22 366.584 38.26 372.478 42.34C378.484 46.42 382.904 51.86 385.738 58.66C388.684 65.3467 390.158 72.77 390.158 80.93V88.07H330.998V90.28C330.998 96.74 332.811 101.953 336.438 105.92C340.178 109.887 345.618 111.87 352.758 111.87C358.198 111.87 362.674 110.737 366.188 108.47C369.701 106.203 372.761 103.313 375.368 99.8L387.098 112.55C383.471 117.537 378.484 121.56 372.138 124.62C365.904 127.567 358.708 129.04 350.548 129.04ZM330.998 74.81H367.888V73.11C367.888 68.9167 367.208 65.29 365.848 62.23C364.488 59.17 362.504 56.79 359.898 55.09C357.291 53.2767 354.061 52.37 350.208 52.37C346.354 52.37 342.954 53.2767 340.008 55.09C337.174 56.79 334.964 59.2267 333.378 62.4C331.791 65.5733 330.998 69.2567 330.998 73.45V74.81Z" fill="white"/>
<path d="M444.493 129.04C431.459 129.04 421.373 124.847 414.233 116.46C407.206 108.073 403.693 96.7967 403.693 82.63C403.693 68.35 407.206 57.0733 414.233 48.8C421.373 40.4133 431.459 36.22 444.493 36.22C453.446 36.22 460.813 38.26 466.593 42.34C472.373 46.3067 476.566 51.7467 479.173 58.66L461.833 66.48C460.699 62.6267 458.659 59.51 455.713 57.13C452.879 54.75 449.139 53.56 444.493 53.56C438.373 53.56 433.726 55.4867 430.553 59.34C427.493 63.1933 425.963 68.2933 425.963 74.64V90.79C425.963 97.0233 427.493 102.067 430.553 105.92C433.726 109.773 438.373 111.7 444.493 111.7C449.593 111.7 453.616 110.397 456.563 107.79C459.509 105.183 461.833 101.84 463.533 97.76L479.853 105.75C476.906 113.457 472.429 119.293 466.423 123.26C460.416 127.113 453.106 129.04 444.493 129.04Z" fill="white"/>
<path d="M523.835 127C516.581 127 511.028 125.073 507.175 121.22C503.321 117.367 501.395 111.927 501.395 104.9V55.26H488.135V38.26H495.105C498.278 38.26 500.431 37.5233 501.565 36.05C502.811 34.5767 503.435 32.31 503.435 29.25V14.12H522.645V38.26H540.835V55.26H522.645V110H539.475V127H523.835Z" fill="white"/>
<path d="M588.787 129.04C580.287 129.04 573.147 127.623 567.367 124.79C561.587 121.843 556.487 117.82 552.067 112.72L565.157 100.14C568.443 103.88 572.07 106.827 576.037 108.98C580.003 111.133 584.537 112.21 589.637 112.21C594.85 112.21 598.647 111.303 601.027 109.49C603.407 107.563 604.597 104.957 604.597 101.67C604.597 99.0633 603.747 96.9667 602.047 95.38C600.347 93.7933 597.513 92.7167 593.547 92.15L584.707 90.96C578.473 90.1667 573.147 88.6933 568.727 86.54C564.307 84.3867 560.963 81.4967 558.697 77.87C556.43 74.13 555.297 69.5967 555.297 64.27C555.297 55.5433 558.357 48.6867 564.477 43.7C570.597 38.7133 578.7 36.22 588.787 36.22C594.567 36.22 599.497 36.7867 603.577 37.92C607.657 38.94 611.227 40.5267 614.287 42.68C617.46 44.72 620.463 47.2133 623.297 50.16L610.547 62.74C608.053 60.02 604.993 57.7533 601.367 55.94C597.74 54.0133 593.717 53.05 589.297 53.05C584.65 53.05 581.193 53.9567 578.927 55.77C576.773 57.47 575.697 59.7367 575.697 62.57C575.697 65.63 576.603 67.9533 578.417 69.54C580.23 71.0133 583.29 72.09 587.597 72.77L596.437 73.96C606.183 75.32 613.38 78.21 618.027 82.63C622.673 86.9367 624.997 92.7733 624.997 100.14C624.997 105.807 623.523 110.85 620.577 115.27C617.63 119.577 613.437 122.977 607.997 125.47C602.557 127.85 596.153 129.04 588.787 129.04Z" fill="white"/>
<path d="M136.21 192.86C127.37 192.86 120.343 190.763 115.13 186.57C109.917 182.49 107.31 176.54 107.31 168.72C107.31 163.053 108.5 157.727 110.88 152.74C113.373 147.64 116.717 143.107 120.91 139.14C125.103 135.173 129.863 132.057 135.19 129.79C140.63 127.523 146.297 126.39 152.19 126.39C158.197 126.39 162.9 127.75 166.3 130.47C169.813 133.19 171.57 136.873 171.57 141.52C171.57 144.92 169.36 149.34 164.94 154.78C160.52 160.22 158.31 162.033 158.31 160.22C158.31 159.767 158.48 159.313 158.82 158.86C162.447 153.533 164.26 148.547 164.26 143.9C164.26 139.707 162.9 136.363 160.18 133.87C157.573 131.377 154.117 130.13 149.81 130.13C145.05 130.13 140.46 131.32 136.04 133.7C131.733 135.967 127.88 139.027 124.48 142.88C121.08 146.733 118.417 150.983 116.49 155.63C114.563 160.277 113.6 164.867 113.6 169.4C113.6 175.633 115.583 180.337 119.55 183.51C123.63 186.797 128.957 188.44 135.53 188.44C142.217 188.44 148.62 187.193 154.74 184.7C160.973 182.32 166.527 178.863 171.4 174.33C177.18 168.89 183.017 160.957 188.91 150.53L203.7 123.84C207.553 117.72 211.577 110.353 215.77 101.74C219.963 93.0133 224.383 83.04 229.03 71.82C212.71 71.5933 196.843 73.18 181.43 76.58C164.997 80.0933 152.813 84.9667 144.88 91.2C141.48 93.6933 139.78 96.3 139.78 99.02C139.78 101.4 141.083 103.383 143.69 104.97C146.41 106.443 149.81 107.18 153.89 107.18C156.27 107.18 159.103 106.84 162.39 106.16C165.677 105.48 168.85 104.573 171.91 103.44C174.97 102.193 177.293 100.833 178.88 99.36C180.013 98.4533 180.807 98 181.26 98C182.167 98 182.337 98.4533 181.77 99.36C179.39 102.193 176.273 104.573 172.42 106.5C168.68 108.427 164.713 109.9 160.52 110.92C156.327 111.827 152.417 112.28 148.79 112.28C143.237 112.28 138.873 111.203 135.7 109.05C132.64 106.783 131.11 103.893 131.11 100.38C131.11 96.3 133.15 92.3333 137.23 88.48C144.937 81 158.707 75.4467 178.54 71.82C186.247 70.46 194.52 69.4967 203.36 68.93C212.2 68.25 221.607 67.9667 231.58 68.08C234.073 65.9267 236.453 64.85 238.72 64.85C240.987 64.85 241.837 66.04 241.27 68.42C248.41 68.8733 255.607 69.78 262.86 71.14C270.227 72.5 276.913 74.4267 282.92 76.92C289.04 79.3 293.97 82.3033 297.71 85.93C301.45 89.4433 303.32 93.6367 303.32 98.51C303.32 103.723 301.563 108.71 298.05 113.47C294.65 118.117 290.23 122.253 284.79 125.88C279.463 129.507 273.853 132.397 267.96 134.55C262.52 136.477 256.683 138.007 250.45 139.14C244.33 140.273 238.267 140.84 232.26 140.84C227.727 140.84 223.363 140.5 219.17 139.82C215.09 139.14 211.35 138.063 207.95 136.59C201.037 146.677 195.257 154.893 190.61 161.24C186.077 167.587 182.563 172.007 180.07 174.5C167.83 186.74 153.21 192.86 136.21 192.86ZM228.01 136.76C232.203 136.76 236.34 136.363 240.42 135.57C244.613 134.663 249.09 133.473 253.85 132C258.61 130.413 263.427 128.43 268.3 126.05C273.173 123.557 277.65 120.78 281.73 117.72C285.81 114.547 289.097 111.203 291.59 107.69C294.083 104.063 295.33 100.437 295.33 96.81C295.33 92.73 293.63 89.2167 290.23 86.27C286.83 83.21 282.353 80.7167 276.8 78.79C271.247 76.8633 265.24 75.39 258.78 74.37C252.32 73.2367 246.087 72.5 240.08 72.16L234.64 89.16C232.713 94.0333 229.993 99.7 226.48 106.16C222.967 112.62 218.66 119.873 213.56 127.92L209.82 133.7C210.613 134.153 211.463 134.55 212.37 134.89C213.39 135.117 214.467 135.343 215.6 135.57C217.753 136.023 219.85 136.363 221.89 136.59C223.93 136.703 225.97 136.76 228.01 136.76Z" fill="#7C5395"/>
<path d="M314.309 175.35C309.436 175.35 306.092 174.103 304.279 171.61C302.466 169.003 301.559 165.547 301.559 161.24C301.559 156.48 303.032 150.813 305.979 144.24C307.112 141.633 308.302 139.31 309.549 137.27C310.796 135.117 312.099 133.133 313.459 131.32C313.006 131.433 312.609 131.49 312.269 131.49C311.929 131.49 311.589 131.49 311.249 131.49C308.529 131.49 306.262 129.563 304.449 125.71L291.869 142.03C285.182 150.757 281.102 155.12 279.629 155.12C279.062 155.12 278.779 154.893 278.779 154.44C278.779 153.873 279.062 153.137 279.629 152.23C279.969 151.55 280.649 150.643 281.669 149.51C285.976 144.523 289.942 139.593 293.569 134.72C297.196 129.847 300.199 125.087 302.579 120.44C305.186 110.58 308.472 105.65 312.439 105.65C315.046 105.65 316.349 106.84 316.349 109.22C316.349 111.373 314.932 114.207 312.099 117.72C309.379 121.233 308.019 123.047 308.019 123.16C308.019 125.54 309.776 126.73 313.289 126.73C315.329 126.73 317.596 125.993 320.089 124.52L324.509 121.8C324.736 121.687 325.076 121.63 325.529 121.63C326.889 121.63 328.079 122.197 329.099 123.33C330.119 124.463 330.459 125.483 330.119 126.39L318.389 141.18C311.136 150.473 307.509 157.953 307.509 163.62C307.509 168.72 310.002 171.27 314.989 171.27C318.389 171.27 322.016 170.25 325.869 168.21C329.836 166.17 333.632 163.677 337.259 160.73C340.999 157.67 344.116 154.723 346.609 151.89L350.689 147.13C350.916 146.903 351.199 146.62 351.539 146.28C351.879 145.94 352.162 145.77 352.389 145.77C353.182 145.77 353.579 146.167 353.579 146.96C353.579 147.187 353.466 147.583 353.239 148.15C353.012 148.717 352.616 149.34 352.049 150.02L346.609 156.14C344.002 159.087 340.772 162.09 336.919 165.15C333.179 168.097 329.269 170.533 325.189 172.46C321.222 174.387 317.596 175.35 314.309 175.35Z" fill="#7C5395"/>
<path d="M353.843 174.84C351.01 174.84 348.8 173.537 347.213 170.93C345.626 168.21 344.833 165.603 344.833 163.11C344.833 156.31 349.763 146.79 359.623 134.55C369.596 122.197 377.643 116.02 383.763 116.02C389.543 116.02 392.433 119.08 392.433 125.2C392.433 126.107 392.32 127.07 392.093 128.09C391.98 129.11 391.81 130.187 391.583 131.32C391.81 131.66 392.376 131.83 393.283 131.83C396.343 131.83 399.97 130.753 404.163 128.6C404.05 130.527 399.573 133.303 390.733 136.93C391.98 140.67 388.24 147.81 379.513 158.35C370.56 169.343 362.91 174.84 356.563 174.84H353.843ZM356.903 169.74C361.776 169.74 368.01 165.263 375.603 156.31C382.97 147.583 386.653 141.293 386.653 137.44C384.84 136.42 382.573 133.813 379.853 129.62C376 129.62 370.446 134.267 363.193 143.56C356.053 152.627 352.596 159.597 352.823 164.47C352.936 167.983 354.296 169.74 356.903 169.74Z" fill="#7C5395"/>
<path d="M429.706 115.68C427.779 115.68 426.079 115.113 424.606 113.98C423.246 112.733 422.566 111.317 422.566 109.73C422.566 106.443 424.719 104.8 429.026 104.8C430.612 104.8 432.199 105.367 433.786 106.5C435.372 107.633 436.166 108.993 436.166 110.58C436.166 111.94 435.429 113.13 433.956 114.15C432.482 115.17 431.066 115.68 429.706 115.68ZM363.066 209.35C359.666 209.35 356.549 208.273 353.716 206.12C350.769 203.853 349.296 201.587 349.296 199.32C349.296 197.167 349.806 196.09 350.826 196.09C350.939 196.09 352.072 197.507 354.226 200.34C356.492 203.287 359.099 204.76 362.046 204.76C371.112 204.76 381.426 194.503 392.986 173.99C396.499 167.643 399.446 161.92 401.826 156.82C404.319 151.607 406.246 146.96 407.606 142.88C406.586 144.013 405.112 145.543 403.186 147.47C401.259 149.283 399.389 150.927 397.576 152.4C395.876 153.76 394.629 154.44 393.836 154.44C393.496 154.44 393.326 154.27 393.326 153.93C393.326 152.91 394.062 151.72 395.536 150.36C397.689 148.547 400.239 145.543 403.186 141.35C406.472 136.703 408.342 134.153 408.796 133.7L414.406 127.75C416.672 125.597 418.939 124.52 421.206 124.52C424.266 124.52 425.796 125.767 425.796 128.26C425.796 128.713 423.812 132.453 419.846 139.48L412.366 152.4C403.639 169.06 396.896 180.677 392.136 187.25C381.822 201.983 372.132 209.35 363.066 209.35Z" fill="#7C5395"/>
<path d="M437.215 176.71C433.588 176.71 430.302 175.577 427.355 173.31C424.408 170.93 422.935 167.813 422.935 163.96C422.935 155.913 427.865 146.733 437.725 136.42C447.812 125.993 456.822 120.78 464.755 120.78C467.362 120.78 469.458 121.517 471.045 122.99C472.745 124.35 473.595 126.05 473.595 128.09C473.595 134.437 468.552 140.67 458.465 146.79C449.512 152.23 441.975 154.95 435.855 154.95C434.948 154.95 434.155 154.837 433.475 154.61C431.775 157.67 430.925 160.9 430.925 164.3C430.925 170.193 433.702 173.14 439.255 173.14C444.922 173.14 452.232 169.343 461.185 161.75C468.098 156.197 473.992 150.303 478.865 144.07C479.885 142.71 480.792 142.03 481.585 142.03C482.265 142.03 482.605 142.37 482.605 143.05C482.605 143.73 482.152 144.693 481.245 145.94C478.072 150.133 474.672 153.987 471.045 157.5C467.418 161.013 463.508 164.243 459.315 167.19C450.588 173.537 443.222 176.71 437.215 176.71ZM438.235 151.21C442.542 151.21 448.152 149.057 455.065 144.75C457.332 143.163 459.542 141.407 461.695 139.48C463.962 137.44 465.775 135.4 467.135 133.36C468.608 131.32 469.345 129.507 469.345 127.92C469.345 126.447 468.155 125.71 465.775 125.71C462.375 125.71 457.615 128.26 451.495 133.36C448.548 135.853 445.715 138.573 442.995 141.52C440.275 144.467 437.952 147.583 436.025 150.87C436.705 151.097 437.442 151.21 438.235 151.21Z" fill="#7C5395"/>
<path d="M485.127 176.71C481.5 176.71 478.214 175.577 475.267 173.31C472.32 170.93 470.847 167.813 470.847 163.96C470.847 155.913 475.777 146.733 485.637 136.42C495.724 125.993 504.734 120.78 512.667 120.78C515.387 120.78 517.54 121.517 519.127 122.99C520.714 124.35 521.507 126.05 521.507 128.09C521.507 130.923 520.827 133.53 519.467 135.91C517.88 138.857 515.614 140.33 512.667 140.33C509.72 140.33 508.247 139.423 508.247 137.61C508.247 136.363 508.984 134.493 510.457 132C512.044 129.393 512.837 128.033 512.837 127.92C512.837 127.693 512.667 127.58 512.327 127.58C509.154 127.92 504.734 130.243 499.067 134.55C496.574 136.477 494.364 138.29 492.437 139.99C490.624 141.69 489.15 143.333 488.017 144.92L481.387 154.61C480.707 155.63 479.97 157.387 479.177 159.88C478.497 162.373 478.157 164.243 478.157 165.49C478.157 167.757 478.894 169.627 480.367 171.1C481.954 172.573 483.937 173.31 486.317 173.31C491.984 173.31 499.464 169.627 508.757 162.26C516.237 156.367 522.244 150.417 526.777 144.41C527.344 143.73 528.024 143.39 528.817 143.39C529.61 143.39 530.007 143.617 530.007 144.07C530.007 144.41 529.724 144.977 529.157 145.77C522.924 154.043 515.614 161.183 507.227 167.19C498.274 173.537 490.907 176.71 485.127 176.71Z" fill="#7C5395"/>
<path d="M530.891 175.52C527.265 175.52 524.375 174.67 522.221 172.97C520.181 171.157 519.161 167.983 519.161 163.45C519.161 160.843 519.955 157.557 521.542 153.59C523.128 149.51 525.112 145.147 527.492 140.5C529.872 135.853 532.252 131.263 534.632 126.73C533.158 127.07 531.855 127.24 530.721 127.24C527.321 127.24 525.622 125.937 525.622 123.33C525.622 122.083 526.075 121.12 526.982 120.44C528.002 119.76 528.908 119.363 529.701 119.25C529.701 119.25 529.815 119.25 530.042 119.25C530.382 119.25 530.778 119.193 531.232 119.08H541.091C543.131 116.473 545.228 113.697 547.382 110.75C550.442 106.897 552.878 104.63 554.692 103.95H555.201C555.995 103.95 557.128 104.347 558.602 105.14C560.415 106.16 561.322 107.18 561.322 108.2C561.322 109.673 558.602 113.47 553.161 119.59C554.181 119.703 555.655 119.76 557.581 119.76C559.508 119.76 561.888 119.76 564.721 119.76C566.081 119.76 568.008 119.76 570.502 119.76C573.108 119.76 575.772 119.76 578.492 119.76C581.325 119.647 583.762 119.59 585.802 119.59C587.842 119.477 588.975 119.42 589.202 119.42C589.542 119.533 589.711 119.703 589.711 119.93C589.711 120.95 583.025 122.31 569.651 124.01C562.058 125.03 556.221 125.823 552.141 126.39C548.175 126.957 546.022 127.297 545.682 127.41C544.095 128.77 542.168 131.093 539.901 134.38C537.635 137.667 535.368 141.35 533.102 145.43C530.835 149.51 528.908 153.42 527.322 157.16C525.848 160.787 525.112 163.62 525.112 165.66C525.112 167.473 525.791 169.003 527.151 170.25C528.511 171.383 530.721 171.95 533.781 171.95C535.821 171.95 538.258 171.497 541.091 170.59C543.925 169.683 546.588 168.663 549.081 167.53C551.688 166.283 553.558 165.32 554.692 164.64C557.638 162.827 560.868 160.447 564.382 157.5C568.008 154.44 571.578 150.983 575.091 147.13C576.678 145.543 577.755 144.75 578.322 144.75C578.662 144.75 578.831 144.977 578.831 145.43C578.831 146.337 577.981 147.81 576.281 149.85C573.561 153.137 570.502 156.31 567.102 159.37C563.815 162.317 560.132 165.037 556.052 167.53C551.405 170.363 546.928 172.403 542.622 173.65C538.428 174.897 534.518 175.52 530.891 175.52Z" fill="#7C5395"/>
<path d="M590.37 174.84C585.044 174.84 581.077 173.083 578.47 169.57C575.977 166.057 573.937 161.183 572.35 154.95C570.31 156.99 568.894 158.01 568.1 158.01C567.534 158.01 567.25 157.557 567.25 156.65C567.25 155.97 567.534 155.347 568.1 154.78C568.1 154.78 569.517 153.023 572.35 149.51C575.297 145.997 580.227 141.067 587.14 134.72L608.56 114.66C611.507 111.827 613.83 109.673 615.53 108.2C617.344 106.727 618.647 105.99 619.44 105.99C623.067 105.99 624.88 107.35 624.88 110.07C624.88 111.43 624.144 113.017 622.67 114.83C621.537 116.19 620.687 117.267 620.12 118.06C619.667 118.74 619.384 119.137 619.27 119.25C617.23 122.763 615.36 129.053 613.66 138.12C612.414 144.807 611.337 150.303 610.43 154.61C609.524 158.917 608.787 162.033 608.22 163.96C612.98 163.847 617.684 162.373 622.33 159.54C626.977 156.707 631.964 152.06 637.29 145.6C637.517 145.373 637.857 145.033 638.31 144.58C638.764 144.127 639.217 143.9 639.67 143.9C640.35 143.9 640.69 144.183 640.69 144.75C640.69 145.317 640.52 145.883 640.18 146.45C639.84 147.017 639.5 147.527 639.16 147.98C635.647 152.173 632.36 155.63 629.3 158.35C626.24 160.957 623.01 163.053 619.61 164.64C616.21 166.113 612.187 167.36 607.54 168.38L602.1 171.95C600.627 172.97 598.87 173.707 596.83 174.16C594.79 174.613 592.637 174.84 590.37 174.84ZM592.41 166.17C595.017 166.17 597.17 165.547 598.87 164.3C600.117 163.62 601.307 161.75 602.44 158.69C603.687 155.517 604.877 151.607 606.01 146.96C606.917 142.993 607.597 139.14 608.05 135.4C608.617 131.547 609.127 127.863 609.58 124.35L610.26 118.57C607.654 120.497 604.367 123.273 600.4 126.9C596.434 130.527 592.524 134.323 588.67 138.29C584.817 142.257 582.324 145.203 581.19 147.13C580.057 148.943 579.434 150.303 579.32 151.21C578.867 155.743 579.944 159.37 582.55 162.09C585.27 164.81 588.557 166.17 592.41 166.17Z" fill="#7C5395"/>
</svg>
