<svg width="36" height="36" viewBox="0 0 36 36" fill="none" xmlns="http://www.w3.org/2000/svg">
<path d="M15.5552 15.4695C15.5773 15.9139 15.443 16.3521 15.1756 16.7078C14.9082 17.0634 14.5245 17.3141 14.0914 17.4163C13.3273 17.6419 12.5304 17.736 11.7348 17.6944C11.5299 17.6944 11.5153 17.5626 11.5153 17.4163V13.6838C11.5153 13.5813 11.6177 13.4056 11.6763 13.4056C12.5136 13.3119 13.3609 13.3664 14.1793 13.5667C14.5911 13.6795 14.9521 13.9297 15.2023 14.2758C15.4525 14.6219 15.577 15.043 15.5552 15.4695Z" fill="white"/>
<path d="M25.1426 3.05704H10.5053C8.56428 3.05704 6.70275 3.82811 5.33023 5.20062C3.95772 6.57314 3.18665 8.43467 3.18665 10.3757V25.013C3.18665 26.9541 3.95772 28.8156 5.33023 30.1881C6.70275 31.5606 8.56428 32.3317 10.5053 32.3317H25.1426C27.0837 32.3317 28.9452 31.5606 30.3177 30.1881C31.6902 28.8156 32.4613 26.9541 32.4613 25.013V10.3757C32.4613 8.43467 31.6902 6.57314 30.3177 5.20062C28.9452 3.82811 27.0837 3.05704 25.1426 3.05704ZM16.3602 19.1581C15.6215 19.6273 14.7749 19.8994 13.9012 19.9485H11.9398C11.5299 19.9485 11.5299 19.9485 11.5299 20.3437V23.7396C11.5299 24.0323 11.4421 24.1201 11.1493 24.1201H9.21722C8.93911 24.1201 8.86593 24.0177 8.86593 23.7542V11.4149C8.86593 11.1222 8.86593 11.0344 9.23186 11.0344H13.8133C14.6496 11.057 15.4661 11.2939 16.1846 11.7223C16.8051 12.072 17.3218 12.5801 17.6818 13.1947C18.0418 13.8093 18.2323 14.5084 18.2338 15.2207C18.3185 15.9863 18.188 16.7603 17.857 17.4558C17.5261 18.1514 17.0077 18.7409 16.3602 19.1581ZM25.0255 23.9884C23.7526 24.4844 22.3589 24.5813 21.0295 24.2665C20.6304 24.1787 20.2401 24.0616 19.8586 23.9152C19.7997 23.8876 19.748 23.8469 19.7074 23.7961C19.6668 23.7453 19.6384 23.6859 19.6244 23.6225V21.4122C20.0928 21.5879 20.5319 21.7928 20.9856 21.9392C21.7461 22.1822 22.5512 22.2522 23.3422 22.1441C23.5003 22.1148 23.6516 22.066 23.796 21.9977C23.8818 21.9602 23.9564 21.901 24.0124 21.826C24.0685 21.751 24.1042 21.6628 24.116 21.5699C24.1278 21.477 24.1153 21.3826 24.0798 21.296C24.0442 21.2093 23.9868 21.1334 23.9131 21.0756C23.5783 20.8438 23.2201 20.6476 22.8446 20.4901C22.2444 20.1973 21.6297 19.9631 21.0588 19.6265C20.5434 19.3757 20.1226 18.9654 19.8589 18.4565C19.5952 17.9476 19.5027 17.3672 19.5951 16.8015C19.6695 16.257 19.8957 15.7446 20.2477 15.3226C20.5998 14.9007 21.0635 14.5864 21.5858 14.4156C22.5271 14.0973 23.5316 14.0119 24.5132 14.1668C24.9816 14.1668 25.4354 14.3424 25.9038 14.4302C26.1526 14.4302 26.2404 14.6352 26.2258 14.884V16.5966C26.2258 16.9186 26.1526 16.9479 25.8599 16.8308C24.9457 16.4075 23.9351 16.2357 22.9324 16.3331C22.7903 16.3496 22.6519 16.3892 22.5225 16.4502C22.4347 16.4847 22.3575 16.5415 22.2984 16.615C22.2393 16.6885 22.2004 16.7762 22.1856 16.8694C22.1708 16.9626 22.1806 17.058 22.214 17.1462C22.2475 17.2344 22.3034 17.3124 22.3762 17.3723C22.7997 17.6544 23.2437 17.8983 23.7082 18.1042C24.2644 18.3823 24.8499 18.6019 25.3915 18.9093C25.8829 19.1329 26.29 19.5077 26.5533 19.9791C26.8166 20.4504 26.9224 20.9936 26.8552 21.5293C26.8089 22.0638 26.6107 22.5738 26.2839 22.9991C25.9571 23.4245 25.5153 23.7475 25.0109 23.9299L25.0255 23.9884Z" fill="white"/>
</svg>
