<svg width="121" height="65" viewBox="0 0 121 65" fill="none" xmlns="http://www.w3.org/2000/svg">
<g clip-path="url(#clip0_38_21)">
<path d="M16.3523 50.0543C13.6245 50.0543 11.2687 49.5583 9.28484 48.5664C7.33198 47.5745 5.6736 46.2726 4.3097 44.6607L8.4014 40.7085C9.48632 42.0414 10.7262 43.0488 12.1211 43.7308C13.516 44.4127 15.0504 44.7537 16.7243 44.7537C18.6462 44.7537 20.0875 44.3352 21.0485 43.4983C22.0404 42.6303 22.5364 41.4989 22.5364 40.104C22.5364 39.3601 22.3969 38.7091 22.1179 38.1512C21.8389 37.5932 21.3739 37.1282 20.723 36.7563C20.072 36.3843 19.1731 36.1053 18.0262 35.9193L15.0039 35.4544C12.8341 35.0824 11.0207 34.5089 9.56382 33.734C8.13792 32.9281 7.0685 31.8741 6.35555 30.5722C5.64261 29.2703 5.28613 27.7514 5.28613 26.0156C5.28613 24.0627 5.7666 22.3888 6.72753 20.9939C7.68846 19.568 9.03686 18.4676 10.7727 17.6927C12.5396 16.8867 14.6164 16.4838 17.0033 16.4838C19.4521 16.4838 21.5909 16.9022 23.4198 17.7392C25.2487 18.5451 26.7985 19.723 28.0695 21.2729L23.9778 25.1786C23.1718 24.1557 22.1799 23.3343 21.002 22.7143C19.8551 22.0944 18.4137 21.7844 16.6778 21.7844C14.9109 21.7844 13.5625 22.1254 12.6326 22.8073C11.7337 23.4583 11.2842 24.4037 11.2842 25.6436C11.2842 26.4805 11.4392 27.178 11.7492 27.7359C12.0901 28.2629 12.6016 28.6814 13.2835 28.9913C13.9655 29.3013 14.8334 29.5648 15.8874 29.7818L18.9096 30.3397C21.1105 30.7117 22.9083 31.3007 24.3032 32.1066C25.7291 32.9126 26.7831 33.951 27.465 35.2219C28.1779 36.4618 28.5344 37.9807 28.5344 39.7786C28.5344 41.8244 28.054 43.6223 27.093 45.1722C26.1321 46.691 24.7372 47.8845 22.9083 48.7524C21.1105 49.6203 18.9251 50.0543 16.3523 50.0543ZM34.3163 49.4963V15.0889H40.1749V35.9193H40.4074L43.6622 31.5487L49.1488 25.2251H55.7513L47.3819 34.6174L56.6812 49.4963H49.7067L43.3832 38.5231L40.1749 42.0569V49.4963H34.3163ZM60.3344 49.4963V25.2251H66.193V49.4963H60.3344ZM63.2637 21.5984C62.0858 21.5984 61.2179 21.3194 60.6599 20.7615C60.102 20.2035 59.823 19.506 59.823 18.6691V17.7857C59.823 16.9177 60.102 16.2048 60.6599 15.6468C61.2179 15.0889 62.0858 14.8099 63.2637 14.8099C64.4726 14.8099 65.3406 15.0889 65.8675 15.6468C66.4255 16.2048 66.7045 16.9177 66.7045 17.7857V18.6691C66.7045 19.506 66.4255 20.2035 65.8675 20.7615C65.3406 21.3194 64.4726 21.5984 63.2637 21.5984ZM78.9988 49.4963C76.984 49.4963 75.4961 49.0004 74.5352 48.0084C73.5742 46.9855 73.0938 45.5596 73.0938 43.7308V15.0889H78.9523V44.8467H82.1606V49.4963H78.9988ZM92.303 49.4963C90.2882 49.4963 88.8003 49.0004 87.8394 48.0084C86.8784 46.9855 86.398 45.5596 86.398 43.7308V15.0889H92.2565V44.8467H95.4648V49.4963H92.303ZM107.971 50.0543C105.646 50.0543 103.693 49.6668 102.112 48.8919C100.531 48.0859 99.1366 46.9855 97.9277 45.5906L101.508 42.1499C102.407 43.1728 103.399 43.9787 104.484 44.5677C105.569 45.1567 106.809 45.4511 108.203 45.4511C109.629 45.4511 110.668 45.2032 111.319 44.7072C111.97 44.1802 112.295 43.4673 112.295 42.5683C112.295 41.8554 112.063 41.2819 111.598 40.848C111.133 40.414 110.358 40.1195 109.273 39.9645L106.855 39.6391C105.15 39.4221 103.693 39.0191 102.484 38.4302C101.275 37.8412 100.361 37.0508 99.741 36.0588C99.1211 35.0359 98.8111 33.796 98.8111 32.3391C98.8111 29.9523 99.648 28.0769 101.322 26.713C102.996 25.3491 105.212 24.6672 107.971 24.6672C109.552 24.6672 110.9 24.8222 112.016 25.1321C113.132 25.4111 114.108 25.8451 114.945 26.434C115.813 26.992 116.635 27.6739 117.41 28.4799L113.922 31.9206C113.241 31.1767 112.404 30.5567 111.412 30.0608C110.42 29.5338 109.319 29.2703 108.11 29.2703C106.839 29.2703 105.894 29.5183 105.274 30.0143C104.685 30.4792 104.391 31.0992 104.391 31.8741C104.391 32.7111 104.639 33.3465 105.135 33.7805C105.631 34.1835 106.468 34.4779 107.645 34.6639L110.063 34.9894C112.729 35.3614 114.697 36.1518 115.968 37.3607C117.239 38.5386 117.875 40.135 117.875 42.1499C117.875 43.6998 117.472 45.0792 116.666 46.2881C115.86 47.466 114.713 48.3959 113.225 49.0779C111.737 49.7288 109.986 50.0543 107.971 50.0543Z" fill="white"/>
<path d="M41.9438 59.7264C40.8716 59.7264 39.538 59.0857 37.9428 57.8043C36.8184 57.6213 35.8508 57.3729 35.0402 57.0591C34.2557 56.7714 33.6019 56.4184 33.0789 56C32.3467 55.3724 31.706 54.5356 31.1569 53.4896C30.6078 52.4436 30.3332 51.4368 30.3332 50.4693C30.3332 49.7371 30.5032 49.0833 30.8431 48.508C31.6276 47.1221 32.6213 46.4291 33.8242 46.4291C34.7394 46.4291 35.2755 47.2005 35.4324 48.7434C35.6155 50.1816 35.7593 51.3322 35.8639 52.1952C35.9946 53.032 36.0992 53.5811 36.1777 53.8426C36.5699 55.124 37.2368 56.2092 38.1782 57.0983C39.2765 57.3336 40.4663 57.4513 41.7476 57.4513C44.5718 57.4513 47.2783 56.9152 49.8672 55.8431C50.9655 55.3724 52.0376 54.7579 53.0836 53.9995C54.1296 53.2412 54.9926 52.4044 55.6725 51.4891C56.3524 50.5739 56.6923 49.6848 56.6923 48.8218C56.6923 47.5928 55.6071 46.6383 53.4367 45.9584L46.5331 44.3894C45.121 44.0756 43.9835 43.5265 43.1205 42.742C42.2837 41.9313 41.8653 41.0161 41.8653 39.9962C41.8653 38.4272 42.8459 36.8582 44.8072 35.2892C45.8009 34.4786 46.9645 33.7987 48.2982 33.2495C49.6318 32.6742 51.0309 32.2428 52.4953 31.9551C53.9858 31.6413 55.411 31.4844 56.7708 31.4844C58.7059 31.4844 60.3533 31.7851 61.7131 32.3866C63.0991 32.988 63.962 33.8641 64.302 35.0147C64.3804 35.2762 64.4196 35.5638 64.4196 35.8776C64.4196 37.4728 63.6221 38.5841 62.0269 39.2117C61.0594 39.604 60.2356 39.8001 59.5558 39.8001C59.1374 39.8001 58.8105 39.7217 58.5751 39.5648C58.5228 39.5125 58.4967 39.4471 58.4967 39.3686C58.4967 39.1856 58.8628 39.081 59.595 39.0548C60.0395 39.0287 60.4056 38.9895 60.6933 38.9372C60.9809 38.8849 61.1901 38.8326 61.3209 38.7803C62.3146 38.2573 62.8114 37.4858 62.8114 36.466C62.8114 35.943 62.6676 35.3938 62.3799 34.8185C61.5693 33.328 59.5427 32.5827 56.3001 32.5827C55.1233 32.5827 53.9074 32.7135 52.6522 32.975C51.397 33.2103 50.2071 33.5764 49.0827 34.0733C47.9582 34.544 47.0038 35.1454 46.2193 35.8776C44.8595 37.1328 44.1796 38.2573 44.1796 39.251C44.1796 40.0093 44.5457 40.6892 45.2779 41.2907C46.0362 41.8659 47.1737 42.2974 48.6904 42.5851L53.319 43.448C55.0972 43.788 56.5354 44.2979 57.6337 44.9778C58.732 45.6315 59.2812 46.6383 59.2812 47.9981C59.2812 49.201 58.9805 50.3255 58.379 51.3715C57.7776 52.4175 56.9669 53.3589 55.9471 54.1957C54.9534 55.0063 53.8158 55.6862 52.5345 56.2353C49.6318 57.5167 46.2062 58.1574 42.2576 58.1574C41.7607 58.1574 41.2639 58.1443 40.767 58.1181C40.2702 58.092 39.7864 58.0528 39.3157 58.0005C39.6818 58.2097 40.1394 58.4189 40.6886 58.6281C41.2639 58.8373 41.9176 59.0334 42.6498 59.2164C42.7283 59.2426 42.7675 59.2949 42.7675 59.3733C42.7675 59.6087 42.4929 59.7264 41.9438 59.7264ZM36.7661 56.706C36.06 55.9216 35.5109 55.1109 35.1186 54.2741C34.5433 52.9666 34.1118 51.3584 33.8242 49.4494C33.615 48.0635 33.3927 47.3705 33.1574 47.3705C32.9482 47.3705 32.6605 47.5274 32.2944 47.8412C31.9545 48.155 31.7845 48.8218 31.7845 49.8417C31.7845 51.8291 32.4905 53.555 33.9026 55.0194C34.6087 55.7516 35.5632 56.3138 36.7661 56.706ZM68.3832 56.4707C67.5202 56.4707 66.7488 56.2223 66.0689 55.7254C65.4152 55.2286 64.8399 54.601 64.343 53.8426C63.8723 53.0843 63.467 52.3259 63.1271 51.5676C62.944 51.8029 62.7479 52.1037 62.5387 52.4698C62.3556 52.8359 62.1334 53.2673 61.8719 53.7642L60.6559 56.1961C59.7145 55.83 59.2438 55.3332 59.2438 54.7056C59.2438 53.5811 60.9566 50.4562 64.3823 45.3308C67.7033 40.3623 69.9914 37.4335 71.2466 36.5444C71.3774 36.466 71.5866 36.4268 71.8742 36.4268C72.6849 36.4268 73.0902 36.636 73.0902 37.0544C73.0902 37.1328 72.9071 37.4205 72.541 37.9173C72.1749 38.388 71.7173 38.9633 71.1682 39.6432C70.619 40.3231 70.0568 41.0161 69.4815 41.7221C68.9323 42.402 68.4486 43.0035 68.0302 43.5265C67.6118 44.0233 67.3764 44.3371 67.3241 44.4679C69.7038 43.2388 71.5996 42.6243 73.0117 42.6243C73.5609 42.6243 74.0577 42.7812 74.5023 43.095C74.973 43.4088 75.3391 43.788 75.6006 44.2325C75.8621 44.6771 75.9667 45.1085 75.9144 45.5269C75.7052 47.0175 74.6592 48.2465 72.7764 49.2141C71.2597 50.0247 69.8737 50.4301 68.6185 50.4301C67.2587 50.4301 66.3174 50.2601 65.7944 49.9201C65.6375 49.894 65.5067 49.9332 65.4021 50.0378C65.3237 50.1163 65.3106 50.247 65.3629 50.4301C66.0951 53.6727 67.311 55.294 69.0108 55.294C69.8476 55.294 70.959 54.8102 72.3449 53.8426C73.757 52.8751 75.2476 51.463 76.8166 49.6063C76.9996 49.4233 77.1696 49.3318 77.3265 49.3318C77.4572 49.3318 77.5226 49.4102 77.5226 49.5671C77.5226 49.6979 77.4311 49.894 77.248 50.1555C76.4897 51.0707 75.6006 52.0252 74.5807 53.0189C73.587 53.9865 72.5541 54.8102 71.482 55.4901C70.4098 56.1438 69.3769 56.4707 68.3832 56.4707ZM66.1082 49.4102C67.2849 49.4102 68.8277 48.9264 70.7367 47.9589C72.9333 46.8606 74.0316 45.6969 74.0316 44.4679C74.0316 44.2587 73.9139 44.0495 73.6786 43.8403C73.4432 43.6311 73.1948 43.5265 72.9333 43.5265C71.5212 43.5265 69.8737 44.0756 67.9909 45.1739C65.9251 46.4291 64.6699 47.802 64.2254 49.2925C64.513 49.2925 64.8791 49.3187 65.3237 49.371C65.7944 49.3971 66.0559 49.4102 66.1082 49.4102ZM84.448 42.5066C84.0034 42.5066 83.6112 42.3628 83.2712 42.0751C82.9574 41.7875 82.8005 41.4606 82.8005 41.0945C82.8005 40.3623 83.2974 39.9962 84.2911 39.9962C84.6572 39.9962 85.0233 40.127 85.3894 40.3885C85.7555 40.6238 85.9385 40.9246 85.9385 41.2907C85.9385 41.6045 85.7685 41.8921 85.4286 42.1536C85.0886 42.3889 84.7618 42.5066 84.448 42.5066ZM77.1913 56.4315C76.616 56.4315 76.1453 56.2484 75.7792 55.8823C75.387 55.4901 75.1909 54.8102 75.1909 53.8426C75.1909 53.2935 75.3216 52.6659 75.5831 51.9598C75.8185 51.2276 76.1192 50.4954 76.4853 49.7632C76.8775 49.031 77.2567 48.3773 77.6228 47.802C79.0872 45.4223 80.2901 44.2194 81.2315 44.1933C81.4669 44.1933 81.7545 44.2979 82.0945 44.5071C82.4344 44.6901 82.6044 44.8993 82.6044 45.1347C82.6044 45.1347 81.6107 46.416 79.6233 48.9787C77.662 51.5153 76.6814 53.3196 76.6814 54.3918C76.6814 55.2286 77.0083 55.647 77.662 55.647C78.0804 55.647 78.6165 55.477 79.2703 55.1371C79.9502 54.771 80.6562 54.3133 81.3884 53.7642C82.1206 53.215 82.8136 52.6267 83.4673 51.9991C84.1472 51.3715 84.6964 50.7962 85.1148 50.2732C85.3763 49.9332 85.5986 49.6979 85.7816 49.5671C85.9908 49.4364 86.1216 49.371 86.1739 49.371C86.2785 49.371 86.3308 49.4494 86.3308 49.6063C86.3308 49.7371 86.1739 49.9986 85.8601 50.3908C85.5724 50.7831 85.1671 51.2407 84.6441 51.7637C84.0165 52.3913 83.3235 53.0712 82.5652 53.8034C81.8068 54.5356 80.9831 55.1632 80.094 55.6862C79.2049 56.183 78.2373 56.4315 77.1913 56.4315ZM87.6089 56.0784C86.8506 56.0784 86.1445 55.8954 85.4908 55.5293C84.837 55.1371 84.5102 54.4964 84.5102 53.6073C84.5102 52.3782 84.9416 50.9138 85.8046 49.2141C86.6937 47.5143 87.7005 45.7492 88.8249 43.9187C91.8844 38.9502 94.0549 36.466 95.3362 36.466C95.5977 36.466 95.8592 36.5706 96.1207 36.7798C96.4084 36.9628 96.5653 37.172 96.5914 37.4074L93.8457 41.0945C92.7735 42.5328 91.806 43.8664 90.943 45.0955C90.0801 46.2984 89.3348 47.3836 88.7072 48.3511C88.3934 48.848 88.0404 49.4102 87.6482 50.0378C87.2559 50.6654 86.9029 51.3192 86.5891 51.9991C86.3014 52.6528 86.1576 53.3196 86.1576 53.9995C86.1576 54.3133 86.2491 54.601 86.4322 54.8625C86.6152 55.0978 86.9421 55.2155 87.4128 55.2155C88.2496 55.2155 89.3479 54.771 90.7077 53.8819C92.0675 52.9666 93.4142 51.7114 94.7479 50.1163C94.8786 49.9594 95.0224 49.8155 95.1793 49.6848C95.3362 49.554 95.467 49.4887 95.5716 49.4887C95.7023 49.4887 95.7677 49.5671 95.7677 49.724C95.7677 49.8025 95.6762 49.9594 95.4931 50.1947C95.3362 50.4039 95.2055 50.5739 95.1009 50.7046L94.1595 51.7637C93.6365 52.339 93.0089 52.9666 92.2767 53.6465C91.5706 54.3264 90.8123 54.9017 90.0017 55.3724C89.2172 55.8431 88.4196 56.0784 87.6089 56.0784ZM97.147 56.0784C96.3887 56.0784 95.6826 55.8954 95.0289 55.5293C94.3751 55.1371 94.0483 54.4964 94.0483 53.6073C94.0483 52.3782 94.4797 50.9138 95.3427 49.2141C96.2318 47.5143 97.2385 45.7492 98.363 43.9187C101.423 38.9502 103.593 36.466 104.874 36.466C105.136 36.466 105.397 36.5706 105.659 36.7798C105.946 36.9628 106.103 37.172 106.13 37.4074L103.384 41.0945C102.312 42.5328 101.344 43.8664 100.481 45.0955C99.6182 46.2984 98.8729 47.3836 98.2453 48.3511C97.9315 48.848 97.5785 49.4102 97.1862 50.0378C96.794 50.6654 96.441 51.3192 96.1272 51.9991C95.8395 52.6528 95.6957 53.3196 95.6957 53.9995C95.6957 54.3133 95.7872 54.601 95.9703 54.8625C96.1533 55.0978 96.4802 55.2155 96.9509 55.2155C97.7877 55.2155 98.886 54.771 100.246 53.8819C101.606 52.9666 102.952 51.7114 104.286 50.1163C104.417 49.9594 104.561 49.8155 104.717 49.6848C104.874 49.554 105.005 49.4887 105.11 49.4887C105.24 49.4887 105.306 49.5671 105.306 49.724C105.306 49.8025 105.214 49.9594 105.031 50.1947C104.874 50.4039 104.744 50.5739 104.639 50.7046L103.698 51.7637C103.175 52.339 102.547 52.9666 101.815 53.6465C101.109 54.3264 100.35 54.9017 99.5397 55.3724C98.7552 55.8431 97.9577 56.0784 97.147 56.0784ZM108.215 56.0784C106.986 56.0784 106.071 55.6731 105.469 54.8625C104.894 54.0518 104.423 52.9274 104.057 51.4891C103.586 51.9598 103.259 52.1952 103.076 52.1952C102.946 52.1952 102.88 52.0906 102.88 51.8814C102.88 51.7245 102.946 51.5807 103.076 51.4499C103.076 51.4499 103.403 51.0446 104.057 50.2339C104.737 49.4233 105.874 48.2858 107.47 46.8214L112.412 42.1928C113.092 41.5391 113.628 41.0422 114.02 40.7023C114.439 40.3623 114.739 40.1924 114.922 40.1924C115.759 40.1924 116.178 40.5062 116.178 41.1338C116.178 41.4476 116.008 41.8136 115.668 42.232C115.406 42.5458 115.21 42.7943 115.079 42.9773C114.975 43.1342 114.909 43.2257 114.883 43.2519C114.412 44.0625 113.981 45.5139 113.589 47.6059C113.301 49.1487 113.053 50.417 112.843 51.4107C112.634 52.4044 112.464 53.1235 112.334 53.5681C113.432 53.5419 114.517 53.202 115.589 52.5482C116.661 51.8945 117.812 50.8223 119.041 49.3318C119.093 49.2795 119.172 49.201 119.276 49.0964C119.381 48.9918 119.486 48.9395 119.59 48.9395C119.747 48.9395 119.825 49.0049 119.825 49.1356C119.825 49.2664 119.786 49.3971 119.708 49.5279C119.629 49.6586 119.551 49.7763 119.472 49.8809C118.662 50.8485 117.903 51.646 117.197 52.2736C116.491 52.8751 115.746 53.3589 114.962 53.725C114.177 54.0649 113.249 54.3526 112.177 54.5879L110.921 55.4116C110.581 55.647 110.176 55.817 109.705 55.9216C109.235 56.0261 108.738 56.0784 108.215 56.0784ZM108.686 54.078C109.287 54.078 109.784 53.9342 110.176 53.6465C110.464 53.4896 110.738 53.0581 111 52.3521C111.288 51.6199 111.562 50.7177 111.824 49.6456C112.033 48.7303 112.19 47.8412 112.294 46.9783C112.425 46.0892 112.543 45.2393 112.647 44.4286L112.804 43.095C112.203 43.5395 111.444 44.1802 110.529 45.017C109.614 45.8538 108.712 46.7298 107.823 47.6451C106.934 48.5603 106.358 49.2402 106.097 49.6848C105.835 50.1032 105.691 50.417 105.665 50.6262C105.561 51.6722 105.809 52.509 106.411 53.1366C107.038 53.7642 107.796 54.078 108.686 54.078Z" fill="#7C5395"/>
</g>
<defs>
<clipPath id="clip0_38_21">
<rect width="120.496" height="64.9927" fill="white"/>
</clipPath>
</defs>
</svg>
