<svg width="199" height="65" viewBox="0 0 199 65" fill="none" xmlns="http://www.w3.org/2000/svg">
<g clip-path="url(#clip0_38_24)">
<g clip-path="url(#clip1_38_24)">
<path d="M13.856 50.0543C11.1282 50.0543 8.77235 49.5583 6.7885 48.5664C4.83564 47.5745 3.17727 46.2726 1.81337 44.6607L5.90507 40.7085C6.98999 42.0414 8.22989 43.0488 9.62479 43.7308C11.0197 44.4127 12.5541 44.7537 14.228 44.7537C16.1498 44.7537 17.5912 44.3352 18.5521 43.4983C19.5441 42.6303 20.04 41.4989 20.04 40.104C20.04 39.3601 19.9005 38.7091 19.6216 38.1512C19.3426 37.5932 18.8776 37.1282 18.2267 36.7563C17.5757 36.3843 16.6768 36.1053 15.5299 35.9193L12.5076 35.4544C10.3377 35.0824 8.52437 34.5089 7.06748 33.734C5.64159 32.9281 4.57216 31.8741 3.85922 30.5722C3.14627 29.2703 2.78979 27.7514 2.78979 26.0156C2.78979 24.0627 3.27026 22.3888 4.23119 20.9939C5.19212 19.568 6.54052 18.4676 8.27639 17.6927C10.0433 16.8867 12.1201 16.4838 14.5069 16.4838C16.9558 16.4838 19.0946 16.9022 20.9235 17.7392C22.7523 18.5451 24.3022 19.723 25.5731 21.2729L21.4814 25.1786C20.6755 24.1557 19.6836 23.3343 18.5056 22.7143C17.3587 22.0944 15.9173 21.7844 14.1815 21.7844C12.4146 21.7844 11.0662 22.1254 10.1363 22.8073C9.23732 23.4583 8.78785 24.4037 8.78785 25.6436C8.78785 26.4805 8.94284 27.178 9.25282 27.7359C9.59379 28.2629 10.1053 28.6814 10.7872 28.9913C11.4692 29.3013 12.3371 29.5648 13.391 29.7818L16.4133 30.3397C18.6141 30.7117 20.412 31.3007 21.8069 32.1066C23.2328 32.9126 24.2867 33.951 24.9687 35.2219C25.6816 36.4618 26.0381 37.9807 26.0381 39.7786C26.0381 41.8244 25.5576 43.6223 24.5967 45.1722C23.6358 46.691 22.2409 47.8845 20.412 48.7524C18.6141 49.6203 16.4288 50.0543 13.856 50.0543ZM41.4448 50.0543C39.151 50.0543 37.1671 49.5428 35.4932 48.5199C33.8194 47.466 32.5175 45.9936 31.5875 44.1027C30.6886 42.1809 30.2391 39.9335 30.2391 37.3607C30.2391 34.7569 30.6886 32.5096 31.5875 30.6187C32.5175 28.7279 33.8194 27.271 35.4932 26.248C37.1671 25.1941 39.151 24.6672 41.4448 24.6672C43.7696 24.6672 45.769 25.1941 47.4429 26.248C49.1167 27.271 50.4031 28.7279 51.3021 30.6187C52.232 32.5096 52.697 34.7569 52.697 37.3607C52.697 39.9335 52.232 42.1809 51.3021 44.1027C50.4031 45.9936 49.1167 47.466 47.4429 48.5199C45.769 49.5428 43.7696 50.0543 41.4448 50.0543ZM41.4448 45.3116C43.0257 45.3116 44.2811 44.8312 45.211 43.8703C46.141 42.8783 46.6059 41.4524 46.6059 39.5926V35.1289C46.6059 33.238 46.141 31.8121 45.211 30.8512C44.2811 29.8903 43.0257 29.4098 41.4448 29.4098C39.8949 29.4098 38.655 29.8903 37.7251 30.8512C36.7951 31.8121 36.3302 33.238 36.3302 35.1289V39.5926C36.3302 41.4524 36.7951 42.8783 37.7251 43.8703C38.655 44.8312 39.8949 45.3116 41.4448 45.3116ZM59.0027 49.4963V29.8748H55.4225V25.2251H59.0027V21.6914C59.0027 19.5835 59.5607 17.9562 60.6766 16.8092C61.8235 15.6623 63.4664 15.0889 65.6052 15.0889H69.7899V19.7385H64.8148V25.2251H69.7899V29.8748H64.8148V49.4963H59.0027ZM81.4435 49.4963C79.4596 49.4963 77.9407 48.9694 76.8868 47.9155C75.8329 46.8615 75.3059 45.3736 75.3059 43.4518V29.8748H71.6792V25.2251H73.5856C74.4535 25.2251 75.0425 25.0236 75.3524 24.6207C75.6934 24.2177 75.8639 23.5977 75.8639 22.7608V18.6226H81.118V25.2251H86.0931V29.8748H81.118V44.8467H85.7212V49.4963H81.4435ZM95.5817 49.4963L88.8862 25.2251H94.5123L96.9766 35.2684L98.9295 43.7308H99.069L101.347 35.2684L104.23 25.2251H109.531L112.46 35.2684L114.785 43.7308H114.924L116.877 35.2684L119.295 25.2251H124.735L118.086 49.4963H111.763L108.647 38.7556L106.834 32.1066H106.694L104.881 38.7556L101.812 49.4963H95.5817ZM134.763 50.0543C132.283 50.0543 130.361 49.4033 128.997 48.1014C127.664 46.7685 126.998 45.0327 126.998 42.8938C126.998 41.2199 127.401 39.8405 128.207 38.7556C129.044 37.6707 130.237 36.8493 131.787 36.2913C133.337 35.7334 135.212 35.4544 137.413 35.4544H141.551V33.641C141.551 32.3081 141.179 31.2542 140.435 30.4792C139.722 29.7043 138.56 29.3168 136.948 29.3168C135.584 29.3168 134.468 29.6268 133.6 30.2468C132.732 30.8667 132.004 31.5952 131.415 32.4321L127.974 29.3168C128.842 27.9219 130.02 26.806 131.508 25.9691C132.996 25.1011 134.949 24.6672 137.367 24.6672C140.621 24.6672 143.101 25.4266 144.806 26.9455C146.511 28.4334 147.363 30.5567 147.363 33.3155V44.8467H149.828V49.4963H146.573C145.364 49.4963 144.387 49.1709 143.644 48.5199C142.931 47.838 142.45 46.939 142.202 45.8231L142.109 45.3581H141.83C141.427 46.877 140.59 48.0394 139.319 48.8454C138.079 49.6513 136.561 50.0543 134.763 50.0543ZM136.669 45.8231C137.599 45.8231 138.42 45.6836 139.133 45.4046C139.877 45.1257 140.466 44.7227 140.9 44.1957C141.334 43.6688 141.551 43.0178 141.551 42.2429V38.9881H137.692C136.08 38.9881 134.887 39.2516 134.112 39.7786C133.337 40.3055 132.949 41.065 132.949 42.0569V42.8473C132.949 43.8083 133.275 44.5522 133.926 45.0792C134.577 45.5751 135.491 45.8231 136.669 45.8231ZM154.6 49.4963V25.2251H160.459V30.2468H160.691C160.908 29.3788 161.28 28.5729 161.807 27.8289C162.334 27.054 163.031 26.434 163.899 25.9691C164.767 25.4731 165.852 25.2251 167.154 25.2251H168.41V30.7582H166.55C165.217 30.7582 164.085 30.8977 163.155 31.1767C162.256 31.4247 161.575 31.8276 161.11 32.3856C160.676 32.9436 160.459 33.672 160.459 34.5709V49.4963H154.6ZM182.392 50.0543C180.005 50.0543 177.959 49.5428 176.254 48.5199C174.549 47.466 173.248 45.9936 172.349 44.1027C171.45 42.1809 171 39.9335 171 37.3607C171 34.7879 171.434 32.5561 172.302 30.6652C173.201 28.7744 174.487 27.302 176.161 26.248C177.835 25.1941 179.85 24.6672 182.206 24.6672C184.717 24.6672 186.778 25.2251 188.39 26.341C190.033 27.457 191.242 28.9448 192.017 30.8047C192.823 32.6336 193.226 34.6639 193.226 36.8958V38.8486H177.045V39.4531C177.045 41.2199 177.541 42.6458 178.533 43.7308C179.556 44.8157 181.044 45.3581 182.996 45.3581C184.484 45.3581 185.709 45.0482 186.67 44.4282C187.631 43.8083 188.467 43.0178 189.18 42.0569L192.389 45.5441C191.397 46.908 190.033 48.0084 188.297 48.8454C186.592 49.6513 184.624 50.0543 182.392 50.0543ZM177.045 35.2219H187.135V34.7569C187.135 33.61 186.949 32.6181 186.577 31.7811C186.205 30.9442 185.662 30.2933 184.949 29.8283C184.236 29.3323 183.353 29.0843 182.299 29.0843C181.245 29.0843 180.315 29.3323 179.509 29.8283C178.734 30.2933 178.13 30.9597 177.696 31.8276C177.262 32.6956 177.045 33.703 177.045 34.8499V35.2219Z" fill="white"/>
<path d="M79.9438 59.7264C78.8716 59.7264 77.538 59.0857 75.9428 57.8043C74.8184 57.6213 73.8508 57.3729 73.0402 57.0591C72.2557 56.7714 71.6019 56.4184 71.0789 56C70.3467 55.3724 69.706 54.5356 69.1569 53.4896C68.6078 52.4436 68.3332 51.4368 68.3332 50.4693C68.3332 49.7371 68.5032 49.0833 68.8431 48.508C69.6276 47.1221 70.6213 46.4291 71.8242 46.4291C72.7394 46.4291 73.2755 47.2005 73.4324 48.7434C73.6155 50.1816 73.7593 51.3322 73.8639 52.1952C73.9946 53.032 74.0992 53.5811 74.1777 53.8426C74.5699 55.124 75.2368 56.2092 76.1782 57.0983C77.2765 57.3336 78.4663 57.4513 79.7476 57.4513C82.5718 57.4513 85.2783 56.9152 87.8672 55.8431C88.9655 55.3724 90.0376 54.7579 91.0836 53.9995C92.1296 53.2412 92.9926 52.4044 93.6725 51.4891C94.3524 50.5739 94.6923 49.6848 94.6923 48.8218C94.6923 47.5928 93.6071 46.6383 91.4367 45.9584L84.5331 44.3894C83.121 44.0756 81.9835 43.5265 81.1205 42.742C80.2837 41.9313 79.8653 41.0161 79.8653 39.9962C79.8653 38.4272 80.8459 36.8582 82.8072 35.2892C83.8009 34.4786 84.9645 33.7987 86.2982 33.2495C87.6318 32.6742 89.0309 32.2428 90.4953 31.9551C91.9858 31.6413 93.411 31.4844 94.7708 31.4844C96.7059 31.4844 98.3533 31.7851 99.7131 32.3866C101.099 32.988 101.962 33.8641 102.302 35.0147C102.38 35.2762 102.42 35.5638 102.42 35.8776C102.42 37.4728 101.622 38.5841 100.027 39.2117C99.0594 39.604 98.2356 39.8001 97.5558 39.8001C97.1374 39.8001 96.8105 39.7217 96.5751 39.5648C96.5228 39.5125 96.4967 39.4471 96.4967 39.3686C96.4967 39.1856 96.8628 39.081 97.595 39.0548C98.0395 39.0287 98.4056 38.9895 98.6933 38.9372C98.9809 38.8849 99.1901 38.8326 99.3209 38.7803C100.315 38.2573 100.811 37.4858 100.811 36.466C100.811 35.943 100.668 35.3938 100.38 34.8185C99.5693 33.328 97.5427 32.5827 94.3001 32.5827C93.1233 32.5827 91.9074 32.7135 90.6522 32.975C89.397 33.2103 88.2071 33.5764 87.0827 34.0733C85.9582 34.544 85.0038 35.1454 84.2193 35.8776C82.8595 37.1328 82.1796 38.2573 82.1796 39.251C82.1796 40.0093 82.5457 40.6892 83.2779 41.2907C84.0362 41.8659 85.1737 42.2974 86.6904 42.5851L91.319 43.448C93.0972 43.788 94.5354 44.2979 95.6337 44.9778C96.732 45.6315 97.2812 46.6383 97.2812 47.9981C97.2812 49.201 96.9805 50.3255 96.379 51.3715C95.7776 52.4175 94.9669 53.3589 93.9471 54.1957C92.9534 55.0063 91.8158 55.6862 90.5345 56.2353C87.6318 57.5167 84.2062 58.1574 80.2576 58.1574C79.7607 58.1574 79.2639 58.1443 78.767 58.1181C78.2702 58.092 77.7864 58.0528 77.3157 58.0005C77.6818 58.2097 78.1394 58.4189 78.6886 58.6281C79.2639 58.8373 79.9176 59.0334 80.6498 59.2164C80.7283 59.2426 80.7675 59.2949 80.7675 59.3733C80.7675 59.6087 80.4929 59.7264 79.9438 59.7264ZM74.7661 56.706C74.06 55.9216 73.5109 55.1109 73.1186 54.2741C72.5433 52.9666 72.1118 51.3584 71.8242 49.4494C71.615 48.0635 71.3927 47.3705 71.1574 47.3705C70.9482 47.3705 70.6605 47.5274 70.2944 47.8412C69.9545 48.155 69.7845 48.8218 69.7845 49.8417C69.7845 51.8291 70.4905 53.555 71.9026 55.0194C72.6087 55.7516 73.5632 56.3138 74.7661 56.706ZM100.029 56.0784C99.375 56.0784 98.8651 55.7777 98.499 55.1763C98.1329 54.5487 97.9498 53.9472 97.9498 53.3719C97.9498 51.8029 99.0874 49.6063 101.362 46.7821C103.664 43.9318 105.52 42.5066 106.932 42.5066C108.266 42.5066 108.933 43.2127 108.933 44.6248C108.933 44.834 108.907 45.0562 108.854 45.2916C108.828 45.5269 108.789 45.7754 108.737 46.0369C108.789 46.1153 108.92 46.1545 109.129 46.1545C109.835 46.1545 110.672 45.9061 111.639 45.4093C111.613 45.8538 110.58 46.4945 108.541 47.3313C108.828 48.1942 107.965 49.8417 105.952 52.2736C103.886 54.8102 102.121 56.0784 100.656 56.0784H100.029ZM100.735 54.9017C101.859 54.9017 103.298 53.8688 105.05 51.8029C106.749 49.7894 107.599 48.3381 107.599 47.449C107.181 47.2136 106.658 46.6122 106.03 45.6446C105.141 45.6446 103.86 46.7168 102.186 48.8611C100.539 50.9531 99.7411 52.5613 99.7934 53.6857C99.8196 54.4964 100.133 54.9017 100.735 54.9017ZM102.706 64.0411C101.921 64.0411 101.255 63.7142 100.705 63.0605C100.156 62.4067 99.8686 61.7007 99.8424 60.9423C99.9209 60.6285 100.039 60.4716 100.195 60.4716C100.352 60.4716 100.444 60.6678 100.47 61.06C100.496 61.4784 100.705 61.8837 101.098 62.276C101.49 62.6682 101.882 62.8644 102.274 62.8644C104.497 62.8644 106.524 61.4915 108.354 58.7457C108.851 58.0135 109.466 56.9545 110.198 55.5685C110.93 54.1564 111.741 52.3913 112.63 50.2732L114.748 45.1739C112.133 45.1478 110.825 44.834 110.825 44.2325C110.825 43.9449 110.956 43.7226 111.218 43.5657C111.479 43.3826 111.688 43.2911 111.845 43.2911C111.871 43.2911 112.198 43.3042 112.826 43.3303C113.453 43.3303 114.356 43.3434 115.532 43.3696C118.095 37.6689 120.449 34.8185 122.593 34.8185C123.43 34.8185 124.253 35.2108 125.064 35.9953C125.273 36.2045 125.378 36.4791 125.378 36.819C125.378 37.6297 125.143 38.035 124.672 38.035C124.541 38.035 124.41 37.9304 124.28 37.7212C124.175 37.5381 124.005 37.3943 123.77 37.2897C123.534 37.159 123.312 37.0936 123.103 37.0936C122.318 37.0936 121.625 37.3943 121.024 37.9958C120.449 38.5711 119.899 39.3294 119.376 40.2708C118.88 41.2122 118.344 42.2451 117.768 43.3696H118.239C121.089 43.3696 122.985 43.3303 123.927 43.2519C124.031 43.278 124.083 43.3303 124.083 43.4088C124.083 43.618 123.155 43.9056 121.298 44.2717C120.566 44.3763 119.847 44.494 119.141 44.6248C118.435 44.7555 117.716 44.8863 116.984 45.017C116.644 45.7492 116.225 46.6252 115.729 47.6451C115.232 48.6388 114.669 49.7502 114.042 50.9792C112.813 53.2804 111.806 55.1109 111.022 56.4707C110.237 57.8305 109.688 58.7327 109.374 59.1772C107.099 62.4198 104.876 64.0411 102.706 64.0411ZM121.306 56.2353C120.469 56.2353 119.802 56.0392 119.305 55.647C118.835 55.2286 118.599 54.4964 118.599 53.4504C118.599 52.8489 118.782 52.0906 119.148 51.1753C119.515 50.2339 119.972 49.2272 120.521 48.155C121.07 47.0829 121.62 46.0238 122.169 44.9778C121.829 45.0562 121.528 45.0955 121.267 45.0955C120.482 45.0955 120.09 44.7947 120.09 44.1933C120.09 43.9056 120.194 43.6834 120.404 43.5265C120.639 43.3696 120.848 43.278 121.031 43.2519C121.031 43.2519 121.057 43.2519 121.11 43.2519C121.188 43.2519 121.28 43.2388 121.384 43.2127H123.659C124.13 42.6112 124.614 41.9705 125.111 41.2907C125.817 40.4016 126.379 39.8786 126.797 39.7217H126.915C127.098 39.7217 127.36 39.8132 127.699 39.9962C128.118 40.2316 128.327 40.4669 128.327 40.7023C128.327 41.0422 127.699 41.9182 126.444 43.3303C126.68 43.3565 127.02 43.3696 127.464 43.3696C127.909 43.3696 128.458 43.3696 129.112 43.3696C129.425 43.3696 129.87 43.3696 130.445 43.3696C131.047 43.3696 131.661 43.3696 132.289 43.3696C132.943 43.3434 133.505 43.3303 133.975 43.3303C134.446 43.3042 134.708 43.2911 134.76 43.2911C134.838 43.3173 134.878 43.3565 134.878 43.4088C134.878 43.6441 133.335 43.9579 130.249 44.3502C128.497 44.5855 127.15 44.7686 126.209 44.8993C125.294 45.0301 124.797 45.1085 124.718 45.1347C124.352 45.4485 123.908 45.9846 123.385 46.7429C122.862 47.5013 122.339 48.3511 121.816 49.2925C121.293 50.2339 120.848 51.1361 120.482 51.9991C120.142 52.8359 119.972 53.4896 119.972 53.9603C119.972 54.3787 120.129 54.7317 120.443 55.0194C120.757 55.2809 121.267 55.4116 121.973 55.4116C122.443 55.4116 123.006 55.307 123.659 55.0978C124.313 54.8886 124.928 54.6533 125.503 54.3918C126.104 54.1041 126.536 53.8819 126.797 53.725C127.477 53.3066 128.222 52.7574 129.033 52.0775C129.87 51.3715 130.694 50.5739 131.504 49.6848C131.87 49.3187 132.119 49.1356 132.25 49.1356C132.328 49.1356 132.367 49.1879 132.367 49.2925C132.367 49.5017 132.171 49.8417 131.779 50.3124C131.151 51.0707 130.445 51.8029 129.661 52.509C128.902 53.1889 128.053 53.8165 127.111 54.3918C126.039 55.0455 125.006 55.5162 124.012 55.8039C123.045 56.0915 122.143 56.2353 121.306 56.2353ZM131.539 56.0784C131.277 56.0784 130.924 55.9346 130.48 55.647C130.009 55.3593 129.774 55.0848 129.774 54.8233C129.774 54.1957 130.545 52.1821 132.088 48.7826C133.735 45.1478 134.951 43.3303 135.736 43.3303C136.05 43.3303 136.311 43.4742 136.52 43.7618C136.756 44.0495 136.873 44.2848 136.873 44.4679C136.873 44.5463 136.154 45.8538 134.716 48.3904C133.304 50.9531 132.611 52.4959 132.637 53.0189C133.317 52.2083 133.984 51.4107 134.637 50.6262C135.291 49.8417 135.945 49.0441 136.599 48.2335C139.135 45.3047 140.796 43.8403 141.58 43.8403C141.868 43.8403 142.142 43.971 142.404 44.2325C142.692 44.4679 142.835 44.7032 142.835 44.9386C142.835 45.0955 142.509 45.5923 141.855 46.4291C141.096 47.4751 140.443 48.4688 139.894 49.4102C139.371 50.3516 139.109 51.3061 139.109 52.2736C139.109 53.9211 139.658 54.7448 140.756 54.7448C141.724 54.7448 142.535 54.4964 143.188 53.9995C143.868 53.5027 144.561 52.6005 145.267 51.293C145.79 50.3255 146.183 49.4233 146.444 48.5865C146.732 47.7235 146.876 46.9652 146.876 46.3114C146.876 45.7361 146.823 45.2524 146.719 44.8601C146.64 44.4679 146.523 44.141 146.366 43.8795C146.313 43.8272 146.287 43.7618 146.287 43.6834C146.287 43.5265 146.366 43.448 146.523 43.448C146.679 43.448 146.849 43.5003 147.032 43.6049C147.242 43.6834 147.438 43.9187 147.621 44.311C147.752 44.5202 147.856 44.9124 147.935 45.4877C148.039 46.063 148.092 46.5337 148.092 46.8998C148.092 48.7826 147.294 50.6785 145.699 52.5874C144.025 54.6271 142.221 55.647 140.286 55.647C139.632 55.647 139.07 55.4378 138.599 55.0194C138.155 54.5748 137.815 54.0388 137.579 53.4112C137.344 52.7574 137.226 52.1167 137.226 51.4891C137.226 50.6 137.435 49.4756 137.854 48.1158C137.514 48.4557 137.069 48.9395 136.52 49.5671C135.997 50.1686 135.396 50.9008 134.716 51.7637C133.958 52.7313 133.304 53.5681 132.755 54.2741C132.232 54.9802 131.826 55.5816 131.539 56.0784ZM150.767 56.1961C150.14 56.1961 149.512 55.9739 148.885 55.5293C148.257 55.0848 147.904 54.5618 147.826 53.9603C147.564 51.9468 148.832 49.554 151.63 46.7821C154.402 44.0102 156.9 42.6243 159.122 42.6243C159.724 42.6243 160.194 42.7681 160.534 43.0558C160.717 43.2388 160.848 43.4872 160.927 43.801C161.031 44.1148 161.11 44.2717 161.162 44.2717C161.267 44.2717 161.358 44.2587 161.437 44.2325C161.515 44.1802 161.607 44.1541 161.711 44.1541C162.025 44.1541 162.3 44.2717 162.535 44.5071C162.77 44.7424 162.901 44.9516 162.927 45.1347C162.953 45.187 162.117 46.4814 160.417 49.018C158.717 51.5022 157.946 53.1889 158.102 54.078C158.233 54.6794 158.521 54.9802 158.965 54.9802C160.325 54.9802 162.809 52.7313 166.418 48.2335C166.497 48.1289 166.575 48.0766 166.654 48.0766C166.784 48.0766 166.85 48.1681 166.85 48.3511C166.85 48.5603 166.732 48.8218 166.497 49.1356C163.176 53.6073 160.626 55.8431 158.848 55.8431C158.612 55.8431 158.39 55.8039 158.181 55.7254C157.03 55.2809 156.455 54.4179 156.455 53.1366C156.455 52.692 156.507 52.2475 156.612 51.8029L154.18 54.1564C153.448 54.8886 152.781 55.4116 152.18 55.7254C151.604 56.0392 151.134 56.1961 150.767 56.1961ZM150.414 55.3332C151.931 55.3332 153.997 53.6727 156.612 50.3516L160.77 44.6248C160.561 44.2587 160.221 44.0756 159.75 44.0756C158.155 44.0756 155.997 45.357 153.278 47.9197C150.454 50.5347 149.185 52.692 149.473 54.3918C149.604 55.0194 149.918 55.3332 150.414 55.3332ZM172.306 56.1961C171.182 56.1961 170.41 55.9085 169.992 55.3332C169.574 54.7317 169.364 53.9342 169.364 52.9405C169.364 51.8422 169.704 50.5347 170.384 49.018C170.646 48.4165 170.92 47.8804 171.208 47.4097C171.496 46.9129 171.796 46.4553 172.11 46.0369C172.005 46.063 171.914 46.0761 171.836 46.0761C171.757 46.0761 171.679 46.0761 171.6 46.0761C170.973 46.0761 170.45 45.6315 170.031 44.7424L167.129 48.508C165.586 50.5216 164.644 51.5284 164.304 51.5284C164.174 51.5284 164.108 51.4761 164.108 51.3715C164.108 51.2407 164.174 51.0707 164.304 50.8615C164.383 50.7046 164.54 50.4954 164.775 50.2339C165.769 49.0833 166.684 47.9458 167.521 46.8214C168.358 45.6969 169.051 44.5986 169.6 43.5265C170.201 41.2514 170.959 40.1139 171.875 40.1139C172.476 40.1139 172.777 40.3885 172.777 40.9376C172.777 41.4345 172.45 42.0882 171.796 42.8989C171.169 43.7095 170.855 44.1279 170.855 44.1541C170.855 44.7032 171.26 44.9778 172.071 44.9778C172.542 44.9778 173.065 44.8078 173.64 44.4679L174.66 43.8403C174.712 43.8141 174.79 43.801 174.895 43.801C175.209 43.801 175.483 43.9318 175.719 44.1933C175.954 44.4548 176.033 44.6901 175.954 44.8993L173.248 48.3119C171.574 50.4562 170.737 52.1821 170.737 53.4896C170.737 54.6664 171.313 55.2547 172.463 55.2547C173.248 55.2547 174.084 55.0194 174.974 54.5487C175.889 54.078 176.765 53.5027 177.602 52.8228C178.465 52.1167 179.184 51.4368 179.759 50.7831L180.7 49.6848C180.753 49.6325 180.818 49.5671 180.896 49.4887C180.975 49.4102 181.04 49.371 181.093 49.371C181.276 49.371 181.367 49.4625 181.367 49.6456C181.367 49.6979 181.341 49.7894 181.289 49.9201C181.236 50.0509 181.145 50.1947 181.014 50.3516L179.759 51.7637C179.157 52.4436 178.412 53.1366 177.523 53.8426C176.66 54.5225 175.758 55.0848 174.817 55.5293C173.901 55.9739 173.065 56.1961 172.306 56.1961ZM181.742 56.5099C180.905 56.5099 180.147 56.2484 179.467 55.7254C178.787 55.1763 178.447 54.4572 178.447 53.5681C178.447 51.7114 179.585 49.5933 181.86 47.2136C184.187 44.8078 186.266 43.6049 188.096 43.6049C188.698 43.6049 189.182 43.7749 189.548 44.1148C189.94 44.4286 190.136 44.8209 190.136 45.2916C190.136 46.756 188.972 48.1942 186.645 49.6063C184.579 50.8615 182.84 51.4891 181.428 51.4891C181.219 51.4891 181.036 51.463 180.879 51.4107C180.487 52.1167 180.291 52.862 180.291 53.6465C180.291 55.0063 180.931 55.6862 182.213 55.6862C183.52 55.6862 185.207 54.8102 187.273 53.0581C188.868 51.7768 190.228 50.417 191.352 48.9787C191.587 48.6649 191.797 48.508 191.98 48.508C192.137 48.508 192.215 48.5865 192.215 48.7434C192.215 48.9003 192.11 49.1226 191.901 49.4102C191.169 50.3778 190.385 51.2669 189.548 52.0775C188.711 52.8882 187.809 53.6334 186.841 54.3133C184.828 55.7777 183.128 56.5099 181.742 56.5099ZM181.977 50.6262C182.971 50.6262 184.265 50.1293 185.861 49.1356C186.384 48.7695 186.893 48.3642 187.39 47.9197C187.913 47.449 188.332 46.9783 188.646 46.5076C188.985 46.0369 189.155 45.6185 189.155 45.2524C189.155 44.9124 188.881 44.7424 188.332 44.7424C187.547 44.7424 186.449 45.3308 185.037 46.5076C184.357 47.0829 183.703 47.7105 183.076 48.3904C182.448 49.0703 181.912 49.7894 181.467 50.5477C181.624 50.6 181.794 50.6262 181.977 50.6262Z" fill="#7C5395"/>
</g>
</g>
<defs>
<clipPath id="clip0_38_24">
<rect width="198.496" height="64.9927" fill="white"/>
</clipPath>
<clipPath id="clip1_38_24">
<rect width="198.496" height="64.9927" fill="white"/>
</clipPath>
</defs>
</svg>
