<svg width="267" height="65" viewBox="0 0 267 65" fill="none" xmlns="http://www.w3.org/2000/svg">
<g clip-path="url(#clip0_38_18)">
<path d="M3.81272 49.5037V17.049H25.1546V22.3962H9.85728V30.4401H23.4343V35.7407H9.85728V44.1566H25.1546V49.5037H3.81272ZM28.7178 49.5037L37.0407 37.1821L28.9038 25.2324H35.5528L40.6209 33.3229H40.8069L45.8751 25.2324H52.0591L43.8757 37.2751L52.1521 49.5037H45.5031L40.2955 41.0878H40.1095L34.8554 49.5037H28.7178ZM56.4759 58.803V25.2324H62.3345V29.2776H62.5205C62.9544 27.8518 63.7759 26.7358 64.9848 25.9299C66.2247 25.093 67.6506 24.6745 69.2625 24.6745C71.3083 24.6745 73.0287 25.1705 74.4236 26.1624C75.8495 27.1543 76.9189 28.5957 77.6319 30.4866C78.3758 32.3774 78.7478 34.6713 78.7478 37.3681C78.7478 40.0339 78.3758 42.3277 77.6319 44.2495C76.9189 46.1404 75.8495 47.5818 74.4236 48.5737C73.0287 49.5657 71.3083 50.0616 69.2625 50.0616C67.6506 50.0616 66.2402 49.6432 65.0313 48.8062C63.8224 47.9693 62.9854 46.8534 62.5205 45.4585H62.3345V58.803H56.4759ZM67.4026 45.226C68.9525 45.226 70.2079 44.699 71.1688 43.6451C72.1608 42.5912 72.6567 41.1963 72.6567 39.4604V35.2757C72.6567 33.5398 72.1608 32.1449 71.1688 31.091C70.2079 30.0371 68.9525 29.5101 67.4026 29.5101C66.4417 29.5101 65.5737 29.6806 64.7988 30.0216C64.0239 30.3316 63.4194 30.781 62.9854 31.37C62.5515 31.959 62.3345 32.6409 62.3345 33.4158V41.2273C62.3345 42.0642 62.5515 42.7927 62.9854 43.4126C63.4194 44.0016 64.0239 44.451 64.7988 44.761C65.5737 45.071 66.4417 45.226 67.4026 45.226ZM94.1211 50.0616C91.7342 50.0616 89.6884 49.5502 87.9835 48.5272C86.2786 47.4733 84.9767 46.0009 84.0778 44.1101C83.1789 42.1882 82.7294 39.9409 82.7294 37.3681C82.7294 34.7952 83.1634 32.5634 84.0313 30.6725C84.9302 28.7817 86.2166 27.3093 87.8905 26.2554C89.5644 25.2014 91.5792 24.6745 93.9351 24.6745C96.4459 24.6745 98.5072 25.2324 100.119 26.3484C101.762 27.4643 102.971 28.9522 103.746 30.812C104.552 32.6409 104.955 34.6713 104.955 36.9031V38.8559H88.774V39.4604C88.774 41.2273 89.2699 42.6532 90.2618 43.7381C91.2848 44.823 92.7727 45.3655 94.7255 45.3655C96.2134 45.3655 97.4378 45.0555 98.3987 44.4355C99.3597 43.8156 100.197 43.0251 100.91 42.0642L104.118 45.5515C103.126 46.9154 101.762 48.0158 100.026 48.8527C98.3213 49.6587 96.3529 50.0616 94.1211 50.0616ZM88.774 35.2292H98.8637V34.7642C98.8637 33.6173 98.6777 32.6254 98.3058 31.7885C97.9338 30.9515 97.3913 30.3006 96.6784 29.8356C95.9654 29.3396 95.082 29.0917 94.0281 29.0917C92.9741 29.0917 92.0442 29.3396 91.2383 29.8356C90.4633 30.3006 89.8589 30.967 89.4249 31.835C88.9909 32.7029 88.774 33.7103 88.774 34.8572V35.2292ZM110.238 49.5037V25.2324H116.096V30.2541H116.329C116.546 29.3861 116.918 28.5802 117.445 27.8363C117.972 27.0613 118.669 26.4414 119.537 25.9764C120.405 25.4804 121.49 25.2324 122.792 25.2324H124.047V30.7655H122.187C120.854 30.7655 119.723 30.905 118.793 31.184C117.894 31.432 117.212 31.835 116.747 32.3929C116.313 32.9509 116.096 33.6793 116.096 34.5783V49.5037H110.238ZM128.446 49.5037V25.2324H134.304V49.5037H128.446ZM131.375 21.6057C130.197 21.6057 129.329 21.3267 128.771 20.7688C128.213 20.2108 127.934 19.5134 127.934 18.6764V17.793C127.934 16.9251 128.213 16.2121 128.771 15.6542C129.329 15.0962 130.197 14.8172 131.375 14.8172C132.584 14.8172 133.452 15.0962 133.979 15.6542C134.537 16.2121 134.816 16.9251 134.816 17.793V18.6764C134.816 19.5134 134.537 20.2108 133.979 20.7688C133.452 21.3267 132.584 21.6057 131.375 21.6057ZM151.016 50.0616C148.629 50.0616 146.583 49.5502 144.878 48.5272C143.173 47.4733 141.871 46.0009 140.973 44.1101C140.074 42.1882 139.624 39.9409 139.624 37.3681C139.624 34.7952 140.058 32.5634 140.926 30.6725C141.825 28.7817 143.111 27.3093 144.785 26.2554C146.459 25.2014 148.474 24.6745 150.83 24.6745C153.341 24.6745 155.402 25.2324 157.014 26.3484C158.657 27.4643 159.866 28.9522 160.641 30.812C161.447 32.6409 161.85 34.6713 161.85 36.9031V38.8559H145.669V39.4604C145.669 41.2273 146.165 42.6532 147.157 43.7381C148.18 44.823 149.667 45.3655 151.62 45.3655C153.108 45.3655 154.333 45.0555 155.293 44.4355C156.254 43.8156 157.091 43.0251 157.804 42.0642L161.013 45.5515C160.021 46.9154 158.657 48.0158 156.921 48.8527C155.216 49.6587 153.248 50.0616 151.016 50.0616ZM145.669 35.2292H155.758V34.7642C155.758 33.6173 155.572 32.6254 155.201 31.7885C154.829 30.9515 154.286 30.3006 153.573 29.8356C152.86 29.3396 151.977 29.0917 150.923 29.0917C149.869 29.0917 148.939 29.3396 148.133 29.8356C147.358 30.3006 146.754 30.967 146.32 31.835C145.886 32.7029 145.669 33.7103 145.669 34.8572V35.2292ZM167.132 49.5037V25.2324H172.991V29.2776H173.223C173.719 27.9757 174.494 26.8908 175.548 26.0229C176.633 25.124 178.121 24.6745 180.012 24.6745C182.492 24.6745 184.398 25.5114 185.731 27.1853C187.095 28.8282 187.777 31.153 187.777 34.1598V49.5037H181.965V34.7642C181.965 33.0284 181.639 31.7265 180.988 30.8585C180.368 29.9596 179.33 29.5101 177.873 29.5101C177.036 29.5101 176.246 29.6496 175.502 29.9286C174.758 30.2076 174.153 30.6415 173.688 31.2305C173.223 31.8195 172.991 32.5479 172.991 33.4158V49.5037H167.132ZM204 50.0616C200.435 50.0616 197.677 48.9147 195.724 46.6209C193.802 44.327 192.841 41.2428 192.841 37.3681C192.841 33.4623 193.802 30.3781 195.724 28.1152C197.677 25.8214 200.435 24.6745 204 24.6745C206.449 24.6745 208.464 25.2324 210.045 26.3484C211.626 27.4333 212.772 28.9212 213.485 30.812L208.743 32.9509C208.433 31.897 207.875 31.0445 207.069 30.3936C206.294 29.7426 205.271 29.4171 204 29.4171C202.326 29.4171 201.055 29.9441 200.187 30.998C199.35 32.0519 198.932 33.4468 198.932 35.1827V39.5999C198.932 41.3048 199.35 42.6842 200.187 43.7381C201.055 44.792 202.326 45.319 204 45.319C205.395 45.319 206.495 44.9625 207.301 44.2495C208.107 43.5366 208.743 42.6222 209.208 41.5063L213.671 43.6916C212.865 45.7994 211.641 47.3958 209.998 48.4807C208.355 49.5347 206.356 50.0616 204 50.0616ZM227.799 50.0616C225.412 50.0616 223.366 49.5502 221.661 48.5272C219.956 47.4733 218.654 46.0009 217.755 44.1101C216.857 42.1882 216.407 39.9409 216.407 37.3681C216.407 34.7952 216.841 32.5634 217.709 30.6725C218.608 28.7817 219.894 27.3093 221.568 26.2554C223.242 25.2014 225.257 24.6745 227.613 24.6745C230.124 24.6745 232.185 25.2324 233.797 26.3484C235.44 27.4643 236.649 28.9522 237.424 30.812C238.229 32.6409 238.632 34.6713 238.632 36.9031V38.8559H222.452V39.4604C222.452 41.2273 222.948 42.6532 223.94 43.7381C224.962 44.823 226.45 45.3655 228.403 45.3655C229.891 45.3655 231.115 45.0555 232.076 44.4355C233.037 43.8156 233.874 43.0251 234.587 42.0642L237.795 45.5515C236.804 46.9154 235.44 48.0158 233.704 48.8527C231.999 49.6587 230.031 50.0616 227.799 50.0616ZM222.452 35.2292H232.541V34.7642C232.541 33.6173 232.355 32.6254 231.983 31.7885C231.611 30.9515 231.069 30.3006 230.356 29.8356C229.643 29.3396 228.76 29.0917 227.706 29.0917C226.652 29.0917 225.722 29.3396 224.916 29.8356C224.141 30.3006 223.537 30.967 223.103 31.835C222.669 32.7029 222.452 33.7103 222.452 34.8572V35.2292ZM251.866 50.0616C249.541 50.0616 247.588 49.6741 246.008 48.8992C244.427 48.0933 243.032 46.9928 241.823 45.5979L245.403 42.1572C246.302 43.1801 247.294 43.9861 248.379 44.575C249.464 45.164 250.704 45.4585 252.099 45.4585C253.525 45.4585 254.563 45.2105 255.214 44.7145C255.865 44.1876 256.19 43.4746 256.19 42.5757C256.19 41.8627 255.958 41.2893 255.493 40.8553C255.028 40.4213 254.253 40.1269 253.168 39.9719L250.75 39.6464C249.045 39.4294 247.588 39.0264 246.38 38.4375C245.171 37.8485 244.256 37.0581 243.636 36.0662C243.016 35.0432 242.706 33.8033 242.706 32.3464C242.706 29.9596 243.543 28.0842 245.217 26.7203C246.891 25.3564 249.107 24.6745 251.866 24.6745C253.447 24.6745 254.795 24.8295 255.911 25.1395C257.027 25.4184 258.004 25.8524 258.841 26.4414C259.709 26.9993 260.53 27.6813 261.305 28.4872L257.818 31.928C257.136 31.184 256.299 30.5641 255.307 30.0681C254.315 29.5411 253.215 29.2776 252.006 29.2776C250.735 29.2776 249.789 29.5256 249.169 30.0216C248.58 30.4866 248.286 31.1065 248.286 31.8815C248.286 32.7184 248.534 33.3538 249.03 33.7878C249.526 34.1908 250.363 34.4853 251.541 34.6713L253.958 34.9967C256.624 35.3687 258.593 36.1591 259.864 37.3681C261.134 38.546 261.77 40.1424 261.77 42.1572C261.77 43.7071 261.367 45.0865 260.561 46.2954C259.755 47.4733 258.608 48.4032 257.12 49.0852C255.632 49.7361 253.881 50.0616 251.866 50.0616Z" fill="white"/>
<path d="M119.042 59.1453C117.29 59.1453 115.655 58.923 114.138 58.4785C112.648 58.0339 111.432 57.354 110.491 56.4388C109.575 55.5236 109.118 54.373 109.118 52.987C109.118 51.9149 109.458 50.8427 110.138 49.7706C112.543 45.9527 116.649 43.1154 122.454 41.2587C121.591 40.2651 121.16 39.1406 121.16 37.8854C121.16 36.8656 121.434 35.9895 121.983 35.2573C123.056 33.7929 124.677 32.577 126.847 31.6094C128.076 31.0864 129.319 30.6811 130.574 30.3934C131.855 30.1058 133.149 29.962 134.457 29.962C136.078 29.962 137.307 30.2235 138.144 30.7465C139.007 31.2695 139.439 32.0017 139.439 32.9431C139.439 33.5968 139.255 34.1983 138.889 34.7474C138.549 35.2704 138.118 35.7019 137.595 36.0418C137.072 36.3556 136.536 36.5125 135.987 36.5125C135.176 36.5125 134.771 36.3164 134.771 35.9242C134.771 35.6888 134.941 35.5711 135.281 35.5711C135.385 35.5711 135.516 35.5973 135.673 35.6496C135.856 35.6757 135.987 35.6888 136.065 35.6888C136.614 35.6888 137.098 35.4012 137.517 34.8259C137.935 34.2506 138.144 33.6753 138.144 33.1C138.144 32.2632 137.739 31.6617 136.928 31.2956C136.144 30.9295 135.255 30.7465 134.261 30.7465C131.777 30.7465 129.345 31.544 126.965 33.1392C124.455 34.7866 123.199 36.6433 123.199 38.7091C123.199 39.4675 123.461 40.1735 123.984 40.8273C124.899 40.5396 125.749 40.3435 126.534 40.2389C127.344 40.1082 128.116 40.0428 128.848 40.0428C131.358 40.0428 132.613 40.5266 132.613 41.4941C132.613 41.9386 132.43 42.3309 132.064 42.6708C131.698 42.9846 131.227 43.2331 130.652 43.4161C130.103 43.573 129.541 43.6515 128.965 43.6515C128.364 43.6515 127.697 43.573 126.965 43.4161C126.233 43.2592 125.527 43.05 124.847 42.7885C124.167 42.527 123.592 42.2263 123.121 41.8863C120.663 42.5924 118.479 43.6907 116.57 45.1812C114.688 46.6456 113.289 48.2931 112.373 50.1236C111.876 51.1173 111.628 52.0848 111.628 53.0262C111.628 54.1768 111.955 55.1182 112.609 55.8504C113.262 56.5826 114.125 57.1187 115.198 57.4586C116.296 57.7986 117.499 57.9686 118.806 57.9686C120.977 57.9686 123.134 57.6155 125.278 56.9095C127.423 56.2296 129.253 55.2098 130.77 53.85C132.836 52.0195 133.869 50.0974 133.869 48.0839C133.869 46.4887 133.097 45.6912 131.554 45.6912C130.744 45.6912 129.842 45.9004 128.848 46.3188C127.854 46.711 126.913 47.2471 126.024 47.927C125.161 48.6069 124.442 49.3522 123.866 50.1628C123.291 50.9735 123.003 51.7972 123.003 52.634C123.003 53.4708 123.369 53.9807 124.102 54.1638C124.363 54.2684 124.494 54.3991 124.494 54.556C124.494 54.7652 124.298 54.8698 123.905 54.8698C122.52 54.8698 121.827 54.0984 121.827 52.5555C121.827 51.5357 122.127 50.5681 122.729 49.6529C123.33 48.7376 124.102 47.927 125.043 47.2209C126.011 46.5149 127.057 45.9657 128.181 45.5735C129.305 45.1551 130.391 44.9459 131.437 44.9459C132.666 44.9459 133.62 45.2205 134.3 45.7696C134.98 46.2926 135.32 47.1556 135.32 48.3585C135.32 50.7904 133.973 53.0785 131.28 55.2228C129.58 56.6088 127.697 57.6025 125.631 58.2039C123.566 58.8315 121.369 59.1453 119.042 59.1453ZM128.612 42.7885C130.025 42.7885 130.731 42.3832 130.731 41.5725C130.731 41.2064 130.025 41.0234 128.612 41.0234C127.985 41.0234 127.331 41.0626 126.651 41.1411C125.997 41.2195 125.331 41.3241 124.651 41.4549C125.775 42.344 127.096 42.7885 128.612 42.7885ZM135.414 60.0083C135.101 60.0083 134.944 59.8644 134.944 59.5768C134.944 59.4983 134.97 59.433 135.022 59.3807C137.454 55.5366 140.082 52.1633 142.906 49.2606C142.932 48.633 142.959 47.8224 142.985 46.8287C143.011 45.8088 143.05 44.6059 143.102 43.22C142.815 43.2723 142.331 43.7168 141.651 44.5536C140.971 45.3643 140.174 46.4364 139.258 47.7701C138.369 49.0776 137.532 50.1628 136.748 51.0258C135.99 51.8887 135.558 52.3594 135.454 52.4379C135.27 52.5948 135.101 52.6732 134.944 52.6732C134.813 52.6732 134.747 52.6078 134.747 52.4771C134.747 52.3725 134.8 52.2679 134.904 52.1633C134.983 52.0325 135.192 51.7841 135.532 51.418C136.003 50.895 136.408 50.4374 136.748 50.0451C137.088 49.6267 137.415 49.1822 137.729 48.7115C138.069 48.2408 138.461 47.6655 138.905 46.9856C139.193 46.5672 139.546 46.0442 139.964 45.4166C140.409 44.7628 140.854 44.1352 141.298 43.5338C141.769 42.9323 142.174 42.4878 142.514 42.2001C142.776 41.9648 143.05 41.7948 143.338 41.6902C143.652 41.5856 143.939 41.5333 144.201 41.5333C144.514 41.5333 144.802 41.5987 145.064 41.7294C145.351 41.8602 145.456 42.1478 145.377 42.5924C145.377 42.6185 145.312 43.0369 145.181 43.8476C145.077 44.6321 144.972 45.7958 144.868 47.3386C145.364 46.8679 146.345 45.9919 147.809 44.7105C149.3 43.403 151.209 41.7556 153.536 39.7682C153.589 39.7159 153.654 39.6898 153.732 39.6898C153.915 39.6898 154.112 39.8074 154.321 40.0428C154.53 40.252 154.635 40.4743 154.635 40.7096C154.635 40.9188 154.53 41.128 154.321 41.3372C153.51 41.9909 151.941 43.1677 149.614 44.8674C148.568 45.5996 147.626 46.3057 146.79 46.9856C145.979 47.6655 145.312 48.2539 144.789 48.7507C144.763 49.0122 144.75 49.2737 144.75 49.5352C144.75 49.7967 144.75 50.0451 144.75 50.2805C144.75 51.9018 144.907 53.1178 145.221 53.9284C145.56 54.7129 146.097 55.1052 146.829 55.1052C147.639 55.1052 148.659 54.5952 149.888 53.5754C151.144 52.5294 152.425 51.248 153.732 49.7313C153.994 49.4698 154.19 49.3391 154.321 49.3391C154.451 49.3391 154.517 49.4175 154.517 49.5744C154.517 49.6267 154.491 49.7052 154.438 49.8098C154.412 49.9144 154.334 50.0451 154.203 50.202C153.366 51.1696 152.451 52.1502 151.457 53.1439C150.49 54.1376 149.509 54.9744 148.515 55.6543C147.522 56.308 146.567 56.6349 145.652 56.6349C144.868 56.6349 144.279 56.3473 143.887 55.772C143.495 55.1705 143.233 54.4122 143.102 53.4969C142.998 52.5817 142.932 51.6272 142.906 50.6335C139.716 54.033 137.323 57.1056 135.728 59.8514C135.65 59.956 135.545 60.0083 135.414 60.0083ZM150.585 63.4208C149.487 62.8194 148.937 61.6819 148.937 60.0083C148.937 58.2039 150.415 55.1182 153.37 50.7512C156.194 46.541 158.155 44.266 159.254 43.926C159.358 43.8999 159.45 43.8868 159.528 43.8868C159.607 43.8607 159.685 43.8476 159.763 43.8476C160.208 43.8476 160.43 44.3314 160.43 45.2989C160.613 45.1159 160.927 44.9459 161.372 44.789C161.842 44.6059 162.313 44.4621 162.784 44.3575C163.281 44.2529 163.647 44.1875 163.882 44.1614C164.954 44.1091 165.843 44.3706 166.549 44.9459C167.282 45.495 167.648 46.2272 167.648 47.1425C167.648 49.2606 166.379 51.3134 163.843 53.3008C161.542 55.1052 159.502 56.0073 157.724 56.0073C156.547 56.0073 155.736 55.9419 155.292 55.8112C154.664 55.6281 154.024 55.1444 153.37 54.3599C153.082 54.5952 152.768 55.0006 152.428 55.5758C152.088 56.125 151.775 56.7264 151.487 57.3802C151.173 58.0601 150.925 58.7269 150.742 59.3807C150.533 60.0344 150.428 60.5836 150.428 61.0281C150.428 61.4727 150.519 61.8388 150.703 62.1264C150.859 62.4402 151.016 62.7279 151.173 62.9894C151.173 63.0155 151.186 63.0286 151.212 63.0286C151.212 63.0547 151.212 63.0678 151.212 63.0678C151.212 63.1986 151.147 63.3032 151.016 63.3816C150.859 63.4862 150.716 63.4993 150.585 63.4208ZM157.214 54.909C158.678 54.909 160.365 54.1638 162.274 52.6732C164.523 50.895 165.647 48.9207 165.647 46.7502C165.647 45.7565 165.033 45.2597 163.804 45.2597C162.679 45.2597 161.633 45.5081 160.666 46.005C160.404 46.1096 159.973 46.4495 159.371 47.0248C158.796 47.6001 158.025 48.3846 157.057 49.3783C154.991 51.5226 153.958 52.8955 153.958 53.4969C153.958 53.9676 154.39 54.3468 155.253 54.6345C155.828 54.8175 156.482 54.909 157.214 54.909ZM169.646 56.5172C168.81 56.5172 168.051 56.2557 167.371 55.7327C166.691 55.1836 166.351 54.4645 166.351 53.5754C166.351 51.7187 167.489 49.6006 169.764 47.2209C172.091 44.8151 174.17 43.6122 176.001 43.6122C176.602 43.6122 177.086 43.7822 177.452 44.1222C177.844 44.436 178.04 44.8282 178.04 45.2989C178.04 46.7633 176.877 48.2016 174.549 49.6137C172.484 50.8689 170.745 51.4965 169.333 51.4965C169.123 51.4965 168.94 51.4703 168.783 51.418C168.391 52.1241 168.195 52.8693 168.195 53.6538C168.195 55.0136 168.836 55.6935 170.117 55.6935C171.425 55.6935 173.111 54.8175 175.177 53.0655C176.772 51.7841 178.132 50.4243 179.256 48.9861C179.492 48.6723 179.701 48.5154 179.884 48.5154C180.041 48.5154 180.119 48.5938 180.119 48.7507C180.119 48.9076 180.015 49.1299 179.806 49.4175C179.073 50.3851 178.289 51.2742 177.452 52.0848C176.615 52.8955 175.713 53.6408 174.746 54.3207C172.732 55.785 171.032 56.5172 169.646 56.5172ZM169.882 50.6335C170.875 50.6335 172.17 50.1367 173.765 49.143C174.288 48.7769 174.798 48.3715 175.295 47.927C175.818 47.4563 176.236 46.9856 176.55 46.5149C176.89 46.0442 177.06 45.6258 177.06 45.2597C177.06 44.9197 176.785 44.7498 176.236 44.7498C175.452 44.7498 174.353 45.3381 172.941 46.5149C172.261 47.0902 171.608 47.7178 170.98 48.3977C170.352 49.0776 169.816 49.7967 169.372 50.5551C169.529 50.6074 169.699 50.6335 169.882 50.6335ZM185.722 56.2034C184.598 56.2034 183.826 55.9158 183.408 55.3405C182.989 54.7391 182.78 53.9415 182.78 52.9478C182.78 51.8495 183.12 50.542 183.8 49.0253C184.062 48.4238 184.336 47.8878 184.624 47.4171C184.911 46.9202 185.212 46.4626 185.526 46.0442C185.421 46.0703 185.33 46.0834 185.251 46.0834C185.173 46.0834 185.095 46.0834 185.016 46.0834C184.388 46.0834 183.865 45.6389 183.447 44.7498L180.544 48.5154C179.002 50.5289 178.06 51.5357 177.72 51.5357C177.589 51.5357 177.524 51.4834 177.524 51.3788C177.524 51.248 177.589 51.0781 177.72 50.8689C177.799 50.712 177.956 50.5028 178.191 50.2413C179.185 49.0907 180.1 47.9531 180.937 46.8287C181.773 45.7042 182.466 44.6059 183.016 43.5338C183.617 41.2587 184.375 40.1212 185.291 40.1212C185.892 40.1212 186.193 40.3958 186.193 40.945C186.193 41.4418 185.866 42.0955 185.212 42.9062C184.585 43.7168 184.271 44.1352 184.271 44.1614C184.271 44.7105 184.676 44.9851 185.487 44.9851C185.957 44.9851 186.48 44.8151 187.056 44.4752L188.076 43.8476C188.128 43.8214 188.206 43.8084 188.311 43.8084C188.625 43.8084 188.899 43.9391 189.135 44.2006C189.37 44.4621 189.448 44.6975 189.37 44.9067L186.664 48.3192C184.99 50.4635 184.153 52.1894 184.153 53.4969C184.153 54.6737 184.728 55.2621 185.879 55.2621C186.664 55.2621 187.5 55.0267 188.389 54.556C189.305 54.0853 190.181 53.51 191.017 52.8301C191.88 52.1241 192.6 51.4442 193.175 50.7904L194.116 49.6921C194.169 49.6398 194.234 49.5744 194.312 49.496C194.391 49.4175 194.456 49.3783 194.509 49.3783C194.692 49.3783 194.783 49.4698 194.783 49.6529C194.783 49.7052 194.757 49.7967 194.705 49.9275C194.652 50.0582 194.561 50.202 194.43 50.3589L193.175 51.771C192.573 52.4509 191.828 53.1439 190.939 53.85C190.076 54.5299 189.174 55.0921 188.233 55.5366C187.317 55.9812 186.48 56.2034 185.722 56.2034ZM201.826 42.5139C201.382 42.5139 200.989 42.3701 200.649 42.0825C200.336 41.7948 200.179 41.4679 200.179 41.1018C200.179 40.3697 200.676 40.0036 201.669 40.0036C202.035 40.0036 202.401 40.1343 202.768 40.3958C203.134 40.6312 203.317 40.9319 203.317 41.298C203.317 41.6118 203.147 41.8994 202.807 42.1609C202.467 42.3963 202.14 42.5139 201.826 42.5139ZM194.569 56.4388C193.994 56.4388 193.523 56.2557 193.157 55.8896C192.765 55.4974 192.569 54.8175 192.569 53.85C192.569 53.3008 192.7 52.6732 192.961 51.9672C193.197 51.235 193.497 50.5028 193.863 49.7706C194.256 49.0384 194.635 48.3846 195.001 47.8093C196.465 45.4297 197.668 44.2268 198.61 44.2006C198.845 44.2006 199.133 44.3052 199.473 44.5144C199.813 44.6975 199.983 44.9067 199.983 45.142C199.983 45.142 198.989 46.4234 197.001 48.9861C195.04 51.5226 194.06 53.327 194.06 54.3991C194.06 55.2359 194.386 55.6543 195.04 55.6543C195.459 55.6543 195.995 55.4843 196.648 55.1444C197.328 54.7783 198.034 54.3207 198.767 53.7715C199.499 53.2224 200.192 52.634 200.845 52.0064C201.525 51.3788 202.075 50.8035 202.493 50.2805C202.754 49.9405 202.977 49.7052 203.16 49.5744C203.369 49.4437 203.5 49.3783 203.552 49.3783C203.657 49.3783 203.709 49.4568 203.709 49.6137C203.709 49.7444 203.552 50.0059 203.238 50.3982C202.951 50.7904 202.545 51.248 202.022 51.771C201.395 52.3986 200.702 53.0785 199.943 53.8107C199.185 54.5429 198.361 55.1705 197.472 55.6935C196.583 56.1904 195.615 56.4388 194.569 56.4388ZM204.006 56.5172C203.17 56.5172 202.411 56.2557 201.731 55.7327C201.052 55.1836 200.712 54.4645 200.712 53.5754C200.712 51.7187 201.849 49.6006 204.124 47.2209C206.451 44.8151 208.53 43.6122 210.361 43.6122C210.962 43.6122 211.446 43.7822 211.812 44.1222C212.204 44.436 212.401 44.8282 212.401 45.2989C212.401 46.7633 211.237 48.2016 208.91 49.6137C206.844 50.8689 205.105 51.4965 203.693 51.4965C203.483 51.4965 203.3 51.4703 203.144 51.418C202.751 52.1241 202.555 52.8693 202.555 53.6538C202.555 55.0136 203.196 55.6935 204.477 55.6935C205.785 55.6935 207.471 54.8175 209.537 53.0655C211.132 51.7841 212.492 50.4243 213.617 48.9861C213.852 48.6723 214.061 48.5154 214.244 48.5154C214.401 48.5154 214.48 48.5938 214.48 48.7507C214.48 48.9076 214.375 49.1299 214.166 49.4175C213.434 50.3851 212.649 51.2742 211.812 52.0848C210.975 52.8955 210.073 53.6408 209.106 54.3207C207.092 55.785 205.392 56.5172 204.006 56.5172ZM204.242 50.6335C205.236 50.6335 206.53 50.1367 208.125 49.143C208.648 48.7769 209.158 48.3715 209.655 47.927C210.178 47.4563 210.596 46.9856 210.91 46.5149C211.25 46.0442 211.42 45.6258 211.42 45.2597C211.42 44.9197 211.145 44.7498 210.596 44.7498C209.812 44.7498 208.713 45.3381 207.301 46.5149C206.621 47.0902 205.968 47.7178 205.34 48.3977C204.713 49.0776 204.176 49.7967 203.732 50.5551C203.889 50.6074 204.059 50.6335 204.242 50.6335ZM222.083 56.0858C221.377 56.0858 220.88 55.8896 220.592 55.4974C220.305 55.079 220.161 54.5691 220.161 53.9676C220.161 52.4509 220.684 50.8296 221.73 49.1037L224.24 45.0243C222.462 46.3318 220.697 47.9662 218.945 49.9275C218.474 50.4505 217.938 51.065 217.337 51.771C216.761 52.4771 216.121 53.2877 215.414 54.203C214.473 55.432 213.911 56.0465 213.728 56.0465C213.362 56.0465 213.061 55.8896 212.826 55.5758C212.59 55.2359 212.473 54.9352 212.473 54.6737C212.473 54.4645 212.538 54.0853 212.669 53.5362C212.799 52.9609 212.956 52.464 213.139 52.0456C213.322 51.6011 213.506 51.1696 213.689 50.7512C213.898 50.3066 214.094 49.8752 214.277 49.4568L211.923 51.9279C211.871 51.9802 211.714 52.1371 211.453 52.3986C211.191 52.6601 210.982 52.7909 210.825 52.7909C210.694 52.7909 210.629 52.6994 210.629 52.5163C210.629 52.464 210.655 52.3986 210.707 52.3202C210.734 52.2156 210.812 52.0979 210.943 51.9672C211.335 51.5749 211.74 51.1565 212.159 50.712C212.577 50.2674 213.009 49.7575 213.453 49.1822C213.689 48.8945 214.042 48.4631 214.512 47.8878C214.983 47.2863 215.493 46.6456 216.042 45.9657C216.617 45.2858 217.153 44.6582 217.65 44.0829C217.781 43.8999 217.925 43.7822 218.082 43.7299C218.239 43.6515 218.343 43.6122 218.396 43.6122C219.102 43.6122 219.455 43.8868 219.455 44.436C219.455 44.5929 219.415 44.7498 219.337 44.9067C216.983 48.1493 215.571 50.6204 215.101 52.3202C218.134 49.2868 220.566 47.0117 222.397 45.495C224.253 43.9522 225.574 43.1808 226.358 43.1808C226.777 43.1808 227.09 43.2461 227.3 43.3769C227.535 43.5076 227.653 43.7561 227.653 44.1222C227.653 44.2529 227.64 44.3575 227.613 44.436C227.535 44.619 226.999 45.3512 226.005 46.6326C225.404 47.3648 224.868 48.0316 224.397 48.633C223.952 49.2345 223.586 49.7575 223.299 50.202C222.828 50.9342 222.475 51.6272 222.24 52.281C222.004 52.9086 221.887 53.4446 221.887 53.8892C221.887 54.0722 221.913 54.2945 221.965 54.556C222.017 54.8175 222.174 54.9483 222.436 54.9483C223.037 54.9483 223.979 54.4253 225.26 53.3793C225.861 52.8563 226.424 52.3333 226.947 51.8103C227.47 51.2611 227.966 50.725 228.437 50.202C228.542 50.0974 228.712 49.9013 228.947 49.6137C229.182 49.2999 229.326 49.143 229.379 49.143C229.483 49.143 229.535 49.2476 229.535 49.4568C229.535 49.5614 229.47 49.7444 229.339 50.0059C229.235 50.2413 229.117 50.4243 228.986 50.5551C228.699 50.895 228.267 51.3657 227.692 51.9672C227.143 52.5686 226.515 53.1831 225.809 53.8107C225.129 54.4383 224.462 54.9744 223.809 55.419C223.155 55.8635 222.58 56.0858 222.083 56.0858ZM230.882 56.5172C230.045 56.5172 229.287 56.2557 228.607 55.7327C227.927 55.1836 227.587 54.4645 227.587 53.5754C227.587 51.7187 228.724 49.6006 230.999 47.2209C233.327 44.8151 235.406 43.6122 237.236 43.6122C237.864 43.6122 238.361 43.7822 238.727 44.1222C239.093 44.436 239.276 44.8282 239.276 45.2989C239.276 45.9527 239.119 46.5541 238.805 47.1033C238.439 47.7832 237.916 48.1231 237.236 48.1231C236.556 48.1231 236.216 47.9139 236.216 47.4955C236.216 47.2079 236.386 46.7764 236.726 46.2011C237.092 45.5996 237.275 45.2858 237.275 45.2597C237.275 45.2074 237.236 45.1812 237.158 45.1812C236.425 45.2597 235.406 45.7958 234.098 46.7895C233.523 47.234 233.013 47.6524 232.568 48.0447C232.15 48.4369 231.81 48.8161 231.548 49.1822L230.019 51.418C229.862 51.6534 229.692 52.0587 229.509 52.634C229.352 53.2093 229.273 53.6408 229.273 53.9284C229.273 54.4514 229.443 54.8829 229.783 55.2228C230.149 55.5628 230.607 55.7327 231.156 55.7327C232.464 55.7327 234.19 54.8829 236.334 53.1831C238.06 51.8233 239.446 50.4505 240.492 49.0645C240.623 48.9076 240.779 48.8292 240.962 48.8292C241.146 48.8292 241.237 48.8815 241.237 48.9861C241.237 49.0645 241.172 49.1953 241.041 49.3783C239.603 51.2873 237.916 52.9347 235.981 54.3207C233.915 55.785 232.215 56.5172 230.882 56.5172ZM241.01 56.5172C240.173 56.5172 239.415 56.2557 238.735 55.7327C238.055 55.1836 237.715 54.4645 237.715 53.5754C237.715 51.7187 238.852 49.6006 241.127 47.2209C243.455 44.8151 245.534 43.6122 247.364 43.6122C247.966 43.6122 248.449 43.7822 248.815 44.1222C249.208 44.436 249.404 44.8282 249.404 45.2989C249.404 46.7633 248.24 48.2016 245.913 49.6137C243.847 50.8689 242.108 51.4965 240.696 51.4965C240.487 51.4965 240.304 51.4703 240.147 51.418C239.754 52.1241 239.558 52.8693 239.558 53.6538C239.558 55.0136 240.199 55.6935 241.48 55.6935C242.788 55.6935 244.475 54.8175 246.54 53.0655C248.136 51.7841 249.495 50.4243 250.62 48.9861C250.855 48.6723 251.064 48.5154 251.247 48.5154C251.404 48.5154 251.483 48.5938 251.483 48.7507C251.483 48.9076 251.378 49.1299 251.169 49.4175C250.437 50.3851 249.652 51.2742 248.815 52.0848C247.979 52.8955 247.076 53.6408 246.109 54.3207C244.095 55.785 242.396 56.5172 241.01 56.5172ZM241.245 50.6335C242.239 50.6335 243.533 50.1367 245.128 49.143C245.651 48.7769 246.161 48.3715 246.658 47.927C247.181 47.4563 247.599 46.9856 247.913 46.5149C248.253 46.0442 248.423 45.6258 248.423 45.2597C248.423 44.9197 248.149 44.7498 247.599 44.7498C246.815 44.7498 245.717 45.3381 244.305 46.5149C243.625 47.0902 242.971 47.7178 242.343 48.3977C241.716 49.0776 241.18 49.7967 240.735 50.5551C240.892 50.6074 241.062 50.6335 241.245 50.6335ZM253.594 56.0858C252.365 56.0858 251.45 55.6804 250.849 54.8698C250.273 54.0592 249.803 52.9347 249.437 51.4965C248.966 51.9672 248.639 52.2025 248.456 52.2025C248.325 52.2025 248.26 52.0979 248.26 51.8887C248.26 51.7318 248.325 51.588 248.456 51.4572C248.456 51.4572 248.783 51.0519 249.437 50.2413C250.116 49.4306 251.254 48.2931 252.849 46.8287L257.791 42.2001C258.471 41.5464 259.007 41.0496 259.4 40.7096C259.818 40.3697 260.119 40.1997 260.302 40.1997C261.139 40.1997 261.557 40.5135 261.557 41.1411C261.557 41.4549 261.387 41.821 261.047 42.2394C260.786 42.5532 260.59 42.8016 260.459 42.9846C260.354 43.1415 260.289 43.2331 260.263 43.2592C259.792 44.0699 259.36 45.5212 258.968 47.6132C258.681 49.156 258.432 50.4243 258.223 51.418C258.014 52.4117 257.844 53.1308 257.713 53.5754C258.811 53.5492 259.897 53.2093 260.969 52.5555C262.041 51.9018 263.191 50.8296 264.421 49.3391C264.473 49.2868 264.551 49.2083 264.656 49.1037C264.76 48.9991 264.865 48.9468 264.97 48.9468C265.127 48.9468 265.205 49.0122 265.205 49.143C265.205 49.2737 265.166 49.4045 265.087 49.5352C265.009 49.666 264.93 49.7836 264.852 49.8882C264.041 50.8558 263.283 51.6534 262.577 52.281C261.871 52.8824 261.126 53.3662 260.341 53.7323C259.557 54.0722 258.628 54.3599 257.556 54.5952L256.301 55.419C255.961 55.6543 255.556 55.8243 255.085 55.9289C254.614 56.0335 254.117 56.0858 253.594 56.0858ZM254.065 54.0853C254.667 54.0853 255.163 53.9415 255.556 53.6538C255.843 53.4969 256.118 53.0655 256.379 52.3594C256.667 51.6272 256.942 50.725 257.203 49.6529C257.412 48.7376 257.569 47.8485 257.674 46.9856C257.805 46.0965 257.922 45.2466 258.027 44.436L258.184 43.1023C257.582 43.5469 256.824 44.1875 255.909 45.0243C254.993 45.8611 254.091 46.7372 253.202 47.6524C252.313 48.5677 251.738 49.2476 251.476 49.6921C251.215 50.1105 251.071 50.4243 251.045 50.6335C250.94 51.6795 251.189 52.5163 251.79 53.1439C252.418 53.7715 253.176 54.0853 254.065 54.0853Z" fill="#7C5395"/>
</g>
<defs>
<clipPath id="clip0_38_18">
<rect width="266.496" height="64.9927" fill="white" transform="translate(0 0.00732422)"/>
</clipPath>
</defs>
</svg>
